<svg width="150" height="150" viewBox="0 0 150 150" fill="none" xmlns="http://www.w3.org/2000/svg">
<path d="M109.52 121.922V120.429C109.52 116.754 112.506 113.769 116.181 113.769H116.755C120.43 113.769 123.416 116.754 123.416 120.429C123.416 122.037 122.841 123.645 121.693 124.908L109.52 138H123.301" stroke="#CA0503" stroke-width="2.4" stroke-miterlimit="10" stroke-linecap="round" stroke-linejoin="round"/>
<path d="M138.23 137.998V114.915L126.286 132.256H141.675" stroke="#CA0503" stroke-width="2.4" stroke-miterlimit="10" stroke-linecap="square" stroke-linejoin="round"/>
<path d="M103.778 75.9854V95.5083" stroke="#074C7D" stroke-width="2.4" stroke-miterlimit="10" stroke-linecap="round" stroke-linejoin="round"/>
<path d="M103.778 104.696C106.315 104.696 108.371 102.639 108.371 100.102C108.371 97.5654 106.315 95.5088 103.778 95.5088C101.241 95.5088 99.184 97.5654 99.184 100.102C99.184 102.639 101.241 104.696 103.778 104.696Z" stroke="#074C7D" stroke-width="2.4" stroke-miterlimit="10" stroke-linecap="round" stroke-linejoin="round"/>
<path d="M103.778 133.406C85.4031 133.406 70.4738 118.476 70.4738 100.102C70.4738 81.7272 85.4031 66.7979 103.778 66.7979C122.152 66.7979 137.082 81.7272 137.082 100.102C137.082 102.054 137.082 106.992 137.082 106.992" stroke="#074C7D" stroke-width="2.4" stroke-miterlimit="10" stroke-linecap="round" stroke-linejoin="round"/>
<path d="M107.223 96.657L115.262 88.6182" stroke="#074C7D" stroke-width="2.4" stroke-miterlimit="10" stroke-linecap="round" stroke-linejoin="round"/>
<path d="M132.488 102.399L137.081 108.141L141.675 102.399" stroke="#074C7D" stroke-width="2.4" stroke-miterlimit="10" stroke-linecap="round" stroke-linejoin="round"/>
<path d="M13.6105 105.126V38.2737H119.653V65.9369L124.263 68.2422V26.7474C124.255 20.3843 119.1 15.2289 112.737 15.2211H96.6001V12.9158C96.6001 9.09658 93.5036 6 89.6843 6C85.8651 6 82.7685 9.09658 82.7685 12.9158V15.2211H50.4948V12.9158C50.4948 9.09658 47.3982 6 43.579 6C39.7598 6 36.6632 9.09658 36.6632 12.9158V15.2211H20.5263C14.1632 15.2289 9.00788 20.3843 9 26.7474V105.126C9.00788 111.49 14.1632 116.645 20.5263 116.653H68.9369L66.6317 112.042H20.5263C16.7071 112.042 13.6105 108.946 13.6105 105.126ZM87.3791 12.9158C87.3791 11.6427 88.4113 10.6105 89.6843 10.6105C90.9574 10.6105 91.9896 11.6427 91.9896 12.9158V22.1369C91.9896 23.4099 90.9574 24.4421 89.6843 24.4421C88.4113 24.4421 87.3791 23.4099 87.3791 22.1369V12.9158ZM41.2737 12.9158C41.2737 11.6427 42.3059 10.6105 43.579 10.6105C44.8521 10.6105 45.8843 11.6427 45.8843 12.9158V22.1369C45.8843 23.4099 44.8521 24.4421 43.579 24.4421C42.3059 24.4421 41.2737 23.4099 41.2737 22.1369V12.9158ZM20.5263 19.8316H36.6632V22.1369C36.6632 25.9561 39.7598 29.0527 43.579 29.0527C47.3982 29.0527 50.4948 25.9561 50.4948 22.1369V19.8316H82.7685V22.1369C82.7685 25.9561 85.8651 29.0527 89.6843 29.0527C93.5036 29.0527 96.6001 25.9561 96.6001 22.1369V19.8316H112.737C116.556 19.8316 119.653 22.9282 119.653 26.7474V33.6632H13.6105V26.7474C13.6105 22.9282 16.7071 19.8316 20.5263 19.8316Z" fill="#CA0503" stroke="white" stroke-width="2.3"/>
<line x1="33.6" y1="20.8281" x2="33.6" y2="15.1713" stroke="white" stroke-width="8"/>
<path d="M41.2731 56.717C41.2731 54.1708 39.2087 52.1064 36.6625 52.1064H27.4415C24.8953 52.1064 22.8309 54.1708 22.8309 56.717V65.938C22.8309 68.4842 24.8953 70.5486 27.4415 70.5486H36.6625C39.2087 70.5486 41.2731 68.4842 41.2731 65.938V56.717ZM27.4415 65.938V56.717H36.6625V65.938H27.4415Z" fill="#CA0503" stroke="white" stroke-width="2.3"/>
<path d="M64.3258 56.717C64.3258 54.1708 62.2614 52.1064 59.7153 52.1064H50.4942C47.9481 52.1064 45.8837 54.1708 45.8837 56.717V65.938C45.8837 68.4842 47.9481 70.5486 50.4942 70.5486H59.7153C62.2614 70.5486 64.3258 68.4842 64.3258 65.938V56.717ZM50.4942 65.938V56.717H59.7153V65.938H50.4942Z" fill="#CA0503" stroke="white" stroke-width="2.3"/>
<path d="M87.3787 63.6328V56.717C87.3787 54.1708 85.3143 52.1064 82.7681 52.1064H73.5471C71.0009 52.1064 68.9365 54.1708 68.9365 56.717V65.938C68.9365 68.4842 71.0009 70.5486 73.5471 70.5486H78.1576L80.3476 65.938H73.5471V56.717H82.7681V65.8228L87.3787 63.6328Z" fill="#CA0503" stroke="white" stroke-width="2.3"/>
<path d="M36.6625 79.7695H27.4415C24.8953 79.7695 22.8309 81.8339 22.8309 84.3801V93.6011C22.8309 96.1473 24.8953 98.2117 27.4415 98.2117H36.6625C39.2087 98.2117 41.2731 96.1473 41.2731 93.6011V84.3801C41.2731 81.8339 39.2087 79.7695 36.6625 79.7695ZM27.4415 93.6011V84.3801H36.6625V93.6011H27.4415Z" fill="#CA0503" stroke="white" stroke-width="2.3"/>
<path d="M59.7153 79.7695H50.4942C47.9481 79.7695 45.8837 81.8339 45.8837 84.3801V93.6011C45.8837 96.1473 47.9481 98.2117 50.4942 98.2117H59.7153C62.2614 98.2117 64.3258 96.1473 64.3258 93.6011V84.3801C64.3258 81.8339 62.2614 79.7695 59.7153 79.7695ZM50.4942 93.6011V84.3801H59.7153V93.6011H50.4942Z" fill="#CA0503" stroke="white" stroke-width="2.3"/>
<path d="M110.431 61.2123V56.717C110.431 54.1708 108.367 52.1064 105.821 52.1064H96.5997C94.0535 52.1064 91.9891 54.1708 91.9891 56.717V61.2123H96.5997V56.717H105.821V61.2123H110.431Z" fill="#CA0503" stroke="white" stroke-width="2.3"/>
</svg>