<svg width="150" height="150" viewBox="0 0 150 150" fill="none" xmlns="http://www.w3.org/2000/svg">
<path d="M137.998 47.169C137.988 46.5596 137.664 45.9785 137.148 45.6521L98.4274 21.1337C98.2377 21.0135 98.0275 20.9293 97.8073 20.8851L58.6124 13.0385C56.6702 12.6488 55.6009 15.3217 57.2735 16.3808L74.8142 27.4876L60.6929 31.6785L48.7306 24.1039C48.1241 23.7198 47.349 23.7257 46.7482 24.1188L32.2448 33.6124C30.3276 34.8673 32.246 37.9886 34.2504 36.6766L47.7677 27.8287L83.0896 50.1948L53.5352 69.5397L18.2134 47.1736L26.1677 41.9671C28.0849 40.7122 26.1665 37.5909 24.1621 38.9029L13.8284 45.667C13.3201 45.9993 13 46.5923 13 47.199V111.653C13 112.28 13.3213 112.864 13.8516 113.2L52.5724 137.718C53.0108 137.996 53.5763 138.075 54.0728 137.927L121.192 118.008C123.389 117.356 122.447 113.815 120.15 114.497L55.3826 133.718V73.0839L134.337 49.6524V110.286L129.337 111.77C127.141 112.422 128.082 115.962 130.379 115.281L136.689 113.408C137.467 113.178 138 112.463 138 111.653V47.199C138 47.189 137.998 47.179 137.998 47.169ZM96.7553 24.4095L126.851 43.4663L97.6662 37.6233L67.5708 18.5665L96.7553 24.4095ZM87.4514 48.6223L64.8003 34.2796L78.9216 30.0887L95.9941 40.8992C96.1838 41.0193 96.394 41.1036 96.6142 41.1477L128.568 47.5449L65.0066 66.4079L87.4746 51.7014C87.9956 51.3604 88.3076 50.7781 88.3029 50.1555C88.2983 49.533 87.9775 48.9553 87.4514 48.6223ZM16.6621 50.5256L51.7208 72.725V132.844L16.6621 110.645V50.5256Z" fill="#CA0503" stroke="white" stroke-width="1.35"/>
<path d="M126.928 84.665C126.465 84.3193 125.865 84.2129 125.311 84.3779L63.3638 102.812C62.5874 103.043 62.0549 103.757 62.0549 104.567V122.434C62.0549 123.012 62.3279 123.556 62.7913 123.902C63.1113 124.141 63.4961 124.265 63.886 124.265C64.0608 124.265 64.2366 124.24 64.4082 124.189L126.355 105.755C127.132 105.524 127.664 104.81 127.664 104V86.1328C127.664 85.5547 127.391 85.0105 126.928 84.665ZM124.002 102.635L65.717 119.979V105.932L124.002 88.5881V102.635Z" fill="#074C7D" stroke="white" stroke-width="1.3"/>
<path d="M84.2097 111.958C85.2209 111.958 86.0408 111.138 86.0408 110.127V104.939C86.0408 102.647 82.3787 102.543 82.3787 104.939V110.127C82.3787 111.139 83.1985 111.958 84.2097 111.958Z" fill="#074C7D" stroke="white" stroke-width="1.3"/>
<path d="M108.509 104.51C109.52 104.51 110.34 103.69 110.34 102.679V97.4903C110.34 95.199 106.678 95.0945 106.678 97.4903V102.679C106.678 103.69 107.498 104.51 108.509 104.51Z" fill="#074C7D" stroke="white" stroke-width="1.3"/>
<path d="M113.913 103.045C114.925 103.045 115.745 102.226 115.745 101.214V96.0254C115.745 93.7342 112.082 93.6297 112.082 96.0254V101.214C112.082 102.226 112.902 103.045 113.913 103.045Z" fill="#074C7D" stroke="white" stroke-width="1.3"/>
<path d="M119.318 101.581C120.329 101.581 121.149 100.761 121.149 99.7495V94.5606C121.149 92.2693 117.486 92.1648 117.486 94.5606V99.7495C117.486 100.761 118.306 101.581 119.318 101.581Z" fill="#074C7D" stroke="white" stroke-width="1.3"/>
<path d="M70.4539 116.051C71.4651 116.051 72.2849 115.231 72.2849 114.22V109.031C72.2849 106.74 68.6228 106.636 68.6228 109.031V114.22C68.6228 115.231 69.4426 116.051 70.4539 116.051Z" fill="#074C7D" stroke="white" stroke-width="1.3"/>
<path d="M75.7462 114.749C76.7574 114.749 77.5773 113.929 77.5773 112.918V107.73C77.5773 105.438 73.9152 105.334 73.9152 107.73V112.918C73.9152 113.929 74.735 114.749 75.7462 114.749Z" fill="#074C7D" stroke="white" stroke-width="1.3"/>
<path d="M93.7711 109.002C94.7823 109.002 95.6022 108.182 95.6022 107.171V101.982C95.6022 99.6912 91.9401 99.5867 91.9401 101.982V107.171C91.9401 108.182 92.7599 109.002 93.7711 109.002Z" fill="#074C7D" stroke="white" stroke-width="1.3"/>
<path d="M98.9476 107.676C99.9589 107.676 100.779 106.856 100.779 105.845V100.656C100.779 98.365 97.1166 98.2605 97.1166 100.656V105.845C97.1166 106.856 97.9364 107.676 98.9476 107.676Z" fill="#074C7D" stroke="white" stroke-width="1.3"/>
</svg>