<svg width="150" height="152" viewBox="0 0 150 152" fill="none" xmlns="http://www.w3.org/2000/svg">
<path d="M64.2968 55.9231C65.6869 56.5657 67.1473 56.8699 68.5859 56.8699C72.4814 56.8699 76.2153 54.6395 77.9487 50.8615C80.3221 45.6877 78.0602 39.54 72.906 37.1576C70.4097 36.0037 67.6145 35.8944 65.0357 36.8503C62.4572 37.8064 60.4038 39.713 59.2541 42.2194C58.1041 44.7256 57.9955 47.5311 58.948 50.1197C59.9005 52.7083 61.8001 54.7687 64.2968 55.9231ZM63.0986 43.9961C63.7754 42.5205 64.9844 41.3978 66.5023 40.8348C67.1865 40.5811 67.8964 40.4547 68.6048 40.4547C69.4679 40.4547 70.3284 40.6425 71.1359 41.0158C74.1703 42.4186 75.502 46.0377 74.1046 49.084C72.7071 52.1303 69.1011 53.4673 66.067 52.064C64.597 51.3846 63.4786 50.171 62.918 48.6473C62.3574 47.1236 62.4214 45.4716 63.0986 43.9961Z" fill="#074C7D" stroke="white" stroke-width="2.2"/>
<path fill-rule="evenodd" clip-rule="evenodd" d="M131.545 32.9109C132.282 32.7619 133.044 33.0174 133.544 33.5818C134.044 34.1463 134.208 34.9348 133.974 35.6519L131.505 43.2392C130.346 46.8037 127.608 49.6361 124.161 50.9579C124.126 52.1967 123.916 53.4253 123.526 54.6255L121.698 60.236C119.954 65.5984 115.006 69.202 109.386 69.202C108.015 69.202 106.66 68.9842 105.357 68.5552C99.5629 66.6548 96.0076 61.0157 96.4698 55.1659C94.5379 58.9706 91.9688 63.3497 88.8759 68.1085C92.7046 65.2506 98.1002 65.096 102.127 68.0862C104.946 70.1834 106.629 73.5383 106.629 77.0609C106.629 79.46 105.874 81.7532 104.446 83.6933L91.4832 101.269L104.312 109.054C107.337 110.889 108.756 114.548 107.762 117.952L99.2215 148.451C99.0686 148.997 98.7043 149.459 98.21 149.734C97.8934 149.91 97.5399 150 97.1844 150C96.9849 150 96.7846 149.972 96.5899 149.914L85.6818 146.709C84.5705 146.382 83.9269 145.219 84.2384 144.099L90.0615 123.16L77.7769 115.545L58.2634 145.1C57.8498 145.643 57.2209 145.934 56.5815 145.934C56.2043 145.934 55.8234 145.833 55.4806 145.622L45.7806 139.681C44.8104 139.087 44.4811 137.829 45.0347 136.833L61.3844 107.407L50.1395 102.039L45.2921 109.558C44.6516 110.551 43.5899 111.103 42.4859 111.103C42.0108 111.103 41.5283 111.001 41.0676 110.788C39.5358 110.08 38.7727 108.388 39.2529 106.766L41.7947 98.1794L34.5699 94.8398C33.7582 94.4645 33.2687 93.6174 33.3474 92.7233C34.7939 76.2978 42.5671 46.1974 47.8903 30.6915C47.9149 30.6007 47.9458 30.5105 47.9832 30.4216C47.9883 30.4066 47.9935 30.3916 47.9987 30.3766C48.0657 30.1826 48.136 30.0302 48.2123 29.9128L48.3509 29.6061C50.2935 25.3726 53.3206 21.5195 57.3199 18.1393C57.382 18.0722 57.4486 18.0084 57.5199 17.949C69.6957 7.81244 86.8931 5.21848 88.2764 5.02391C88.291 5.02191 88.3042 5.02003 88.3152 5.01846C88.3275 5.01669 88.3371 5.01531 88.3433 5.01457C88.3625 5.0119 88.3817 5.01119 88.4009 5.01049C88.4143 5.00999 88.4277 5.0095 88.4412 5.00833C89.2196 4.93923 89.9766 5.30344 90.4037 5.96702C90.8117 6.60113 100.403 21.6866 100.649 37.887C100.65 37.9796 100.645 38.0716 100.635 38.1626C100.644 39.3195 100.603 40.4543 100.515 41.5674L101.401 38.8477C103.248 33.1729 109.351 30.0635 115.008 31.9177L123.025 34.549C123.126 34.5824 123.236 34.589 123.341 34.5677L131.545 32.9109ZM51.7572 32.3234C46.6917 47.211 39.2478 75.8151 37.7014 91.6103L43.0127 94.0652L45.6882 85.0267C45.717 84.9298 45.7525 84.835 45.7946 84.7432C46.5276 83.1456 47.8364 81.9303 49.4802 81.3208C51.1234 80.7113 52.9051 80.7807 54.4969 81.5165C56.0885 82.2523 57.2991 83.5661 57.9063 85.2162C58.5135 86.8659 58.4444 88.6544 57.7113 90.252C57.669 90.3438 57.6205 90.4327 57.5658 90.5174L52.4621 98.4349L63.4504 103.688L66.977 97.3411C66.9832 97.33 66.9886 97.319 66.9945 97.3079L67.6505 96.1272C67.6539 96.1213 67.6592 96.1145 67.6623 96.1083C67.7075 96.023 67.7583 95.9412 67.8141 95.8633C67.8206 95.8542 67.8251 95.844 67.8316 95.8349L71.2297 91.2287L71.2382 91.2185L78.1047 81.9096L59.5759 79.8325C59.3697 79.8118 59.1674 79.7806 58.9679 79.7416C58.9541 79.739 58.9402 79.737 58.9264 79.7342C58.7425 79.6968 58.5625 79.6504 58.385 79.598C58.3718 79.5941 58.3584 79.5905 58.3451 79.5868C58.3263 79.5817 58.3076 79.5766 58.2891 79.5708C58.1302 79.5212 57.975 79.464 57.8221 79.4031C57.7626 79.3796 57.7031 79.3558 57.6444 79.3303C57.5194 79.2762 57.3969 79.2176 57.2765 79.1559C57.1932 79.1134 57.1108 79.0692 57.0293 79.023C56.9334 78.9684 56.8389 78.9117 56.746 78.8526C56.6543 78.7942 56.5646 78.7336 56.4757 78.6707C56.3928 78.6118 56.3113 78.5512 56.2314 78.4886C56.1476 78.4229 56.0655 78.3555 55.9848 78.2859C55.9007 78.2131 55.8186 78.1383 55.7382 78.0615C55.6705 77.9964 55.6036 77.9301 55.5382 77.8619C55.4499 77.7698 55.3644 77.6752 55.2817 77.5781C55.2686 77.5627 55.2549 77.5481 55.2412 77.5336C55.2252 77.5164 55.2091 77.4993 55.194 77.4809C54.2355 76.3116 53.7212 74.8782 53.7111 73.3848C53.7111 73.376 53.7105 73.3675 53.7105 73.3588C53.7102 73.2766 53.7127 73.1939 53.7156 73.1112C53.7164 73.0824 53.7161 73.0535 53.7175 73.0243C53.72 72.971 53.7243 72.9177 53.7286 72.8643C53.7298 72.8493 53.731 72.8343 53.7322 72.8192C53.7353 72.7779 53.737 72.7365 53.741 72.6949C54.0886 69.1069 57.2776 66.4704 60.8537 66.8208C60.8636 66.8216 60.8735 66.8227 60.8836 66.8239L82.9975 69.3031C87.8599 62.1279 91.6364 55.704 93.9435 50.6733C95.6132 47.0337 96.3301 43.1542 96.4111 39.2767L59.2272 22.0873C56.3409 24.6694 53.8679 27.7363 52.1991 31.3733L51.8622 32.1193C51.8305 32.19 51.7954 32.2581 51.7572 32.3234ZM74.1873 113.32L70.5605 111.072C68.7881 109.973 67.4634 108.422 66.6464 106.657L64.2631 110.946L49.7221 137.118L56.0596 141L74.1873 113.32ZM87.5566 9.45197C83.6823 10.1665 72.2344 12.7115 62.9729 19.1419L96.2088 34.5054C96.1557 33.986 96.0937 33.4683 96.0228 32.9531L96.0226 32.9517C96.0117 32.8709 96.0008 32.7901 95.9893 32.7095C95.9602 32.5053 95.9297 32.3014 95.8979 32.0981C95.8892 32.0434 95.8804 31.9888 95.8715 31.9342C95.8667 31.9048 95.8619 31.8754 95.8572 31.846C95.7525 31.1989 95.6349 30.5568 95.5062 29.9202C95.4854 29.8168 95.4645 29.7134 95.443 29.6103C95.4052 29.4299 95.3669 29.2498 95.3276 29.0705C95.302 28.9538 95.2757 28.8372 95.2492 28.7208C95.1891 28.4559 95.1276 28.1926 95.0641 27.9303C95.0553 27.8937 95.0464 27.8571 95.0376 27.8205C95.0079 27.6977 94.9783 27.575 94.9476 27.4528C94.9195 27.3402 94.8904 27.2282 94.8613 27.1162C94.8527 27.0831 94.8442 27.05 94.8356 27.0169C94.7961 26.8643 94.756 26.7119 94.7154 26.5601C94.6796 26.4267 94.6437 26.2933 94.6071 26.1608C94.5532 25.9645 94.4979 25.7694 94.4423 25.5748C94.4336 25.5443 94.425 25.5136 94.4163 25.4829C94.4009 25.428 94.3854 25.373 94.3695 25.3185C94.2888 25.0415 94.2064 24.7668 94.1229 24.4938C94.1008 24.4217 94.0785 24.3499 94.0561 24.2781L94.0445 24.2406C93.977 24.0239 93.909 23.8084 93.8402 23.5943C93.8296 23.5616 93.819 23.5288 93.8085 23.496C93.7965 23.4584 93.7844 23.4209 93.7722 23.3836C93.5823 22.8004 93.3871 22.2272 93.1873 21.6659L93.1628 21.5971C91.1483 15.9523 88.7306 11.4792 87.5566 9.45197ZM60.0321 75.6092L61.8153 75.8091L62.4306 71.272L61.1709 71.1307L60.4302 71.0477C60.3566 71.0409 60.2835 71.0384 60.211 71.0387C60.1729 71.0389 60.1357 71.0421 60.0982 71.044C60.0873 71.0447 60.0764 71.0452 60.0655 71.0457C60.041 71.0468 60.0166 71.0479 59.9923 71.0503C59.9534 71.0541 59.9154 71.0602 59.8773 71.0664L59.8648 71.0684C59.836 71.0729 59.8073 71.0766 59.779 71.0823C59.7342 71.0911 59.6902 71.1027 59.6462 71.1143C59.6213 71.1208 59.5965 71.1265 59.5722 71.1338C59.5271 71.1474 59.4828 71.163 59.4388 71.1794C59.4315 71.1822 59.4242 71.1848 59.4168 71.1875C59.4021 71.1928 59.3873 71.1982 59.3728 71.2041C59.3282 71.2219 59.2847 71.242 59.2416 71.2627C59.2215 71.2723 59.2015 71.2817 59.1818 71.2919C59.1389 71.3139 59.0968 71.3377 59.0554 71.3627C59.0418 71.3709 59.0282 71.3792 59.0147 71.3876C59.0097 71.3907 59.0047 71.3938 58.9998 71.3969C58.9591 71.423 58.9196 71.4505 58.8807 71.4788C58.8629 71.4918 58.8452 71.5051 58.8277 71.5187C58.7901 71.5479 58.7535 71.5782 58.7179 71.6096C58.7055 71.6204 58.6934 71.6317 58.6813 71.6429C58.6766 71.6473 58.6719 71.6517 58.6671 71.6561C58.633 71.6881 58.5997 71.7206 58.5675 71.7546C58.5536 71.7694 58.54 71.7847 58.5264 71.8L58.5187 71.8087C58.4885 71.8427 58.4592 71.8773 58.431 71.9129C58.4217 71.9249 58.4126 71.9371 58.4036 71.9495C58.397 71.9585 58.3904 71.9676 58.3839 71.9767C58.3579 72.0121 58.3322 72.0475 58.3085 72.0843C58.297 72.1022 58.2861 72.1207 58.2752 72.1392C58.2715 72.1456 58.2677 72.1519 58.264 72.1582L58.2639 72.1583C58.2425 72.1942 58.2211 72.2302 58.2016 72.2675C58.1908 72.2882 58.181 72.3093 58.1713 72.3306C58.1678 72.3381 58.1643 72.3457 58.1607 72.3533L58.1556 72.3642C58.1403 72.3966 58.125 72.429 58.1113 72.4624C58.1017 72.486 58.0933 72.5103 58.0849 72.5347C58.0817 72.5439 58.0785 72.5532 58.0752 72.5624C58.0719 72.5716 58.0686 72.5808 58.0653 72.59C58.056 72.6157 58.0467 72.6414 58.0388 72.6677C58.0294 72.6999 58.0216 72.7327 58.0139 72.7656C58.0121 72.773 58.0104 72.7804 58.0086 72.7878C58.001 72.8195 57.9917 72.8507 57.9855 72.883C57.9739 72.9416 57.966 73.0019 57.959 73.0622C57.9582 73.069 57.9571 73.0756 57.9561 73.0822C57.9548 73.09 57.9535 73.0979 57.9528 73.1059C57.9516 73.1186 57.9512 73.1313 57.9508 73.1439C57.9505 73.1534 57.9503 73.1628 57.9496 73.1724L57.9484 73.1908C57.9451 73.2396 57.9418 73.2883 57.942 73.3367C57.9422 73.3476 57.9429 73.3585 57.9436 73.3694C57.9443 73.3788 57.9449 73.3882 57.9451 73.3976C57.9468 73.4545 57.9485 73.5111 57.9544 73.5672C57.9553 73.5757 57.9573 73.5842 57.9581 73.5927C58.0698 74.5559 58.7862 75.36 59.7466 75.5653C59.7556 75.5673 59.7641 75.5701 59.7728 75.5718C59.8479 75.5871 59.9243 75.5984 60.0022 75.6061C60.0121 75.6069 60.0223 75.608 60.0321 75.6092ZM103.694 116.781C104.155 115.203 103.505 113.53 102.122 112.69L80.7029 99.6923L73.484 95.3124L71.3254 98.2386L70.6832 99.3938C69.1236 102.22 70.0439 105.76 72.7843 107.459L93.6393 120.386C94.4414 120.883 94.8189 121.853 94.5656 122.764L88.8762 143.222L95.726 145.235L103.694 116.781ZM102.397 77.0621C102.397 74.8465 101.381 72.8195 99.6083 71.5014C97.7704 70.1366 95.4712 69.8313 93.4398 70.4734L94.7904 70.6249C96.5155 70.7977 98.0715 71.6323 99.1732 72.9767C100.278 74.3251 100.794 76.0249 100.626 77.763C100.458 79.5008 99.6249 81.0693 98.2814 82.1786C97.1049 83.1503 95.6594 83.6683 94.1556 83.6683C93.9426 83.6683 93.7285 83.6579 93.5135 83.6369C93.5033 83.636 93.4935 83.6349 93.4836 83.6338L82.9688 82.455L76.0148 91.8827L83.1056 96.1858L87.8458 99.0619L101.044 81.1678C101.929 79.9656 102.397 78.5453 102.397 77.0621ZM94.3644 74.8516C94.3543 74.8507 94.3444 74.8496 94.3345 74.8485L87.7649 74.1118C87.7611 74.1113 87.7573 74.1109 87.7536 74.1105C87.7498 74.1102 87.7461 74.1098 87.7423 74.1093L66.6385 71.7433L66.0225 76.2807L93.9356 79.4099C94.5374 79.4646 95.1256 79.2839 95.5926 78.8979C96.0632 78.5096 96.3546 77.9604 96.4136 77.3518C96.5352 76.0955 95.616 74.9737 94.3644 74.8516ZM117.675 58.9171L119.504 53.3055C119.668 52.8002 119.786 52.2885 119.856 51.7727C119.645 51.7744 119.433 51.7682 119.222 51.7586C119.208 51.7579 119.193 51.757 119.179 51.7562C119.165 51.7553 119.15 51.7545 119.135 51.7537C118.624 51.7268 118.114 51.6671 117.609 51.5756C117.597 51.5735 117.585 51.5714 117.574 51.5694C117.556 51.5663 117.538 51.5632 117.519 51.5597C117.278 51.5141 117.038 51.4612 116.799 51.4011C116.774 51.395 116.748 51.3882 116.723 51.3815C116.708 51.3774 116.693 51.3734 116.678 51.3694C116.436 51.3057 116.195 51.2372 115.956 51.159L112.076 49.8845C111.993 49.8568 111.908 49.8341 111.824 49.8154C111.797 49.8095 111.77 49.8066 111.743 49.8015C111.684 49.7905 111.625 49.7789 111.566 49.7721C111.556 49.771 111.546 49.7704 111.535 49.7699C111.527 49.7694 111.518 49.7689 111.51 49.7681C111.442 49.7616 111.374 49.7559 111.307 49.7551C111.3 49.7551 111.293 49.7557 111.286 49.7557C110.358 49.75 109.482 50.247 109.013 51.0655L109.008 51.0732C108.972 51.1372 108.939 51.204 108.908 51.272C108.905 51.2782 108.902 51.2842 108.899 51.2902C108.896 51.2963 108.893 51.3023 108.89 51.3085C108.855 51.3884 108.823 51.4708 108.796 51.5558L108.68 51.9058C108.647 52.0055 108.606 52.0995 108.56 52.191C108.555 52.2003 108.551 52.2097 108.546 52.2191C108.541 52.2288 108.536 52.2386 108.531 52.2482C108.484 52.3352 108.433 52.4184 108.376 52.4966C108.366 52.5096 108.355 52.5218 108.346 52.5346C108.291 52.6059 108.232 52.6736 108.169 52.7368C108.165 52.7414 108.16 52.7461 108.156 52.7509C108.151 52.7563 108.145 52.7617 108.14 52.7668C108.071 52.8339 107.996 52.8954 107.919 52.952C107.904 52.9633 107.888 52.9741 107.872 52.9849C107.791 53.041 107.707 53.0931 107.62 53.1372C107.532 53.1814 107.44 53.2174 107.347 53.2491C107.331 53.2548 107.315 53.2607 107.298 53.2658C107.206 53.2947 107.112 53.3177 107.016 53.3335C107.002 53.3358 106.987 53.3372 106.972 53.3392C106.882 53.3522 106.789 53.3598 106.697 53.361C106.693 53.3611 106.689 53.3615 106.685 53.3619C106.681 53.3625 106.676 53.363 106.672 53.363L106.662 53.3621C106.566 53.3615 106.469 53.3533 106.372 53.3392C106.351 53.3361 106.33 53.3324 106.309 53.3287C106.211 53.3111 106.112 53.2893 106.014 53.257L101.63 51.818L101.091 53.4754C99.597 58.0649 102.102 63.0189 106.674 64.5185C107.553 64.8079 108.464 64.9544 109.386 64.9544C113.17 64.9544 116.501 62.5281 117.675 58.9171ZM121.529 47.3328C124.318 46.7117 126.599 44.6383 127.482 41.9214L128.825 37.7938L124.175 38.7327C123.356 38.8981 122.503 38.8477 121.709 38.5871L113.694 35.956C110.255 34.8297 106.546 36.719 105.424 40.1674L102.944 47.7808L102.952 47.7836L105.533 48.6307C105.634 48.4741 105.743 48.3237 105.857 48.1762C105.859 48.1732 105.861 48.1702 105.864 48.1672C105.866 48.1643 105.868 48.1613 105.871 48.1583C105.979 48.0187 106.092 47.8839 106.211 47.7531L106.231 47.731C106.717 47.1991 107.289 46.7442 107.932 46.3837C107.946 46.3758 107.96 46.3684 107.974 46.3608C107.997 46.3482 108.019 46.3354 108.042 46.3226C108.086 46.2975 108.131 46.2724 108.176 46.2492C109.448 45.6023 110.855 45.3752 112.237 45.5765C112.251 45.5785 112.265 45.5805 112.279 45.5828C112.454 45.6094 112.629 45.6425 112.803 45.683C112.824 45.6879 112.846 45.6938 112.867 45.6989C113.043 45.7417 113.218 45.7895 113.392 45.8465L117.272 47.1212C118.651 47.5738 120.123 47.6469 121.529 47.3328ZM50.9467 85.3059C50.4033 85.5076 49.9632 85.8953 49.6952 86.4057L45.0415 102.127L53.918 88.3576C54.1301 87.8214 54.1375 87.2335 53.9369 86.6883C53.7213 86.1029 53.2919 85.6367 52.7271 85.3756C52.1622 85.1145 51.5299 85.0896 50.9467 85.3059Z" fill="#CA0503"/>
<path d="M133.544 33.5818L132.72 34.3112L132.721 34.3114L133.544 33.5818ZM131.545 32.9109L131.763 33.9891L131.763 33.9891L131.545 32.9109ZM133.974 35.6519L132.928 35.3108L132.928 35.3115L133.974 35.6519ZM131.505 43.2392L130.459 42.8988L130.459 42.899L131.505 43.2392ZM124.161 50.9579L123.767 49.9308L123.082 50.1935L123.061 50.9269L124.161 50.9579ZM123.526 54.6255L124.572 54.9663L124.572 54.9656L123.526 54.6255ZM121.698 60.236L120.652 59.8953L120.652 59.8959L121.698 60.236ZM105.357 68.5552L105.701 67.5104L105.7 67.5099L105.357 68.5552ZM96.4698 55.1659L97.5663 55.2525L95.4889 54.6679L96.4698 55.1659ZM88.8759 68.1085L87.9536 67.5091L89.5339 68.99L88.8759 68.1085ZM102.127 68.0862L102.783 67.2035L102.783 67.203L102.127 68.0862ZM104.446 83.6933L105.331 84.3462L105.332 84.3455L104.446 83.6933ZM91.4832 101.269L90.5979 100.616L89.8834 101.585L90.9125 102.209L91.4832 101.269ZM104.312 109.054L103.741 109.994L103.741 109.994L104.312 109.054ZM107.762 117.952L106.706 117.644L106.703 117.655L107.762 117.952ZM99.2215 148.451L100.281 148.747L100.281 148.747L99.2215 148.451ZM98.21 149.734L97.6752 148.773L97.6751 148.773L98.21 149.734ZM96.5899 149.914L96.2798 150.97H96.2798L96.5899 149.914ZM85.6818 146.709L85.992 145.653L85.9919 145.653L85.6818 146.709ZM84.2384 144.099L85.2981 144.394L85.2982 144.394L84.2384 144.099ZM90.0615 123.16L91.1213 123.455L91.3423 122.66L90.641 122.225L90.0615 123.16ZM77.7769 115.545L78.3565 114.61L77.4479 114.047L76.8589 114.939L77.7769 115.545ZM58.2634 145.1L59.1384 145.767L59.1609 145.737L59.1814 145.706L58.2634 145.1ZM55.4806 145.622L56.0555 144.685L56.0552 144.684L55.4806 145.622ZM45.7806 139.681L46.3552 138.743L46.3551 138.743L45.7806 139.681ZM45.0347 136.833L44.0731 136.299L44.0731 136.299L45.0347 136.833ZM61.3844 107.407L62.346 107.941L62.9143 106.918L61.8583 106.414L61.3844 107.407ZM50.1395 102.039L50.6134 101.046L49.7397 100.629L49.215 101.442L50.1395 102.039ZM45.2921 109.558L44.3676 108.962L44.3675 108.962L45.2921 109.558ZM41.0676 110.788L41.5292 109.79L41.5291 109.79L41.0676 110.788ZM39.2529 106.766L38.1981 106.454L38.1981 106.454L39.2529 106.766ZM41.7947 98.1794L42.8494 98.4917L43.1193 97.5799L42.2562 97.181L41.7947 98.1794ZM34.5699 94.8398L34.1083 95.8382L34.1083 95.8383L34.5699 94.8398ZM33.3474 92.7233L32.2516 92.6268L32.2516 92.6268L33.3474 92.7233ZM47.8903 30.6915L48.9306 31.0487L48.9424 31.0143L48.952 30.9792L47.8903 30.6915ZM47.9832 30.4216L48.9972 30.848L49.0112 30.8147L49.0229 30.7806L47.9832 30.4216ZM47.9987 30.3766L49.0384 30.7359L49.0384 30.7358L47.9987 30.3766ZM48.2123 29.9128L49.1346 30.5123L49.1802 30.4421L49.2147 30.3659L48.2123 29.9128ZM48.3509 29.6061L47.3512 29.1473L47.3486 29.153L48.3509 29.6061ZM57.3199 18.1393L58.03 18.9794L58.0816 18.9358L58.1275 18.8861L57.3199 18.1393ZM57.5199 17.949L56.8162 17.1036L56.8158 17.1039L57.5199 17.949ZM88.2764 5.02391L88.1272 3.93407L88.1232 3.93463L88.2764 5.02391ZM88.3152 5.01846L88.4708 6.10738L88.4709 6.10738L88.3152 5.01846ZM88.3433 5.01457L88.4769 6.10641L88.4855 6.10536L88.4941 6.10417L88.3433 5.01457ZM88.4009 5.01049L88.4413 6.10974L88.4413 6.10974L88.4009 5.01049ZM88.4412 5.00833L88.536 6.10424L88.5384 6.10403L88.4412 5.00833ZM90.4037 5.96702L91.3288 5.37184L91.3287 5.37161L90.4037 5.96702ZM100.649 37.887L101.749 37.8736L101.749 37.8703L100.649 37.887ZM100.635 38.1626L99.5419 38.0371L99.5342 38.1039L99.5347 38.1711L100.635 38.1626ZM100.515 41.5674L99.4187 41.4815L101.561 41.9081L100.515 41.5674ZM101.401 38.8477L102.447 39.1884L102.447 39.188L101.401 38.8477ZM115.008 31.9177L115.351 30.8725L115.351 30.8724L115.008 31.9177ZM123.025 34.549L123.369 33.5041L123.368 33.5039L123.025 34.549ZM123.341 34.5677L123.123 33.4895L123.121 33.4898L123.341 34.5677ZM37.7014 91.6103L36.6066 91.5031L36.5305 92.2809L37.2399 92.6088L37.7014 91.6103ZM51.7572 32.3234L50.8074 31.7685L50.7515 31.8642L50.7158 31.9691L51.7572 32.3234ZM43.0127 94.0652L42.5512 95.0637L43.7062 95.5976L44.0674 94.3774L43.0127 94.0652ZM45.6882 85.0267L44.6338 84.7134L44.6335 84.7145L45.6882 85.0267ZM45.7946 84.7432L44.7948 84.2845L44.7945 84.285L45.7946 84.7432ZM49.4802 81.3208L49.8626 82.3522L49.8627 82.3522L49.4802 81.3208ZM54.4969 81.5165L54.9585 80.5181L54.9585 80.518L54.4969 81.5165ZM57.9063 85.2162L56.874 85.596L56.874 85.5961L57.9063 85.2162ZM57.7113 90.252L58.7102 90.7127L58.7111 90.7107L57.7113 90.252ZM57.5658 90.5174L56.642 89.9202L56.6412 89.9214L57.5658 90.5174ZM52.4621 98.4349L51.5376 97.8389L50.8609 98.8886L51.9877 99.4273L52.4621 98.4349ZM63.4504 103.688L62.9759 104.681L63.9094 105.127L64.4119 104.223L63.4504 103.688ZM66.977 97.3411L66.0182 96.802L66.0155 96.8068L66.977 97.3411ZM66.9945 97.3079L66.0329 96.7737L66.029 96.7809L66.0251 96.7881L66.9945 97.3079ZM67.6505 96.1272L66.6945 95.5829L66.6889 95.593L67.6505 96.1272ZM67.6623 96.1083L66.6902 95.5935L66.684 95.6053L66.678 95.6173L67.6623 96.1083ZM67.8141 95.8633L68.708 96.5044L68.7086 96.5036L67.8141 95.8633ZM67.8316 95.8349L66.9464 95.1819L66.9418 95.1882L66.9372 95.1946L67.8316 95.8349ZM71.2297 91.2287L70.3831 90.5265L70.3631 90.5506L70.3445 90.5757L71.2297 91.2287ZM71.2382 91.2185L72.0848 91.9208L72.1048 91.8967L72.1234 91.8715L71.2382 91.2185ZM78.1047 81.9096L78.9899 82.5625L80.1212 81.0287L78.2272 80.8164L78.1047 81.9096ZM59.5759 79.8325L59.6985 78.7393L59.6856 78.738L59.5759 79.8325ZM58.9679 79.7416L59.1794 78.662L59.1673 78.6598L58.9679 79.7416ZM58.9264 79.7342L59.1471 78.6565L59.1455 78.6562L58.9264 79.7342ZM58.385 79.598L58.6965 78.543L58.6942 78.5423L58.385 79.598ZM58.3451 79.5868L58.0554 80.648L58.0559 80.6481L58.3451 79.5868ZM58.2891 79.5708L58.6183 78.5212L58.6167 78.5207L58.2891 79.5708ZM57.8221 79.4031L58.2291 78.3811L58.2261 78.38L57.8221 79.4031ZM57.6444 79.3303L58.0826 78.3214L58.0813 78.3208L57.6444 79.3303ZM57.2765 79.1559L57.7781 78.1769L57.7766 78.1761L57.2765 79.1559ZM57.0293 79.023L56.4847 79.9788L56.4873 79.9803L57.0293 79.023ZM56.746 78.8526L57.3374 77.9251L57.3365 77.9245L56.746 78.8526ZM56.4757 78.6707L55.8388 79.5676L55.8405 79.5687L56.4757 78.6707ZM56.2314 78.4886L55.5527 79.3542L55.5528 79.3543L56.2314 78.4886ZM55.9848 78.2859L55.2648 79.1175L55.266 79.1185L55.9848 78.2859ZM55.7382 78.0615L54.9756 78.8543L54.9787 78.8572L55.7382 78.0615ZM55.5382 77.8619L56.3321 77.1005L56.3319 77.1003L55.5382 77.8619ZM55.2817 77.5781L56.1195 76.8652L56.1186 76.8642L55.2817 77.5781ZM55.2412 77.5336L56.0432 76.7806L56.0431 76.7806L55.2412 77.5336ZM55.194 77.4809L54.3432 78.1782L54.3441 78.1793L55.194 77.4809ZM53.7111 73.3848H52.611L52.6111 73.3923L53.7111 73.3848ZM53.7105 73.3588H54.8105L54.8105 73.355L53.7105 73.3588ZM53.7156 73.1112L54.8149 73.1487L54.8151 73.1435L53.7156 73.1112ZM53.7175 73.0243L54.8163 73.0774L54.8164 73.0742L53.7175 73.0243ZM53.7286 72.8643L52.6322 72.7755L52.6322 72.7755L53.7286 72.8643ZM53.7322 72.8192L54.8289 72.9049L54.8291 72.9016L53.7322 72.8192ZM53.741 72.6949L52.6461 72.5888L52.6459 72.591L53.741 72.6949ZM60.8537 66.8208L60.7465 67.9156L60.7597 67.9167L60.8537 66.8208ZM60.8836 66.8239L61.0062 65.7307L61.0056 65.7307L60.8836 66.8239ZM82.9975 69.3031L82.875 70.3963L83.5354 70.4703L83.9081 69.9202L82.9975 69.3031ZM93.9435 50.6733L92.9437 50.2146L92.9436 50.2147L93.9435 50.6733ZM96.4111 39.2767L97.5108 39.2997L97.5259 38.5802L96.8726 38.2782L96.4111 39.2767ZM59.2272 22.0873L59.6888 21.0888L59.0326 20.7855L58.4938 21.2675L59.2272 22.0873ZM52.1991 31.3733L51.1993 30.9146L51.1965 30.9206L52.1991 31.3733ZM51.8622 32.1193L50.8597 31.6666L50.8587 31.6687L51.8622 32.1193ZM70.5605 111.072L69.9809 112.007L69.9809 112.007L70.5605 111.072ZM74.1873 113.32L75.1076 113.923L75.7254 112.979L74.7669 112.385L74.1873 113.32ZM66.6464 106.657L67.6445 106.195L66.7357 104.232L65.6849 106.123L66.6464 106.657ZM64.2631 110.946L63.3016 110.411L63.3015 110.411L64.2631 110.946ZM49.7221 137.118L48.7606 136.584L48.2486 137.505L49.1475 138.056L49.7221 137.118ZM56.0596 141L55.485 141.938L56.3951 142.496L56.9798 141.603L56.0596 141ZM62.9729 19.1419L62.3455 18.2383L60.7672 19.3341L62.5113 20.1404L62.9729 19.1419ZM87.5566 9.45197L88.5086 8.90072L88.1199 8.22954L87.3571 8.37021L87.5566 9.45197ZM96.2088 34.5054L95.7472 35.5039L97.4992 36.3137L97.3031 34.3937L96.2088 34.5054ZM96.0228 32.9531L97.1126 32.8033L97.1126 32.8031L96.0228 32.9531ZM96.0226 32.9517L94.9326 33.0992L94.9329 33.1017L96.0226 32.9517ZM95.9893 32.7095L94.9002 32.8645L94.9003 32.8651L95.9893 32.7095ZM95.8979 32.0981L96.9846 31.9277L96.9844 31.9268L95.8979 32.0981ZM95.8715 31.9342L94.7857 32.1105L94.7857 32.1105L95.8715 31.9342ZM95.8572 31.846L96.9432 31.6712L96.9431 31.6704L95.8572 31.846ZM95.5062 29.9202L94.428 30.1379L94.428 30.1381L95.5062 29.9202ZM95.443 29.6103L96.52 29.3863L96.5196 29.3847L95.443 29.6103ZM95.3276 29.0705L96.4022 28.8355L96.4019 28.8341L95.3276 29.0705ZM95.2492 28.7208L94.1765 28.9642L94.1767 28.9651L95.2492 28.7208ZM95.0641 27.9303L96.1333 27.6715L96.1332 27.6712L95.0641 27.9303ZM95.0376 27.8205L93.9683 28.0789L93.9683 28.0789L95.0376 27.8205ZM94.9476 27.4528L93.8803 27.7191L93.8806 27.7204L94.9476 27.4528ZM94.8613 27.1162L95.926 26.8398L95.926 26.8397L94.8613 27.1162ZM94.8356 27.0169L93.7707 27.2925L93.7707 27.2925L94.8356 27.0169ZM94.7154 26.5601L95.778 26.2757L95.7777 26.2747L94.7154 26.5601ZM94.6071 26.1608L93.5463 26.452L93.5469 26.4542L94.6071 26.1608ZM94.4423 25.5748L93.3843 25.876L93.3846 25.8769L94.4423 25.5748ZM94.4163 25.4829L93.3574 25.7806L93.3574 25.7807L94.4163 25.4829ZM94.3695 25.3185L93.3134 25.6262L93.3136 25.627L94.3695 25.3185ZM94.1229 24.4938L95.1748 24.172L95.1746 24.1714L94.1229 24.4938ZM94.0561 24.2781L93.0057 24.6047L93.0058 24.6049L94.0561 24.2781ZM94.0445 24.2406L95.0949 23.914L95.0948 23.9137L94.0445 24.2406ZM93.8402 23.5943L94.8874 23.2576L94.8862 23.2539L93.8402 23.5943ZM93.8085 23.496L92.7611 23.8321L92.7612 23.8322L93.8085 23.496ZM93.7722 23.3836L92.7263 23.7242L92.7266 23.7252L93.7722 23.3836ZM93.1873 21.6659L94.2237 21.2971L94.2234 21.2964L93.1873 21.6659ZM93.1628 21.5971L94.1989 21.2276L94.1988 21.2273L93.1628 21.5971ZM61.8153 75.8091L61.6927 76.9023L62.7608 77.0221L62.9053 75.957L61.8153 75.8091ZM60.0321 75.6092L59.9063 76.702L59.9095 76.7023L60.0321 75.6092ZM62.4306 71.272L63.5206 71.4199L63.6719 70.3044L62.5532 70.1789L62.4306 71.272ZM61.1709 71.1307L61.2935 70.0376L61.2933 70.0376L61.1709 71.1307ZM60.4302 71.0477L60.5527 69.9546L60.542 69.9534L60.5313 69.9524L60.4302 71.0477ZM60.211 71.0387L60.2067 69.9387L60.2026 69.9387L60.211 71.0387ZM60.0982 71.044L60.0403 69.9456L60.0365 69.9458L60.0982 71.044ZM60.0655 71.0457L60.1162 72.1445H60.1163L60.0655 71.0457ZM59.9923 71.0503L59.8857 69.9555L59.8847 69.9556L59.9923 71.0503ZM59.8773 71.0664L59.7021 69.9804L59.702 69.9804L59.8773 71.0664ZM59.8648 71.0684L60.0359 72.155L60.0401 72.1544L59.8648 71.0684ZM59.779 71.0823L59.9904 72.1618L59.9954 72.1608L59.779 71.0823ZM59.6462 71.1143L59.9254 72.1783L59.9268 72.1779L59.6462 71.1143ZM59.5722 71.1338L59.8895 72.1871L59.8916 72.1864L59.5722 71.1338ZM59.4388 71.1794L59.8232 72.2101L59.8234 72.21L59.4388 71.1794ZM59.4168 71.1875L59.7919 72.2215L59.7922 72.2214L59.4168 71.1875ZM59.3728 71.2041L59.7814 72.2253L59.785 72.2239L59.3728 71.2041ZM59.2416 71.2627L58.7664 70.2706L58.7651 70.2713L59.2416 71.2627ZM59.1818 71.2919L59.6856 72.2697L59.6862 72.2694L59.1818 71.2919ZM59.0554 71.3627L58.4887 70.4198L58.4835 70.423L59.0554 71.3627ZM59.0147 71.3876L59.5947 72.3223L59.5953 72.3218L59.0147 71.3876ZM58.9998 71.3969L58.4117 70.4673L58.406 70.471L58.9998 71.3969ZM58.8807 71.4788L58.2337 70.5892L58.2306 70.5914L58.8807 71.4788ZM58.8277 71.5187L58.1527 70.6502L58.1525 70.6503L58.8277 71.5187ZM58.7179 71.6096L59.4409 72.4387L59.4467 72.4336L58.7179 71.6096ZM58.6813 71.6429L59.4297 72.4491L59.4299 72.4489L58.6813 71.6429ZM58.6671 71.6561L57.9222 70.8467L57.9148 70.8536L58.6671 71.6561ZM58.5675 71.7546L59.366 72.5113L59.3664 72.5108L58.5675 71.7546ZM58.5264 71.8L59.3497 72.5296L59.3503 72.5289L58.5264 71.8ZM58.5187 71.8087L59.3411 72.5393L59.342 72.5383L58.5187 71.8087ZM58.431 71.9129L57.5681 71.2307L57.5628 71.2375L58.431 71.9129ZM58.4036 71.9495L57.5153 71.3006L57.5153 71.3007L58.4036 71.9495ZM58.3839 71.9767L59.271 72.6271L59.2762 72.6199L58.3839 71.9767ZM58.3085 72.0843L59.2331 72.6802L59.2334 72.6798L58.3085 72.0843ZM58.2752 72.1392L57.3274 71.581L57.3273 71.5811L58.2752 72.1392ZM58.264 72.1582L59.1704 72.7814L59.1906 72.752L59.2089 72.7213L58.264 72.1582ZM58.2639 72.1583L57.3574 71.5351L57.3372 71.5645L57.319 71.5951L58.2639 72.1583ZM58.2016 72.2675L59.1763 72.7775L59.1772 72.7756L58.2016 72.2675ZM58.1713 72.3306L57.1724 71.8699L57.1723 71.87L58.1713 72.3306ZM58.1607 72.3533L59.1557 72.8223L59.1567 72.8201L58.1607 72.3533ZM58.1556 72.3642L57.1606 71.8952L57.1606 71.8952L58.1556 72.3642ZM58.1113 72.4624L57.0938 72.0446L57.0925 72.0476L58.1113 72.4624ZM58.0849 72.5347L59.1244 72.8945L59.1244 72.8943L58.0849 72.5347ZM58.0752 72.5624L57.0385 72.1946L57.038 72.1959L58.0752 72.5624ZM58.0653 72.59L59.0998 72.964L59.0998 72.9638L58.0653 72.59ZM58.0388 72.6677L56.9853 72.3512L56.9834 72.3576L58.0388 72.6677ZM58.0139 72.7656L56.9432 72.5134L56.9432 72.5134L58.0139 72.7656ZM58.0086 72.7878L59.0782 73.0447L59.0786 73.0431L58.0086 72.7878ZM57.9855 72.883L59.0647 73.0959L59.0657 73.0906L57.9855 72.883ZM57.959 73.0622L56.8664 72.9345L56.8662 72.9366L57.959 73.0622ZM57.9561 73.0822L59.042 73.2575L59.042 73.2574L57.9561 73.0822ZM57.9528 73.1059L56.8577 73.0008L56.857 73.0091L57.9528 73.1059ZM57.9508 73.1439L56.8514 73.1097L56.8514 73.1098L57.9508 73.1439ZM57.9496 73.1724L59.0472 73.2465L59.0475 73.2417L57.9496 73.1724ZM57.9484 73.1908L59.0459 73.2653L59.0459 73.2648L57.9484 73.1908ZM57.942 73.3367L56.842 73.3424L56.8421 73.352L57.942 73.3367ZM57.9436 73.3694L59.0412 73.2967L59.0412 73.2967L57.9436 73.3694ZM57.9451 73.3976L56.8456 73.4281L56.8456 73.4302L57.9451 73.3976ZM57.9544 73.5672L59.049 73.4581L59.0484 73.4516L57.9544 73.5672ZM57.9581 73.5927L56.8635 73.7015L56.8644 73.7105L56.8654 73.7194L57.9581 73.5927ZM59.7466 75.5653L59.9826 74.4909L59.9766 74.4896L59.7466 75.5653ZM59.7728 75.5718L59.9924 74.4939L59.9829 74.492L59.7728 75.5718ZM60.0022 75.6061L59.8947 76.7009L59.9074 76.702L60.0022 75.6061ZM102.122 112.69L101.551 113.631L101.551 113.631L102.122 112.69ZM103.694 116.781L102.638 116.473L102.635 116.484L103.694 116.781ZM80.7029 99.6923L81.2736 98.7519L81.2735 98.7519L80.7029 99.6923ZM73.484 95.3124L74.0546 94.372L73.1954 93.8507L72.5988 94.6594L73.484 95.3124ZM71.3254 98.2386L70.4402 97.5856L70.3982 97.6424L70.3639 97.7042L71.3254 98.2386ZM70.6832 99.3938L69.7218 98.8594L69.7201 98.8624L70.6832 99.3938ZM72.7843 107.459L72.2047 108.394L72.2048 108.394L72.7843 107.459ZM93.6393 120.386L93.0598 121.321L93.0599 121.321L93.6393 120.386ZM94.5656 122.764L95.6254 123.059L95.6254 123.059L94.5656 122.764ZM88.8762 143.222L87.8164 142.927L87.526 143.972L88.5661 144.277L88.8762 143.222ZM95.726 145.235L95.4159 146.291L96.4848 146.605L96.7853 145.532L95.726 145.235ZM99.6083 71.5014L100.265 70.6188L100.264 70.6183L99.6083 71.5014ZM93.4398 70.4734L93.1083 69.4245L93.3172 71.5665L93.4398 70.4734ZM94.7904 70.6249L94.6678 71.7181L94.6808 71.7194L94.7904 70.6249ZM99.1732 72.9767L98.3224 73.6739L98.3225 73.674L99.1732 72.9767ZM100.626 77.763L101.721 77.8691V77.8691L100.626 77.763ZM98.2814 82.1786L97.581 81.3304L97.5809 81.3305L98.2814 82.1786ZM93.5135 83.6369L93.6202 82.5421L93.6129 82.5414L93.6057 82.5408L93.5135 83.6369ZM93.4836 83.6338L93.6086 82.5409L93.6061 82.5406L93.4836 83.6338ZM82.9688 82.455L83.0913 81.3619L82.4604 81.2912L82.0835 81.8021L82.9688 82.455ZM76.0148 91.8827L75.1296 91.2297L74.415 92.1985L75.4441 92.8231L76.0148 91.8827ZM83.1056 96.1858L82.5349 97.1262L82.535 97.1263L83.1056 96.1858ZM87.8458 99.0619L87.2752 100.002L88.1345 100.524L88.7311 99.7148L87.8458 99.0619ZM101.044 81.1678L101.929 81.8208L101.929 81.8201L101.044 81.1678ZM94.3345 74.8485L94.4595 73.7556L94.4571 73.7553L94.3345 74.8485ZM94.3644 74.8516L94.4712 73.7568L94.4635 73.756L94.4558 73.7554L94.3644 74.8516ZM87.7649 74.1118L87.6035 75.1999L87.6228 75.2028L87.6423 75.205L87.7649 74.1118ZM87.7536 74.1105L87.8586 73.0156L87.8564 73.0154L87.7536 74.1105ZM87.7423 74.1093L87.9058 73.0215L87.8854 73.0184L87.8648 73.0161L87.7423 74.1093ZM66.6385 71.7433L66.761 70.6501L65.693 70.5304L65.5485 71.5953L66.6385 71.7433ZM66.0225 76.2807L64.9325 76.1327L64.7811 77.2484L65.9 77.3738L66.0225 76.2807ZM93.9356 79.4099L93.813 80.5031L93.8245 80.5044L93.8361 80.5054L93.9356 79.4099ZM95.5926 78.8979L94.8925 78.0494L94.8917 78.0501L95.5926 78.8979ZM96.4136 77.3518L97.5085 77.4579L97.5085 77.4578L96.4136 77.3518ZM119.504 53.3055L120.55 53.6463L120.55 53.6455L119.504 53.3055ZM117.675 58.9171L116.63 58.5763L116.629 58.5769L117.675 58.9171ZM119.856 51.7727L120.946 51.9218L121.118 50.6625L119.848 50.6728L119.856 51.7727ZM119.222 51.7586L119.168 52.8572L119.172 52.8574L119.222 51.7586ZM119.179 51.7562L119.115 52.8543L119.115 52.8543L119.179 51.7562ZM119.135 51.7537L119.077 52.8522L119.082 52.8524L119.135 51.7537ZM117.609 51.5756L117.805 50.4932L117.804 50.493L117.609 51.5756ZM117.574 51.5694L117.761 50.4856L117.761 50.4855L117.574 51.5694ZM117.519 51.5597L117.724 50.479L117.723 50.4788L117.519 51.5597ZM116.799 51.4011L117.067 50.3343L117.061 50.3329L116.799 51.4011ZM116.723 51.3815L117.008 50.3189L117.008 50.3188L116.723 51.3815ZM116.678 51.3694L116.398 52.4332L116.401 52.4341L116.678 51.3694ZM115.956 51.159L115.613 52.2041L115.614 52.2042L115.956 51.159ZM112.076 49.8845L111.73 50.9287L111.733 50.9296L112.076 49.8845ZM111.824 49.8154L111.585 50.8893L111.586 50.8895L111.824 49.8154ZM111.743 49.8015L111.949 48.7209L111.945 48.7203L111.743 49.8015ZM111.566 49.7721L111.693 48.6793L111.681 48.6781L111.566 49.7721ZM111.535 49.7699L111.474 50.8682L111.474 50.8682L111.535 49.7699ZM111.51 49.7681L111.404 50.8631L111.411 50.8637L111.51 49.7681ZM111.307 49.7551L111.321 48.6551H111.307V49.7551ZM111.286 49.7557L111.279 50.8557H111.286V49.7557ZM109.013 51.0655L109.945 51.6495L109.957 51.6309L109.968 51.6119L109.013 51.0655ZM109.008 51.0732L108.076 50.4892L108.064 50.5091L108.052 50.5294L109.008 51.0732ZM108.908 51.272L107.908 50.8152L107.906 50.8185L108.908 51.272ZM108.899 51.2902L109.877 51.7947L109.877 51.7943L108.899 51.2902ZM108.89 51.3085L107.888 50.8552L107.884 50.8642L108.89 51.3085ZM108.796 51.5558L109.84 51.9001L109.842 51.8962L108.796 51.5558ZM108.68 51.9058L109.724 52.2516L109.725 52.2502L108.68 51.9058ZM108.56 52.191L109.542 52.687L109.544 52.6827L108.56 52.191ZM108.546 52.2191L109.529 52.7126L109.529 52.712L108.546 52.2191ZM108.531 52.2482L107.561 51.7288L107.561 51.7291L108.531 52.2482ZM108.376 52.4966L109.261 53.1486L109.263 53.1468L108.376 52.4966ZM108.346 52.5346L107.476 51.8609L107.473 51.8652L108.346 52.5346ZM108.169 52.7368L107.39 51.9605L107.384 51.9659L107.379 51.9714L108.169 52.7368ZM108.156 52.7509L107.354 51.9977L107.354 51.9981L108.156 52.7509ZM108.14 52.7668L108.903 53.5591L108.909 53.554L108.14 52.7668ZM107.919 52.952L107.27 52.0635L107.262 52.0692L107.919 52.952ZM107.872 52.9849L107.253 52.0758L107.246 52.0806L107.872 52.9849ZM107.347 53.2491L106.992 52.2079L106.987 52.2096L107.347 53.2491ZM107.298 53.2658L106.976 52.2141L106.969 52.2161L107.298 53.2658ZM107.016 53.3335L107.19 54.4196L107.195 54.4188L107.016 53.3335ZM106.972 53.3392L106.822 52.2495L106.816 52.2503L106.972 53.3392ZM106.697 53.361L106.683 52.2611L106.671 52.2612L106.658 52.2616L106.697 53.361ZM106.685 53.3619L106.562 52.2689L106.562 52.2689L106.685 53.3619ZM106.672 53.363L106.578 54.4589L106.625 54.463H106.672V53.363ZM106.662 53.3621L106.756 52.2661L106.712 52.2624L106.669 52.2621L106.662 53.3621ZM106.372 53.3392L106.21 54.4271L106.213 54.4277L106.372 53.3392ZM106.309 53.3287L106.116 54.4116L106.118 54.412L106.309 53.3287ZM106.014 53.257L106.359 52.2124L106.357 52.2119L106.014 53.257ZM101.63 51.818L101.973 50.7729L100.925 50.429L100.584 51.4776L101.63 51.818ZM101.091 53.4754L100.045 53.1349L100.045 53.135L101.091 53.4754ZM106.674 64.5185L107.019 63.4737L107.017 63.4733L106.674 64.5185ZM127.482 41.9214L126.436 41.5811L126.436 41.5812L127.482 41.9214ZM121.529 47.3328L121.29 46.2591L121.289 46.2592L121.529 47.3328ZM128.825 37.7938L129.871 38.1341L130.454 36.3428L128.607 36.7156L128.825 37.7938ZM124.175 38.7327L123.957 37.6544L123.957 37.6544L124.175 38.7327ZM121.709 38.5871L121.366 39.6322L121.366 39.6323L121.709 38.5871ZM113.694 35.956L114.037 34.9109L114.036 34.9107L113.694 35.956ZM105.424 40.1674L106.47 40.5081L106.47 40.5077L105.424 40.1674ZM102.944 47.7808L101.898 47.4401L101.564 48.4665L102.584 48.8201L102.944 47.7808ZM102.952 47.7836L102.592 48.823L102.601 48.8259L102.609 48.8288L102.952 47.7836ZM105.533 48.6307L105.19 49.6759L105.998 49.9411L106.458 49.2258L105.533 48.6307ZM105.857 48.1762L106.73 48.8455L106.733 48.8415L105.857 48.1762ZM105.864 48.1672L106.72 48.8573L106.721 48.8568L105.864 48.1672ZM105.871 48.1583L105.001 47.485L104.995 47.4931L105.871 48.1583ZM106.211 47.7531L105.396 47.014L105.396 47.0146L106.211 47.7531ZM106.231 47.731L105.419 46.9886L105.416 46.9919L106.231 47.731ZM107.932 46.3837L108.47 47.3433L108.479 47.338L107.932 46.3837ZM107.974 46.3608L107.443 45.397L107.441 45.3983L107.974 46.3608ZM108.042 46.3226L108.583 47.2801L108.583 47.2801L108.042 46.3226ZM108.176 46.2492L108.675 47.2299L108.675 47.2296L108.176 46.2492ZM112.237 45.5765L112.078 46.6651L112.083 46.6658L112.237 45.5765ZM112.279 45.5828L112.104 46.6689L112.113 46.6703L112.279 45.5828ZM112.803 45.683L112.554 46.7545L112.562 46.7563L112.803 45.683ZM112.867 45.6989L113.127 44.6301L113.122 44.6287L112.867 45.6989ZM113.392 45.8465L113.735 44.8014L113.734 44.8011L113.392 45.8465ZM117.272 47.1212L116.929 48.1663L116.929 48.1663L117.272 47.1212ZM49.6952 86.4057L48.7213 85.8942L48.6711 85.9898L48.6404 86.0934L49.6952 86.4057ZM50.9467 85.3059L50.5641 84.2746L50.564 84.2747L50.9467 85.3059ZM45.0415 102.127L43.9868 101.815L45.9661 102.723L45.0415 102.127ZM53.918 88.3576L54.8425 88.9536L54.901 88.8628L54.9408 88.7623L53.918 88.3576ZM53.9369 86.6883L54.9692 86.3085L54.9691 86.3082L53.9369 86.6883ZM52.7271 85.3756L52.2655 86.3741H52.2655L52.7271 85.3756ZM134.367 32.8525C133.608 31.9951 132.45 31.6059 131.327 31.8327L131.763 33.9891C132.115 33.918 132.48 34.0397 132.72 34.3112L134.367 32.8525ZM135.02 35.993C135.374 34.9051 135.126 33.7091 134.367 32.8523L132.721 34.3114C132.962 34.5835 133.041 34.9645 132.928 35.3108L135.02 35.993ZM132.551 43.5795L135.02 35.9922L132.928 35.3115L130.459 42.8988L132.551 43.5795ZM124.555 51.985C128.307 50.5462 131.288 47.4644 132.551 43.5793L130.459 42.899C129.404 46.143 126.909 48.726 123.767 49.9308L124.555 51.985ZM124.572 54.9656C124.995 53.6647 125.222 52.3321 125.26 50.989L123.061 50.9269C123.029 52.0613 122.837 53.1858 122.48 54.2855L124.572 54.9656ZM122.744 60.5768L124.572 54.9663L122.48 54.2848L120.652 59.8953L122.744 60.5768ZM109.386 70.302C115.485 70.302 120.854 66.3896 122.744 60.5762L120.652 59.8959C119.055 64.8072 114.527 68.102 109.386 68.102V70.302ZM105.013 69.5999C106.426 70.0655 107.898 70.302 109.386 70.302V68.102C108.132 68.102 106.893 67.9029 105.701 67.5104L105.013 69.5999ZM95.3732 55.0793C94.8723 61.4194 98.7229 67.537 105.014 69.6004L105.7 67.5099C100.403 65.7726 97.1429 60.612 97.5663 55.2525L95.3732 55.0793ZM89.7983 68.708C92.9059 63.9263 95.4964 59.5126 97.4506 55.6639L95.4889 54.6679C93.5795 58.4286 91.0316 62.7731 87.9536 67.5091L89.7983 68.708ZM102.783 67.203C98.3538 63.9141 92.4239 64.0875 88.2179 67.227L89.5339 68.99C92.9853 66.4138 97.8467 66.2778 101.471 68.9693L102.783 67.203ZM107.729 77.0609C107.729 73.1916 105.883 69.5089 102.783 67.2035L101.47 68.9688C104.01 70.8578 105.529 73.885 105.529 77.0609H107.729ZM105.332 84.3455C106.899 82.2173 107.729 79.6958 107.729 77.0609H105.529C105.529 79.2243 104.85 81.2891 103.56 83.041L105.332 84.3455ZM92.3685 101.922L105.331 84.3462L103.561 83.0403L90.5979 100.616L92.3685 101.922ZM104.883 108.114L92.0539 100.328L90.9125 102.209L103.741 109.994L104.883 108.114ZM108.818 118.26C109.951 114.38 108.334 110.208 104.882 108.114L103.741 109.994C106.339 111.571 107.56 114.717 106.706 117.644L108.818 118.26ZM100.281 148.747L108.821 118.249L106.703 117.655L98.1622 148.154L100.281 148.747ZM98.7448 150.695C99.4962 150.277 100.049 149.575 100.281 148.747L98.1622 148.154C98.0883 148.418 97.9124 148.641 97.6752 148.773L98.7448 150.695ZM97.1844 151.1C97.7254 151.1 98.2633 150.963 98.7449 150.695L97.6751 148.773C97.5236 148.857 97.3544 148.9 97.1844 148.9V151.1ZM96.2798 150.97C96.5761 151.057 96.8809 151.1 97.1844 151.1V148.9C97.089 148.9 96.9931 148.886 96.9001 148.859L96.2798 150.97ZM85.3717 147.764L96.2798 150.97L96.9001 148.859L85.992 145.653L85.3717 147.764ZM83.1786 143.804C82.7069 145.5 83.6803 147.267 85.3717 147.764L85.9919 145.653C85.4606 145.497 85.1469 144.938 85.2981 144.394L83.1786 143.804ZM89.0017 122.865L83.1786 143.805L85.2982 144.394L91.1213 123.455L89.0017 122.865ZM77.1974 116.48L89.4819 124.095L90.641 122.225L78.3565 114.61L77.1974 116.48ZM59.1814 145.706L78.6949 116.151L76.8589 114.939L57.3454 144.494L59.1814 145.706ZM56.5815 147.034C57.5525 147.034 58.5097 146.592 59.1384 145.767L57.3884 144.433C57.1898 144.694 56.8893 144.834 56.5815 144.834V147.034ZM54.9057 146.56C55.4261 146.879 56.0069 147.034 56.5815 147.034V144.834C56.4018 144.834 56.2207 144.786 56.0555 144.685L54.9057 146.56ZM45.2061 140.619L54.9061 146.56L56.0552 144.684L46.3552 138.743L45.2061 140.619ZM44.0731 136.299C43.2342 137.809 43.7317 139.716 45.2062 140.619L46.3551 138.743C45.889 138.457 45.728 137.85 45.9962 137.367L44.0731 136.299ZM60.4229 106.872L44.0731 136.299L45.9962 137.367L62.346 107.941L60.4229 106.872ZM49.6656 103.031L60.9105 108.399L61.8583 106.414L50.6134 101.046L49.6656 103.031ZM46.2166 110.154L51.0641 102.635L49.215 101.442L44.3676 108.962L46.2166 110.154ZM42.4859 112.203C43.9601 112.203 45.3717 111.465 46.2167 110.153L44.3675 108.962C43.9315 109.638 43.2198 110.003 42.4859 110.003V112.203ZM40.606 111.787C41.2123 112.067 41.8523 112.203 42.4859 112.203V110.003C42.1693 110.003 41.8444 109.936 41.5292 109.79L40.606 111.787ZM38.1981 106.454C37.5636 108.598 38.5765 110.849 40.6061 111.787L41.5291 109.79C40.4952 109.312 39.9817 108.179 40.3076 107.078L38.1981 106.454ZM40.7399 97.8672L38.1981 106.454L40.3076 107.078L42.8494 98.4917L40.7399 97.8672ZM34.1083 95.8383L41.3331 99.1779L42.2562 97.181L35.0314 93.8413L34.1083 95.8383ZM32.2516 92.6268C32.1324 93.9812 32.8736 95.2674 34.1083 95.8382L35.0315 93.8413C34.6427 93.6616 34.4049 93.2537 34.4431 92.8198L32.2516 92.6268ZM46.8499 30.3343C41.5129 45.8803 33.7092 76.0755 32.2516 92.6268L34.4431 92.8198C35.8786 76.52 43.6212 46.5145 48.9306 31.0487L46.8499 30.3343ZM46.9692 29.9952C46.9127 30.1294 46.8659 30.2659 46.8285 30.4038L48.952 30.9792C48.9638 30.9355 48.9788 30.8917 48.9972 30.848L46.9692 29.9952ZM46.959 30.0173C46.9538 30.0324 46.9486 30.0475 46.9434 30.0626L49.0229 30.7806C49.0281 30.7657 49.0332 30.7508 49.0384 30.7359L46.959 30.0173ZM47.29 29.3134C47.1483 29.5313 47.0432 29.7736 46.959 30.0174L49.0384 30.7358C49.0882 30.5916 49.1237 30.529 49.1346 30.5123L47.29 29.3134ZM47.3486 29.153L47.2099 29.4598L49.2147 30.3659L49.3533 30.0591L47.3486 29.153ZM56.6099 17.2992C52.5045 20.7689 49.37 24.7476 47.3512 29.1473L49.3507 30.0648C51.217 25.9976 54.1367 22.27 58.03 18.9794L56.6099 17.2992ZM56.8158 17.1039C56.706 17.1954 56.605 17.2922 56.5123 17.3925L58.1275 18.8861C58.159 18.8521 58.1912 18.8215 58.2241 18.7941L56.8158 17.1039ZM88.1232 3.93463C86.7227 4.13162 69.2486 6.75336 56.8162 17.1036L58.2237 18.7944C70.1428 8.87152 87.0635 6.30534 88.4296 6.11319L88.1232 3.93463ZM88.1595 3.92953C88.1483 3.93113 88.1382 3.93257 88.1272 3.93408L88.4256 6.11375C88.4439 6.11124 88.46 6.10893 88.4708 6.10738L88.1595 3.92953ZM88.2096 3.92272C88.1895 3.92517 88.1658 3.92862 88.1595 3.92953L88.4709 6.10738C88.4776 6.10642 88.4811 6.10592 88.4837 6.10556C88.4848 6.1054 88.4848 6.1054 88.4841 6.1055C88.4835 6.10558 88.4809 6.10593 88.4769 6.10641L88.2096 3.92272ZM88.3604 3.91123C88.35 3.91162 88.2756 3.91344 88.1924 3.92496L88.4941 6.10417C88.4683 6.10775 88.4489 6.10914 88.4405 6.10966C88.4362 6.10993 88.4336 6.11004 88.4339 6.11002C88.4346 6.10999 88.4359 6.10994 88.4413 6.10974L88.3604 3.91123ZM88.3463 3.91243C88.3572 3.91149 88.3648 3.9111 88.3668 3.911C88.3679 3.91094 88.3682 3.91094 88.367 3.91098C88.3657 3.91104 88.364 3.9111 88.3604 3.91123L88.4413 6.10974C88.4503 6.10941 88.4909 6.10814 88.536 6.10424L88.3463 3.91243ZM91.3287 5.37161C90.678 4.36081 89.5254 3.80775 88.3439 3.91264L88.5384 6.10403C88.9137 6.07071 89.2752 6.24608 89.4788 6.56242L91.3287 5.37161ZM101.749 37.8703C101.498 21.3332 91.7445 6.01797 91.3288 5.37184L89.4787 6.56219C89.8789 7.1843 99.308 22.0399 99.5489 37.9037L101.749 37.8703ZM101.728 38.288C101.743 38.1515 101.75 38.0131 101.749 37.8736L99.5489 37.9004C99.5495 37.9461 99.5471 37.9918 99.5419 38.0371L101.728 38.288ZM101.612 41.6533C101.702 40.509 101.744 39.3427 101.735 38.154L99.5347 38.1711C99.5435 39.2963 99.5035 40.3996 99.4187 41.4815L101.612 41.6533ZM100.355 38.507L99.4695 41.2267L101.561 41.9081L102.447 39.1884L100.355 38.507ZM115.351 30.8724C109.113 28.8278 102.389 32.2566 100.355 38.5073L102.447 39.188C104.106 34.0892 109.59 31.2991 114.666 32.963L115.351 30.8724ZM123.368 33.5039L115.351 30.8725L114.665 32.9628L122.682 35.5942L123.368 33.5039ZM123.121 33.4898C123.205 33.4727 123.289 33.4781 123.369 33.5041L122.681 35.5939C122.963 35.6868 123.267 35.7052 123.56 35.6456L123.121 33.4898ZM131.327 31.8327L123.123 33.4895L123.558 35.646L131.763 33.9891L131.327 31.8327ZM38.7961 91.7175C40.3308 76.0416 47.7459 47.5276 52.7985 32.6778L50.7158 31.9691C45.6375 46.8943 38.1647 75.5886 36.6066 91.5031L38.7961 91.7175ZM43.4742 93.0667L38.1629 90.6118L37.2399 92.6088L42.5512 95.0637L43.4742 93.0667ZM44.6335 84.7145L41.9579 93.753L44.0674 94.3774L46.743 85.3389L44.6335 84.7145ZM44.7945 84.285C44.7308 84.4242 44.6771 84.5676 44.6338 84.7134L46.7427 85.34C46.7569 85.2921 46.7743 85.2457 46.7946 85.2013L44.7945 84.285ZM49.0978 80.2894C47.1796 81.0006 45.6491 82.4224 44.7948 84.2845L46.7944 85.2019C47.406 83.8688 48.4932 82.8599 49.8626 82.3522L49.0978 80.2894ZM54.9585 80.518C53.101 79.6594 51.0155 79.5781 49.0976 80.2895L49.8627 82.3522C51.2313 81.8445 52.7092 81.902 54.0354 82.515L54.9585 80.518ZM58.9386 84.8363C58.2311 82.9135 56.8157 81.3766 54.9585 80.5181L54.0353 82.515C55.3613 83.128 56.3672 84.2188 56.874 85.596L58.9386 84.8363ZM58.7111 90.7107C59.5654 88.8487 59.6462 86.7587 58.9386 84.8362L56.874 85.5961C57.3808 86.9731 57.3233 88.46 56.7116 89.7933L58.7111 90.7107ZM58.4896 91.1145C58.5739 90.984 58.6472 90.8492 58.7102 90.7127L56.7125 89.7913C56.6908 89.8383 56.6671 89.8814 56.642 89.9202L58.4896 91.1145ZM53.3867 99.0309L58.4903 91.1133L56.6412 89.9214L51.5376 97.8389L53.3867 99.0309ZM63.9248 102.696L52.9366 97.4425L51.9877 99.4273L62.9759 104.681L63.9248 102.696ZM66.0155 96.8068L62.4888 103.154L64.4119 104.223L67.9386 97.8753L66.0155 96.8068ZM66.0251 96.7881C66.0203 96.7971 66.0163 96.8047 66.0137 96.8097C66.0124 96.8122 66.0112 96.8145 66.0105 96.816C66.0095 96.8178 66.0092 96.8184 66.0088 96.8192C66.0081 96.8205 66.0089 96.8191 66.0103 96.8164C66.0118 96.8136 66.0145 96.8085 66.0182 96.802L67.9359 97.8801C67.9488 97.8571 67.959 97.8374 67.9629 97.8298C67.964 97.8278 67.9651 97.8257 67.9656 97.8247C67.9662 97.8235 67.9665 97.823 67.9666 97.8227C67.9669 97.8222 67.9658 97.8243 67.9639 97.8278L66.0251 96.7881ZM66.6889 95.593L66.0329 96.7737L67.9561 97.8422L68.6121 96.6614L66.6889 95.593ZM66.678 95.6173C66.6879 95.5975 66.697 95.5807 66.7045 95.5675C66.7121 95.5542 66.7188 95.543 66.724 95.5347C66.7292 95.5263 66.7335 95.5195 66.7364 95.5151C66.7392 95.5107 66.7414 95.5075 66.742 95.5066C66.7423 95.5062 66.7425 95.5059 66.7422 95.5062C66.7421 95.5064 66.7415 95.5074 66.7408 95.5083C66.7395 95.5103 66.7365 95.5148 66.7328 95.5204C66.7291 95.5261 66.7238 95.5343 66.7176 95.5443C66.7114 95.5543 66.7034 95.5674 66.6946 95.583L68.6064 96.6714C68.5912 96.6982 68.5783 96.718 68.5739 96.7248C68.5712 96.7288 68.5693 96.7318 68.569 96.7321C68.5689 96.7323 68.5688 96.7325 68.5692 96.7319C68.5695 96.7314 68.5702 96.7303 68.5711 96.729C68.5738 96.725 68.5837 96.7102 68.5953 96.6914C68.6069 96.6727 68.6261 96.6405 68.6467 96.5992L66.678 95.6173ZM66.9203 95.2222C66.8357 95.34 66.7588 95.4641 66.6902 95.5935L68.6345 96.623C68.6562 96.5819 68.6808 96.5423 68.708 96.5044L66.9203 95.2222ZM66.9372 95.1946C66.9143 95.2266 66.8971 95.2541 66.8863 95.2719C66.8808 95.281 66.8763 95.2886 66.8734 95.2937C66.8706 95.2985 66.8682 95.3027 66.8678 95.3034C66.8668 95.3051 66.8678 95.3033 66.8692 95.3009C66.8708 95.2982 66.8738 95.293 66.8779 95.2863C66.8858 95.2732 66.9 95.2504 66.9197 95.2229L68.7086 96.5036C68.7315 96.4716 68.7487 96.4441 68.7595 96.4263C68.765 96.4172 68.7694 96.4096 68.7724 96.4045C68.7752 96.3997 68.7776 96.3955 68.778 96.3948C68.779 96.3931 68.7779 96.3949 68.7765 96.3973C68.775 96.4 68.7719 96.4052 68.7679 96.4119C68.7599 96.425 68.7457 96.4478 68.726 96.4753L66.9372 95.1946ZM70.3445 90.5757L66.9464 95.1819L68.7168 96.488L72.1149 91.8818L70.3445 90.5757ZM70.3915 90.5163L70.3831 90.5265L72.0764 91.931L72.0848 91.9208L70.3915 90.5163ZM77.2194 81.2566L70.353 90.5656L72.1234 91.8715L78.9899 82.5625L77.2194 81.2566ZM59.4534 80.9256L77.9821 83.0027L78.2272 80.8164L59.6985 78.7393L59.4534 80.9256ZM58.7564 80.821C58.9853 80.8659 59.2218 80.9025 59.4662 80.927L59.6856 78.738C59.5175 78.7211 59.3494 78.6954 59.1794 78.6621L58.7564 80.821ZM58.7058 80.8118C58.7321 80.8172 58.7545 80.821 58.7635 80.8225C58.7659 80.823 58.7685 80.8234 58.7698 80.8236C58.7714 80.8239 58.7721 80.824 58.7726 80.8241C58.7737 80.8243 58.7718 80.824 58.7685 80.8233L59.1673 78.6598C59.157 78.6579 59.1483 78.6564 59.1424 78.6554C59.1395 78.6549 59.1368 78.6544 59.1349 78.6541C59.1328 78.6538 59.1318 78.6536 59.1308 78.6534C59.1288 78.6531 59.13 78.6533 59.1324 78.6537C59.135 78.6542 59.1402 78.6551 59.1471 78.6565L58.7058 80.8118ZM58.0735 80.653C58.2753 80.7125 58.4866 80.7673 58.7074 80.8122L59.1455 78.6562C58.9984 78.6263 58.8496 78.5882 58.6965 78.543L58.0735 80.653ZM58.0559 80.6481C58.0704 80.6521 58.074 80.6531 58.0758 80.6536L58.6942 78.5423C58.6695 78.5351 58.6465 78.5288 58.6344 78.5255L58.0559 80.6481ZM57.9599 80.6204C58.0014 80.6334 58.0404 80.6439 58.0554 80.648L58.6348 78.5257C58.6298 78.5243 58.6263 78.5234 58.6231 78.5224C58.6199 78.5216 58.6178 78.521 58.6164 78.5206C58.6133 78.5197 58.6145 78.52 58.6183 78.5212L57.9599 80.6204ZM57.4152 80.4251C57.5851 80.4927 57.7678 80.5605 57.9614 80.6209L58.6167 78.5207C58.4926 78.482 58.365 78.4353 58.2291 78.3811L57.4152 80.4251ZM57.2061 80.3393C57.2831 80.3727 57.3575 80.4023 57.4181 80.4262L58.2261 78.38C58.1677 78.3569 58.123 78.3389 58.0826 78.3214L57.2061 80.3393ZM56.7748 80.1348C56.9128 80.2056 57.0571 80.2748 57.2075 80.3398L58.0813 78.3208C57.9817 78.2777 57.881 78.2297 57.7781 78.1769L56.7748 80.1348ZM56.4873 79.9803C56.5835 80.0347 56.6799 80.0864 56.7763 80.1356L57.7766 78.1761C57.7066 78.1404 57.6382 78.1037 57.5713 78.0658L56.4873 79.9803ZM56.1546 79.78C56.2646 79.8502 56.3749 79.9162 56.4847 79.9788L57.5739 78.0673C57.4919 78.0206 57.4131 77.9733 57.3374 77.9251L56.1546 79.78ZM55.8405 79.5687C55.9422 79.6407 56.0469 79.7115 56.1555 79.7806L57.3365 77.9245C57.2618 77.8769 57.187 77.8265 57.111 77.7727L55.8405 79.5687ZM55.5528 79.3543C55.6474 79.4285 55.7429 79.4995 55.8388 79.5676L57.1127 77.7739C57.0427 77.7242 56.9751 77.6739 56.91 77.6229L55.5528 79.3543ZM55.266 79.1185C55.3605 79.2 55.456 79.2784 55.5527 79.3542L56.9102 77.623C56.8393 77.5674 56.7706 77.511 56.7037 77.4532L55.266 79.1185ZM54.9787 78.8572C55.0715 78.9458 55.1668 79.0326 55.2648 79.1175L56.7048 77.4542C56.6347 77.3935 56.5657 77.3307 56.4977 77.2658L54.9787 78.8572ZM54.7442 78.6232C54.8224 78.7048 54.9002 78.7817 54.9756 78.8543L56.5008 77.2688C56.4408 77.211 56.3849 77.1555 56.3321 77.1005L54.7442 78.6232ZM54.444 78.291C54.5408 78.4047 54.641 78.5156 54.7445 78.6234L56.3319 77.1003C56.2588 77.0241 56.188 76.9457 56.1195 76.8652L54.444 78.291ZM54.4393 78.2865C54.443 78.2904 54.4453 78.2928 54.4474 78.2951C54.4494 78.2972 54.4504 78.2983 54.4509 78.2989C54.4519 78.3 54.4494 78.2972 54.4448 78.2919L56.1186 76.8642C56.0857 76.8256 56.0538 76.792 56.0432 76.7806L54.4393 78.2865ZM54.3441 78.1793C54.3861 78.2304 54.4273 78.2737 54.4394 78.2865L56.0431 76.7806C56.0388 76.776 56.0364 76.7734 56.0342 76.771C56.0322 76.7689 56.0315 76.7681 56.0315 76.7681C56.0316 76.7682 56.0328 76.7696 56.0349 76.772C56.0369 76.7743 56.04 76.7779 56.0438 76.7826L54.3441 78.1793ZM52.6111 73.3923C52.6229 75.1373 53.2252 76.8141 54.3432 78.1782L56.0447 76.7837C55.2459 75.809 54.8195 74.6192 54.811 73.3773L52.6111 73.3923ZM52.6105 73.3588C52.6105 73.3725 52.6107 73.3841 52.6109 73.392C52.6111 73.3995 52.6113 73.4062 52.6114 73.4076C52.6114 73.4105 52.6114 73.4081 52.6113 73.405C52.6112 73.4014 52.611 73.3942 52.611 73.3848H54.8111C54.8111 73.3711 54.8108 73.3595 54.8106 73.3515C54.8105 73.3441 54.8102 73.3374 54.8102 73.336C54.8101 73.3331 54.8102 73.3354 54.8102 73.3386C54.8103 73.3422 54.8105 73.3494 54.8105 73.3588H52.6105ZM52.6162 73.0737C52.6134 73.1565 52.6101 73.2577 52.6105 73.3625L54.8105 73.355C54.8103 73.2956 54.8121 73.2313 54.8149 73.1487L52.6162 73.0737ZM52.6188 72.9711C52.6172 73.0053 52.6167 73.0353 52.6165 73.0518C52.6161 73.0735 52.6161 73.0752 52.616 73.079L54.8151 73.1435C54.8155 73.1293 54.8157 73.1167 54.8159 73.107C54.816 73.1022 54.816 73.0976 54.8161 73.0938C54.8161 73.0897 54.8162 73.0869 54.8162 73.0839C54.8164 73.0715 54.8165 73.0725 54.8163 73.0774L52.6188 72.9711ZM52.6322 72.7755C52.6281 72.8257 52.6221 72.8983 52.6187 72.9743L54.8164 73.0742C54.8178 73.0437 54.8204 73.0098 54.825 72.9531L52.6322 72.7755ZM52.6356 72.7336C52.6345 72.7467 52.6334 72.7602 52.6322 72.7755L54.825 72.9532C54.8262 72.9384 54.8275 72.9218 54.8289 72.9049L52.6356 72.7336ZM52.6459 72.591C52.6422 72.6299 52.6399 72.6649 52.6384 72.688C52.6367 72.716 52.6362 72.7249 52.6353 72.7369L54.8291 72.9016C54.8367 72.8002 54.8324 72.8367 54.836 72.7988L52.6459 72.591ZM60.961 65.726C56.7752 65.3159 53.0519 68.4002 52.6461 72.5888L54.8358 72.801C55.1252 69.8136 57.7799 67.6249 60.7465 67.9155L60.961 65.726ZM61.0056 65.7307C61.0019 65.7302 60.9751 65.7271 60.9477 65.7248L60.7597 67.9167C60.7543 67.9163 60.751 67.9159 60.7516 67.916C60.7519 67.916 60.7526 67.9161 60.7544 67.9163C60.7553 67.9164 60.7562 67.9165 60.7575 67.9166C60.7586 67.9168 60.7602 67.9169 60.7617 67.9171L61.0056 65.7307ZM83.1201 68.21L61.0062 65.7307L60.7611 67.917L82.875 70.3963L83.1201 68.21ZM92.9436 50.2147C90.6719 55.1683 86.9322 61.5361 82.0869 68.686L83.9081 69.9202C88.7877 62.7197 92.6009 56.2398 94.9433 51.1318L92.9436 50.2147ZM95.3113 39.2538C95.2328 43.0121 94.5387 46.7378 92.9437 50.2146L94.9433 51.132C96.6876 47.3296 97.4274 43.2964 97.5108 39.2997L95.3113 39.2538ZM58.7656 23.0858L95.9495 40.2752L96.8726 38.2782L59.6888 21.0888L58.7656 23.0858ZM53.1988 31.8321C54.7927 28.3584 57.1635 25.4094 59.9606 22.9071L58.4938 21.2675C55.5183 23.9293 52.9431 27.1142 51.1993 30.9146L53.1988 31.8321ZM52.8647 32.572L53.2016 31.8261L51.1965 30.9206L50.8597 31.6666L52.8647 32.572ZM52.7069 32.8783C52.7648 32.7792 52.8179 32.6763 52.8657 32.5699L50.8587 31.6687C50.843 31.7036 50.8259 31.7369 50.8074 31.7685L52.7069 32.8783ZM69.9809 112.007L73.6078 114.255L74.7669 112.385L71.14 110.137L69.9809 112.007ZM65.6482 107.119C66.5529 109.073 68.0204 110.791 69.9809 112.007L71.1401 110.137C69.5558 109.155 68.374 107.77 67.6445 106.195L65.6482 107.119ZM65.2246 111.48L67.6078 107.191L65.6849 106.123L63.3016 110.411L65.2246 111.48ZM50.6837 137.652L65.2247 111.48L63.3015 110.411L48.7606 136.584L50.6837 137.652ZM56.6342 140.062L50.2968 136.18L49.1475 138.056L55.485 141.938L56.6342 140.062ZM73.2671 112.717L55.1394 140.398L56.9798 141.603L75.1076 113.923L73.2671 112.717ZM63.6002 20.0454C72.6635 13.7527 83.9207 11.2411 87.7562 10.5337L87.3571 8.37021C83.4438 9.09195 71.8053 11.6703 62.3455 18.2383L63.6002 20.0454ZM96.6703 33.5069L63.4344 18.1434L62.5113 20.1404L95.7472 35.5039L96.6703 33.5069ZM94.9331 33.1029C95.0022 33.6055 95.0627 34.1105 95.1145 34.6172L97.3031 34.3937C97.2487 33.8615 97.1851 33.3311 97.1126 32.8033L94.9331 33.1029ZM94.9329 33.1017L94.9331 33.1031L97.1126 32.8031L97.1124 32.8017L94.9329 33.1017ZM94.9003 32.8651C94.9112 32.9409 94.9216 33.0177 94.9326 33.0992L97.1127 32.8042C97.1019 32.724 97.0904 32.6392 97.0782 32.554L94.9003 32.8651ZM94.8111 32.2685C94.8422 32.4666 94.8719 32.6654 94.9002 32.8645L97.0783 32.5546C97.0485 32.3453 97.0173 32.1363 96.9846 31.9277L94.8111 32.2685ZM94.7857 32.1105C94.7947 32.1656 94.8031 32.2176 94.8113 32.2694L96.9844 31.9268C96.9753 31.8691 96.9661 31.812 96.9573 31.7578L94.7857 32.1105ZM94.7712 32.0209C94.7761 32.0512 94.781 32.0813 94.7857 32.1105L96.9573 31.7578C96.9525 31.7283 96.9478 31.6997 96.9432 31.6712L94.7712 32.0209ZM94.428 30.1381C94.554 30.7616 94.6691 31.3895 94.7713 32.0217L96.9431 31.6704C96.836 31.0082 96.7158 30.3521 96.5844 29.7023L94.428 30.1381ZM94.3661 29.8343C94.3868 29.9338 94.407 30.0341 94.428 30.1379L96.5845 29.7024C96.5637 29.5995 96.5422 29.493 96.52 29.3863L94.3661 29.8343ZM94.2531 29.3056C94.2914 29.481 94.3291 29.6579 94.3664 29.836L96.5196 29.3847C96.4814 29.202 96.4423 29.0186 96.4022 28.8355L94.2531 29.3056ZM94.1767 28.9651C94.2028 29.0795 94.2284 29.1935 94.2533 29.3069L96.4019 28.8341C96.3755 28.7142 96.3487 28.5948 96.3217 28.4764L94.1767 28.9651ZM93.995 28.1891C94.0571 28.4456 94.1174 28.7038 94.1765 28.9642L96.3219 28.4773C96.2608 28.2081 96.1981 27.9395 96.1333 27.6715L93.995 28.1891ZM93.9683 28.0789C93.9772 28.1154 93.9861 28.1524 93.9951 28.1894L96.1332 27.6712C96.1244 27.635 96.1157 27.5988 96.1068 27.5622L93.9683 28.0789ZM93.8806 27.7204C93.9099 27.8372 93.9385 27.9553 93.9683 28.0789L96.1068 27.5622C96.0773 27.4401 96.0466 27.3128 96.0146 27.1852L93.8806 27.7204ZM93.7966 27.3927C93.8259 27.5055 93.8537 27.6125 93.8803 27.7191L96.0149 27.1865C95.9853 27.068 95.9549 26.9508 95.926 26.8398L93.7966 27.3927ZM93.7707 27.2925C93.7794 27.3261 93.7881 27.3597 93.7967 27.3927L95.926 26.8397C95.9174 26.8066 95.9089 26.7739 95.9005 26.7414L93.7707 27.2925ZM93.6528 26.8445C93.6926 26.9932 93.7319 27.1426 93.7707 27.2925L95.9005 26.7414C95.8603 26.586 95.8195 26.4306 95.778 26.2757L93.6528 26.8445ZM93.5469 26.4542C93.5823 26.582 93.617 26.7114 93.6531 26.8455L95.7777 26.2747C95.7421 26.142 95.7052 26.0046 95.6672 25.8674L93.5469 26.4542ZM93.3846 25.8769C93.4398 26.0703 93.4939 26.2612 93.5463 26.452L95.6678 25.8695C95.6124 25.6678 95.5559 25.4684 95.5 25.2727L93.3846 25.8769ZM93.3574 25.7807C93.366 25.8111 93.3751 25.8435 93.3843 25.876L95.5003 25.2736C95.4921 25.245 95.484 25.216 95.4753 25.1851L93.3574 25.7807ZM93.3136 25.627C93.3278 25.6753 93.3417 25.7249 93.3574 25.7806L95.4753 25.1852C95.4601 25.1311 95.4431 25.0708 95.4254 25.01L93.3136 25.627ZM93.071 24.8155C93.1534 25.0847 93.2343 25.3547 93.3134 25.6262L95.4256 25.0108C95.3433 24.7283 95.2595 24.4489 95.1748 24.172L93.071 24.8155ZM93.0058 24.6049C93.0282 24.677 93.0499 24.7466 93.0712 24.8161L95.1746 24.1714C95.1517 24.0967 95.1287 24.0229 95.1065 23.9513L93.0058 24.6049ZM92.9941 24.5672L93.0057 24.6047L95.1065 23.9515L95.0949 23.914L92.9941 24.5672ZM92.793 23.931C92.8606 24.1413 92.9276 24.3535 92.9942 24.5675L95.0948 23.9137C95.0265 23.6944 94.9575 23.4755 94.8874 23.2576L92.793 23.931ZM92.7612 23.8322C92.7716 23.8647 92.7827 23.8995 92.7942 23.9346L94.8862 23.2539C94.8764 23.2236 94.8665 23.1929 94.8559 23.1597L92.7612 23.8322ZM92.7266 23.7252C92.7378 23.7594 92.749 23.7942 92.7611 23.8321L94.8559 23.1598C94.844 23.1227 94.8311 23.0825 94.8178 23.042L92.7266 23.7252ZM92.151 22.0347C92.3474 22.5865 92.5394 23.1503 92.7263 23.7242L94.8182 23.043C94.6253 22.4506 94.4268 21.868 94.2237 21.2971L92.151 22.0347ZM92.1267 21.9665L92.1512 22.0354L94.2234 21.2964L94.1989 21.2276L92.1267 21.9665ZM86.6047 10.0032C87.7581 11.9948 90.142 16.4052 92.1268 21.9668L94.1988 21.2273C92.1546 15.4994 89.7032 10.9637 88.5086 8.90072L86.6047 10.0032ZM61.9378 74.716L60.1547 74.516L59.9095 76.7023L61.6927 76.9023L61.9378 74.716ZM61.3406 71.1242L60.7252 75.6613L62.9053 75.957L63.5206 71.4199L61.3406 71.1242ZM61.0482 72.2239L62.308 72.3652L62.5532 70.1789L61.2935 70.0376L61.0482 72.2239ZM60.3077 72.1409L61.0484 72.2239L61.2933 70.0376L60.5527 69.9546L60.3077 72.1409ZM60.2153 72.1386C60.2592 72.1385 60.2966 72.1401 60.3291 72.1431L60.5313 69.9524C60.4166 69.9418 60.3078 69.9383 60.2067 69.9387L60.2153 72.1386ZM60.156 72.1425C60.1706 72.1418 60.184 72.1409 60.1937 72.1403C60.2046 72.1397 60.2105 72.1393 60.2166 72.139C60.2282 72.1383 60.2265 72.1386 60.2194 72.1386L60.2026 69.9387C60.1574 69.939 60.1181 69.941 60.0921 69.9425C60.0485 69.945 60.0643 69.9443 60.0403 69.9456L60.156 72.1425ZM60.1163 72.1445C60.1263 72.144 60.1426 72.1433 60.1598 72.1423L60.0365 69.9458C60.032 69.946 60.0265 69.9463 60.0147 69.9468L60.1163 72.1445ZM60.099 72.1451C60.0928 72.1457 60.0901 72.1458 60.0934 72.1456C60.095 72.1455 60.0974 72.1454 60.1013 72.1452C60.1054 72.145 60.1098 72.1448 60.1162 72.1445L60.0148 69.9468C59.9952 69.9477 59.9425 69.9499 59.8857 69.9555L60.099 72.1451ZM60.0524 72.1524C60.073 72.149 60.0835 72.1474 60.0928 72.146C60.101 72.1448 60.1025 72.1448 60.1 72.145L59.8847 69.9556C59.8063 69.9633 59.7347 69.9752 59.7021 69.9804L60.0524 72.1524ZM60.0401 72.1544L60.0525 72.1524L59.702 69.9804L59.6896 69.9825L60.0401 72.1544ZM59.9954 72.1608C59.9852 72.1628 59.9803 72.1635 59.9884 72.1622C59.9927 72.1616 59.9967 72.161 60.0054 72.1597C60.0129 72.1585 60.0239 72.1569 60.0359 72.155L59.6937 69.9818C59.6761 69.9846 59.6905 69.9822 59.655 69.9876C59.6345 69.9908 59.6011 69.9961 59.5627 70.0038L59.9954 72.1608ZM59.9268 72.1779C59.9502 72.1717 59.9636 72.1682 59.9756 72.1652C59.9867 72.1625 59.9906 72.1617 59.9904 72.1618L59.5677 70.0028C59.4822 70.0195 59.4039 70.0406 59.3656 70.0507L59.9268 72.1779ZM59.8916 72.1864C59.8854 72.1883 59.8811 72.1895 59.8794 72.19C59.8779 72.1904 59.8779 72.1904 59.881 72.1896C59.885 72.1885 59.8877 72.1879 59.8964 72.1857C59.9034 72.1839 59.9138 72.1813 59.9254 72.1783L59.367 70.0503C59.3575 70.0528 59.3646 70.0509 59.337 70.0579C59.3193 70.0624 59.2885 70.0704 59.2528 70.0812L59.8916 72.1864ZM59.8234 72.21C59.8552 72.1981 59.8754 72.1913 59.8895 72.1871L59.255 70.0806C59.1788 70.1035 59.1104 70.1279 59.0542 70.1489L59.8234 72.21ZM59.7922 72.2214C59.7988 72.219 59.8106 72.2148 59.8232 72.2101L59.0544 70.1488C59.0523 70.1495 59.0495 70.1506 59.0414 70.1535L59.7922 72.2214ZM59.785 72.2239C59.7803 72.2258 59.7779 72.2267 59.7793 72.2261C59.7812 72.2254 59.784 72.2244 59.7919 72.2215L59.0417 70.1534C59.0297 70.1578 58.9964 70.1697 58.9605 70.1842L59.785 72.2239ZM59.7167 72.2548C59.7531 72.2374 59.7708 72.2296 59.7814 72.2253L58.9641 70.1828C58.8856 70.2142 58.8164 70.2467 58.7664 70.2706L59.7167 72.2548ZM59.6862 72.2694C59.6837 72.2707 59.6837 72.2706 59.6895 72.2678C59.6923 72.2664 59.6956 72.2649 59.7006 72.2625C59.705 72.2604 59.7115 72.2573 59.7181 72.2541L58.7651 70.2713C58.7601 70.2736 58.7155 70.2947 58.6773 70.3144L59.6862 72.2694ZM59.622 72.3055C59.6472 72.2903 59.6681 72.2787 59.6856 72.2697L58.678 70.314C58.6097 70.3492 58.5464 70.3852 58.4887 70.4198L59.622 72.3055ZM59.5953 72.3218C59.6037 72.3167 59.6129 72.3111 59.6272 72.3023L58.4835 70.423C58.4707 70.4308 58.4527 70.4417 58.4341 70.4533L59.5953 72.3218ZM59.5879 72.3265C59.5903 72.325 59.5926 72.3236 59.5947 72.3223L58.4348 70.4528C58.4269 70.4577 58.4192 70.4626 58.4117 70.4673L59.5879 72.3265ZM59.5278 72.3683C59.5545 72.3489 59.5757 72.3343 59.5936 72.3229L58.406 70.471C58.3426 70.5116 58.2848 70.552 58.2337 70.5892L59.5278 72.3683ZM59.5027 72.3873C59.51 72.3816 59.5192 72.3747 59.5308 72.3661L58.2306 70.5914C58.2067 70.609 58.1803 70.6287 58.1527 70.6502L59.5027 72.3873ZM59.4467 72.4336C59.4638 72.4185 59.4825 72.403 59.5029 72.3871L58.1525 70.6503C58.0978 70.6928 58.0432 70.7379 57.9892 70.7857L59.4467 72.4336ZM59.4299 72.4489C59.4367 72.4426 59.4395 72.44 59.442 72.4378C59.444 72.4359 59.4433 72.4366 59.4409 72.4387L57.9949 70.7806C57.9673 70.8047 57.9424 70.828 57.9327 70.837L59.4299 72.4489ZM59.412 72.4655C59.419 72.4591 59.4257 72.4528 59.4297 72.4491L57.9329 70.8368C57.9275 70.8418 57.9248 70.8443 57.9222 70.8467L59.412 72.4655ZM59.3664 72.5108C59.3795 72.4969 59.3964 72.4802 59.4195 72.4586L57.9148 70.8536C57.8696 70.896 57.8199 70.9444 57.7686 70.9985L59.3664 72.5108ZM59.3503 72.5289C59.3575 72.5208 59.3612 72.5166 59.3644 72.5131C59.3672 72.5099 59.3674 72.5097 59.366 72.5113L57.7691 70.998C57.74 71.0286 57.7141 71.0581 57.7026 71.0711L59.3503 72.5289ZM59.342 72.5383L59.3497 72.5296L57.7032 71.0705L57.6955 71.0792L59.342 72.5383ZM59.2938 72.5952C59.3063 72.5795 59.3216 72.5612 59.3411 72.5393L57.6964 71.0781C57.6555 71.1242 57.6121 71.1751 57.5681 71.2307L59.2938 72.5952ZM59.2918 72.5983C59.2944 72.5948 59.2962 72.5923 59.2975 72.5906C59.2988 72.5889 59.2993 72.5882 59.2992 72.5884L57.5628 71.2375C57.5442 71.2614 57.528 71.2833 57.5153 71.3006L59.2918 72.5983ZM59.2762 72.6199C59.2831 72.6103 59.2876 72.604 59.2919 72.5982L57.5153 71.3007C57.5063 71.3129 57.4978 71.3248 57.4915 71.3334L59.2762 72.6199ZM59.2334 72.6798C59.2372 72.6739 59.245 72.6625 59.2709 72.6271L57.4968 71.3262C57.4708 71.3616 57.4273 71.421 57.3836 71.4888L59.2334 72.6798ZM59.223 72.6974C59.2258 72.6926 59.2279 72.6892 59.2298 72.686C59.2316 72.6829 59.2328 72.6808 59.2338 72.6793C59.2357 72.6761 59.2352 72.677 59.2331 72.6802L57.3839 71.4883C57.3584 71.528 57.3364 71.5656 57.3274 71.581L59.223 72.6974ZM59.2089 72.7213C59.2143 72.7122 59.2194 72.7036 59.2231 72.6973L57.3273 71.5811C57.3235 71.5876 57.3211 71.5916 57.319 71.5952L59.2089 72.7213ZM59.1703 72.7815L59.1704 72.7814L57.3575 71.535L57.3574 71.5351L59.1703 72.7815ZM59.1772 72.7756C59.1775 72.7751 59.1796 72.7712 59.1849 72.7618C59.1908 72.7517 59.1974 72.7405 59.2088 72.7215L57.319 71.5951C57.3001 71.6268 57.2624 71.6895 57.226 71.7595L59.1772 72.7756ZM59.1701 72.7913C59.1727 72.7857 59.1744 72.782 59.176 72.7785C59.1776 72.7752 59.1785 72.7732 59.1791 72.772C59.1803 72.7694 59.1791 72.772 59.1763 72.7774L57.2269 71.7576C57.2013 71.8066 57.1803 71.8527 57.1724 71.8699L59.1701 72.7913ZM59.1567 72.8201C59.162 72.8089 59.1669 72.7982 59.1702 72.7911L57.1723 71.87C57.1686 71.8781 57.1665 71.8826 57.1646 71.8866L59.1567 72.8201ZM59.1506 72.8332L59.1557 72.8223L57.1657 71.8843L57.1606 71.8952L59.1506 72.8332ZM59.1289 72.8802C59.1288 72.8804 59.13 72.8774 59.1338 72.8692C59.1378 72.8603 59.1424 72.8505 59.1506 72.8332L57.1606 71.8952C57.1473 71.9234 57.1198 71.981 57.0938 72.0446L59.1289 72.8802ZM59.1244 72.8943C59.1266 72.8879 59.1281 72.8836 59.1296 72.8795C59.1309 72.8756 59.1318 72.8732 59.1323 72.8717C59.1335 72.8684 59.1326 72.871 59.1301 72.8772L57.0925 72.0476C57.0699 72.1031 57.0521 72.1555 57.0453 72.175L59.1244 72.8943ZM59.1119 72.9301C59.1168 72.9163 59.1214 72.903 59.1244 72.8945L57.0454 72.1749C57.0419 72.1848 57.0401 72.1901 57.0385 72.1946L59.1119 72.9301ZM59.0998 72.9638C59.103 72.9551 59.1076 72.9423 59.1124 72.9288L57.038 72.1959C57.0363 72.2009 57.0343 72.2065 57.0307 72.2162L59.0998 72.9638ZM59.0923 72.9843C59.0906 72.9899 59.0898 72.992 59.0911 72.9882C59.0917 72.9865 59.0926 72.9838 59.0941 72.9796C59.0957 72.9753 59.0974 72.9707 59.0998 72.964L57.0308 72.2161C57.0231 72.2373 57.0034 72.2912 56.9853 72.3512L59.0923 72.9843ZM59.0845 73.0179C59.0887 73.0003 59.0909 72.9911 59.0929 72.9831C59.0947 72.976 59.095 72.975 59.0942 72.9778L56.9834 72.3576C56.9641 72.4233 56.9498 72.4855 56.9432 72.5134L59.0845 73.0179ZM59.0786 73.0431C59.0808 73.0339 59.0829 73.025 59.0846 73.0178L56.9432 72.5134C56.9414 72.5211 56.94 72.5269 56.9387 72.5325L59.0786 73.0431ZM59.0657 73.0906C59.0639 73.1002 59.0623 73.107 59.0616 73.1099C59.061 73.1126 59.0609 73.113 59.0619 73.1088C59.0625 73.1068 59.0631 73.1044 59.0641 73.1006C59.0649 73.0973 59.0663 73.0922 59.0676 73.0872C59.0702 73.077 59.0741 73.0619 59.0782 73.0447L56.939 72.5309C56.9394 72.5296 56.9392 72.5303 56.9378 72.5359C56.9376 72.5365 56.933 72.554 56.9311 72.5615C56.9255 72.5835 56.9148 72.6254 56.9053 72.6753L59.0657 73.0906ZM59.0515 73.19C59.0578 73.1362 59.0617 73.1108 59.0647 73.0959L56.9063 72.67C56.8861 72.7724 56.8742 72.8676 56.8664 72.9345L59.0515 73.19ZM59.042 73.2574C59.0424 73.2551 59.0476 73.2237 59.0518 73.1879L56.8662 72.9366C56.8676 72.9238 56.8691 72.914 56.8698 72.9093C56.8703 72.9054 56.8708 72.9024 56.8701 72.9069L59.042 73.2574ZM59.0477 73.2109C59.0459 73.2298 59.0439 73.2443 59.0428 73.2517C59.0419 73.2581 59.0411 73.263 59.042 73.2575L56.8701 72.9068C56.8698 72.9089 56.8625 72.9517 56.8578 73.0008L59.0477 73.2109ZM59.0503 73.1781C59.0504 73.1746 59.0505 73.1734 59.0505 73.1725C59.0505 73.1719 59.0505 73.1729 59.0504 73.1749C59.0502 73.1788 59.0497 73.1888 59.0485 73.2026L56.857 73.0091C56.8527 73.0583 56.8516 73.102 56.8514 73.1097L59.0503 73.1781ZM59.0475 73.2417C59.0494 73.2117 59.0501 73.1847 59.0503 73.178L56.8514 73.1098C56.8512 73.1152 56.8512 73.1155 56.8512 73.1151C56.8512 73.1142 56.8514 73.1097 56.8518 73.1031L59.0475 73.2417ZM59.0459 73.2648L59.0472 73.2465L56.8521 73.0983L56.8509 73.1167L59.0459 73.2648ZM59.042 73.331C59.042 73.3332 59.0419 73.3303 59.0425 73.3186C59.0432 73.3059 59.0441 73.2914 59.0459 73.2653L56.8509 73.1162C56.8481 73.158 56.8416 73.2471 56.842 73.3424L59.042 73.331ZM59.0412 73.2967C59.041 73.2936 59.041 73.2927 59.0409 73.2921C59.0409 73.2916 59.041 73.2927 59.0411 73.2947C59.0413 73.2985 59.0417 73.3081 59.0419 73.3214L56.8421 73.352C56.8428 73.3965 56.8456 73.436 56.846 73.4422L59.0412 73.2967ZM59.0447 73.3671C59.0438 73.3329 59.0416 73.3024 59.0412 73.2967L56.846 73.4422C56.8462 73.4448 56.8463 73.4458 56.8463 73.4466C56.8464 73.4473 56.8463 73.4468 56.8463 73.4457C56.8462 73.4436 56.8458 73.4372 56.8456 73.4281L59.0447 73.3671ZM59.0484 73.4516C59.0475 73.4438 59.0465 73.4287 59.0446 73.3649L56.8456 73.4302C56.8471 73.4803 56.8495 73.5785 56.8605 73.6828L59.0484 73.4516ZM59.0527 73.4839C59.0502 73.4583 59.0472 73.4372 59.0452 73.4239C59.0442 73.417 59.0433 73.4113 59.0427 73.4074C59.0421 73.4038 59.0415 73.4005 59.0414 73.3998C59.0412 73.3984 59.0414 73.3995 59.0416 73.401C59.0419 73.4027 59.0425 73.4063 59.0432 73.411C59.0445 73.4201 59.0469 73.4368 59.049 73.4581L56.8599 73.6763C56.8624 73.7018 56.8653 73.7228 56.8673 73.7362C56.8684 73.743 56.8693 73.7487 56.8699 73.7525C56.8705 73.7562 56.871 73.7594 56.8711 73.7601C56.8714 73.7615 56.8712 73.7604 56.8709 73.7589C56.8706 73.7571 56.8701 73.7535 56.8694 73.7488C56.868 73.7396 56.8656 73.7229 56.8635 73.7015L59.0527 73.4839ZM59.9766 74.4896C59.4842 74.3843 59.109 73.9675 59.0508 73.466L56.8654 73.7194C57.0307 75.1443 58.0882 76.3356 59.5166 76.641L59.9766 74.4896ZM59.9829 74.492C60.0038 74.4961 60.0204 74.5 60.0305 74.5025C60.0357 74.5038 60.0397 74.5049 60.0422 74.5055C60.0446 74.5061 60.0462 74.5066 60.0459 74.5065C60.0456 74.5064 60.0456 74.5064 60.0447 74.5062C60.0441 74.506 60.0429 74.5057 60.0416 74.5053C60.039 74.5047 60.0347 74.5035 60.0296 74.5022C60.0194 74.4995 60.0029 74.4954 59.9826 74.4909L59.5106 76.6397C59.4949 76.6362 59.4828 76.6331 59.477 76.6316C59.4728 76.6306 59.4676 76.6292 59.4738 76.6308C59.4769 76.6317 59.4883 76.6347 59.5021 76.6381C59.5166 76.6417 59.5375 76.6466 59.5628 76.6516L59.9829 74.492ZM60.1097 74.5113C60.0673 74.5072 60.0284 74.5013 59.9924 74.4939L59.5533 76.6497C59.6674 76.6729 59.7814 76.6897 59.8947 76.7008L60.1097 74.5113ZM60.1579 74.5164C60.1467 74.5151 60.1235 74.5124 60.097 74.5102L59.9074 76.702C59.9053 76.7018 59.9037 76.7016 59.9027 76.7015C59.9017 76.7014 59.9012 76.7014 59.9012 76.7014C59.9012 76.7014 59.9015 76.7014 59.9024 76.7015C59.9033 76.7016 59.9045 76.7018 59.9063 76.702L60.1579 74.5164ZM101.551 113.631C102.504 114.209 102.961 115.368 102.638 116.473L104.75 117.089C105.349 115.038 104.506 112.85 102.692 111.75L101.551 113.631ZM80.1322 100.633L101.551 113.631L102.692 111.75L81.2736 98.7519L80.1322 100.633ZM72.9134 96.2528L80.1323 100.633L81.2735 98.7519L74.0546 94.372L72.9134 96.2528ZM72.2106 98.8916L74.3692 95.9654L72.5988 94.6594L70.4402 97.5856L72.2106 98.8916ZM71.6447 99.9282L72.2868 98.773L70.3639 97.7042L69.7218 98.8594L71.6447 99.9282ZM73.3639 106.524C71.1233 105.135 70.3686 102.241 71.6463 99.9253L69.7201 98.8624C67.8785 102.2 68.9645 106.385 72.2047 108.394L73.3639 106.524ZM94.2189 119.451L73.3639 106.524L72.2048 108.394L93.0598 121.321L94.2189 119.451ZM95.6254 123.059C96.0092 121.678 95.4383 120.206 94.2187 119.451L93.0599 121.321C93.4446 121.559 93.6287 122.027 93.5058 122.469L95.6254 123.059ZM89.936 143.517L95.6254 123.059L93.5058 122.469L87.8164 142.927L89.936 143.517ZM96.0362 144.18L89.1864 142.167L88.5661 144.277L95.4159 146.291L96.0362 144.18ZM102.635 116.484L94.6668 144.939L96.7853 145.532L104.754 117.078L102.635 116.484ZM98.9519 72.3841C100.444 73.4939 101.297 75.193 101.297 77.0621H103.497C103.497 74.5 102.317 72.1452 100.265 70.6188L98.9519 72.3841ZM93.7713 71.5222C95.4822 70.9815 97.4113 71.2401 98.9525 72.3846L100.264 70.6183C98.1295 69.0332 95.4603 68.6811 93.1083 69.4245L93.7713 71.5222ZM94.9131 69.5318L93.5625 69.3802L93.3172 71.5665L94.6678 71.718L94.9131 69.5318ZM100.024 72.2795C98.738 70.7102 96.9156 69.7322 94.9001 69.5304L94.6808 71.7194C96.1153 71.8631 97.4049 72.5544 98.3224 73.6739L100.024 72.2795ZM101.721 77.8691C101.917 75.8419 101.314 73.8531 100.024 72.2794L98.3225 73.674C99.2429 74.797 99.6715 76.2079 99.5311 77.6569L101.721 77.8691ZM98.9818 83.0269C100.55 81.7316 101.524 79.896 101.721 77.8691L99.5311 77.6569C99.3907 79.1057 98.6994 80.407 97.581 81.3304L98.9818 83.0269ZM94.1556 84.7683C95.9162 84.7683 97.6091 84.1606 98.9819 83.0268L97.5809 81.3305C96.6006 82.1401 95.4027 82.5683 94.1556 82.5683V84.7683ZM93.4067 84.7317C93.6567 84.7561 93.9065 84.7683 94.1556 84.7683V82.5683C93.9787 82.5683 93.8002 82.5596 93.6202 82.5421L93.4067 84.7317ZM93.3586 84.7267C93.366 84.7275 93.3921 84.7306 93.4213 84.733L93.6057 82.5408C93.6111 82.5412 93.6147 82.5416 93.6151 82.5416C93.6153 82.5417 93.615 82.5416 93.6139 82.5415C93.6126 82.5414 93.6112 82.5412 93.6086 82.5409L93.3586 84.7267ZM82.8462 83.5482L93.361 84.7269L93.6061 82.5406L83.0913 81.3619L82.8462 83.5482ZM76.9001 92.5356L83.854 83.108L82.0835 81.8021L75.1296 91.2297L76.9001 92.5356ZM83.6763 95.2455L76.5855 90.9423L75.4441 92.8231L82.5349 97.1262L83.6763 95.2455ZM88.4164 98.1214L83.6762 95.2454L82.535 97.1263L87.2752 100.002L88.4164 98.1214ZM100.158 80.5149L86.9606 98.409L88.7311 99.7148L101.929 81.8208L100.158 80.5149ZM101.297 77.0621C101.297 78.3088 100.905 79.5009 100.158 80.5155L101.929 81.8201C102.953 80.4303 103.497 78.7817 103.497 77.0621H101.297ZM94.2095 75.9413C94.2161 75.9421 94.2431 75.9453 94.273 75.9478L94.4558 73.7554C94.4618 73.7559 94.4657 73.7563 94.4662 73.7564C94.4665 73.7564 94.4662 73.7564 94.4651 73.7562C94.4637 73.7561 94.4623 73.7559 94.4595 73.7556L94.2095 75.9413ZM87.6423 75.205L94.2119 75.9416L94.4571 73.7553L87.8874 73.0187L87.6423 75.205ZM87.6485 75.2055C87.6516 75.2058 87.6463 75.2053 87.6398 75.2046C87.6324 75.2038 87.6196 75.2023 87.6035 75.1999L87.9262 73.0237C87.9063 73.0208 87.8897 73.0188 87.8786 73.0176C87.8684 73.0165 87.8593 73.0156 87.8586 73.0156L87.6485 75.2055ZM87.5788 75.1971C87.6001 75.2003 87.6178 75.2023 87.6297 75.2036C87.6406 75.2048 87.6502 75.2057 87.6508 75.2057L87.8564 73.0154C87.8533 73.0151 87.8591 73.0156 87.8663 73.0164C87.8744 73.0173 87.8883 73.0189 87.9058 73.0215L87.5788 75.1971ZM66.5159 72.8365L87.6197 75.2024L87.8648 73.0161L66.761 70.6501L66.5159 72.8365ZM67.1125 76.4286L67.7285 71.8913L65.5485 71.5953L64.9325 76.1327L67.1125 76.4286ZM94.0581 78.3168L66.1451 75.1875L65.9 77.3738L93.813 80.5031L94.0581 78.3168ZM94.8917 78.0501C94.6495 78.2503 94.3492 78.343 94.0351 78.3144L93.8361 80.5054C94.7255 80.5862 95.6018 80.3175 96.2935 79.7457L94.8917 78.0501ZM95.3187 77.2457C95.2878 77.5654 95.1376 77.8472 94.8925 78.0494L96.2926 79.7464C96.9888 79.172 97.4215 78.3555 97.5085 77.4579L95.3187 77.2457ZM94.2576 75.9464C94.9008 76.0091 95.3822 76.5897 95.3187 77.2458L97.5085 77.4578C97.6882 75.6012 96.3312 73.9382 94.4712 73.7568L94.2576 75.9464ZM118.458 52.9647L116.63 58.5763L118.721 59.2579L120.55 53.6463L118.458 52.9647ZM118.767 51.6237C118.705 52.0733 118.602 52.5212 118.458 52.9655L120.55 53.6455C120.734 53.0793 120.867 52.5036 120.946 51.9218L118.767 51.6237ZM119.172 52.8574C119.394 52.8675 119.627 52.8746 119.865 52.8727L119.848 50.6728C119.663 50.6742 119.473 50.6688 119.272 50.6597L119.172 52.8574ZM119.115 52.8543C119.128 52.8551 119.147 52.8562 119.168 52.8572L119.276 50.6599C119.268 50.6595 119.259 50.659 119.244 50.6581L119.115 52.8543ZM119.082 52.8524C119.09 52.8528 119.099 52.8534 119.115 52.8543L119.244 50.6581C119.23 50.6573 119.21 50.6561 119.189 50.655L119.082 52.8524ZM117.413 52.658C117.963 52.7576 118.519 52.8228 119.077 52.8522L119.193 50.6553C118.729 50.6308 118.265 50.5765 117.805 50.4932L117.413 52.658ZM117.386 52.6533C117.398 52.6554 117.406 52.6568 117.414 52.6582L117.804 50.493C117.788 50.4901 117.772 50.4875 117.761 50.4856L117.386 52.6533ZM117.315 52.6405C117.343 52.6458 117.369 52.6504 117.386 52.6533L117.761 50.4855C117.742 50.4822 117.732 50.4805 117.724 50.479L117.315 52.6405ZM116.531 52.468C116.79 52.5332 117.052 52.5909 117.315 52.6406L117.723 50.4788C117.504 50.4374 117.285 50.3891 117.067 50.3343L116.531 52.468ZM116.439 52.4441C116.462 52.4503 116.498 52.46 116.536 52.4694L117.061 50.3329C117.049 50.3299 117.035 50.3261 117.008 50.3189L116.439 52.4441ZM116.401 52.4341C116.412 52.4369 116.423 52.4398 116.439 52.4441L117.008 50.3188C116.993 50.315 116.974 50.3099 116.954 50.3047L116.401 52.4341ZM115.614 52.2042C115.879 52.2913 116.142 52.3659 116.398 52.4332L116.958 50.3057C116.729 50.2455 116.51 50.183 116.299 50.1137L115.614 52.2042ZM111.733 50.9296L115.613 52.2041L116.3 50.1139L112.42 48.8395L111.733 50.9296ZM111.586 50.8895C111.639 50.9011 111.686 50.9141 111.73 50.9287L112.422 48.8403C112.299 48.7995 112.178 48.7672 112.061 48.7413L111.586 50.8895ZM111.537 50.8822C111.559 50.8862 111.577 50.8892 111.589 50.8912C111.596 50.8923 111.601 50.8931 111.605 50.8938C111.611 50.8946 111.612 50.8947 111.615 50.8952C111.619 50.8959 111.618 50.8956 111.613 50.8949C111.609 50.8941 111.599 50.8923 111.585 50.8893L112.062 48.7415C112.011 48.7303 111.967 48.7236 111.952 48.7211C111.939 48.7192 111.94 48.7194 111.937 48.7188C111.936 48.7187 111.941 48.7194 111.949 48.7209L111.537 50.8822ZM111.44 50.8648C111.451 50.8661 111.464 50.8684 111.54 50.8827L111.945 48.7203C111.904 48.7126 111.799 48.6917 111.693 48.6794L111.44 50.8648ZM111.474 50.8682C111.477 50.8683 111.478 50.8684 111.479 50.8684C111.479 50.8684 111.478 50.8684 111.476 50.8683C111.473 50.868 111.464 50.8674 111.452 50.8661L111.681 48.6781C111.639 48.6737 111.602 48.6719 111.596 48.6716L111.474 50.8682ZM111.411 50.8637C111.441 50.8664 111.469 50.8678 111.474 50.8682L111.597 48.6716C111.592 48.6713 111.592 48.6713 111.593 48.6714C111.595 48.6715 111.6 48.6719 111.608 48.6726L111.411 50.8637ZM111.293 50.855C111.312 50.8552 111.341 50.857 111.404 50.8631L111.615 48.6732C111.543 48.6662 111.437 48.6567 111.321 48.6552L111.293 50.855ZM111.286 50.8557C111.302 50.8557 111.315 50.8553 111.324 50.8551C111.328 50.855 111.332 50.8548 111.334 50.8547C111.337 50.8546 111.339 50.8546 111.34 50.8545C111.341 50.8545 111.34 50.8545 111.34 50.8545C111.339 50.8546 111.337 50.8546 111.334 50.8547C111.329 50.8549 111.32 50.8551 111.307 50.8551V48.6551C111.291 48.6551 111.278 48.6554 111.269 48.6557C111.265 48.6558 111.261 48.6559 111.259 48.656C111.256 48.6561 111.254 48.6562 111.253 48.6562C111.252 48.6563 111.253 48.6563 111.253 48.6562C111.254 48.6562 111.256 48.6561 111.259 48.6561C111.264 48.6559 111.273 48.6557 111.286 48.6557V50.8557ZM109.968 51.6119C110.238 51.1401 110.745 50.8524 111.279 50.8556L111.293 48.6557C109.97 48.6476 108.725 49.354 108.058 50.5192L109.968 51.6119ZM109.941 51.6571L109.945 51.6495L108.081 50.4816L108.076 50.4892L109.941 51.6571ZM109.909 51.7288C109.932 51.6775 109.95 51.6425 109.965 51.617L108.052 50.5294C107.994 50.6319 107.946 50.7305 107.908 50.8152L109.909 51.7288ZM109.877 51.7943C109.877 51.7933 109.894 51.7618 109.91 51.7255L107.906 50.8185C107.912 50.8047 107.917 50.7943 107.92 50.7893C107.922 50.785 107.924 50.7817 107.921 50.7862L109.877 51.7943ZM109.892 51.7619C109.886 51.7756 109.881 51.786 109.878 51.7912C109.876 51.7956 109.875 51.7989 109.877 51.7947L107.922 50.7857C107.921 50.7875 107.904 50.8187 107.888 50.8552L109.892 51.7619ZM109.842 51.8962C109.858 51.8467 109.876 51.799 109.896 51.7529L107.884 50.8642C107.834 50.9778 107.789 51.0949 107.75 51.2154L109.842 51.8962ZM109.725 52.2502L109.84 51.9001L107.751 51.2114L107.636 51.5615L109.725 52.2502ZM109.544 52.6827C109.605 52.5603 109.67 52.416 109.724 52.2516L107.636 51.56C107.624 51.5951 107.606 51.6388 107.576 51.6994L109.544 52.6827ZM109.529 52.712C109.538 52.6947 109.538 52.6955 109.542 52.687L107.578 51.6951C107.573 51.7051 107.563 51.7247 107.563 51.7262L109.529 52.712ZM109.501 52.7677C109.513 52.7452 109.523 52.7253 109.529 52.7126L107.563 51.7256C107.56 51.7324 107.56 51.732 107.561 51.7288L109.501 52.7677ZM109.263 53.1468C109.354 53.0226 109.433 52.8949 109.501 52.7674L107.561 51.7291C107.536 51.7755 107.512 51.8143 107.488 51.8465L109.263 53.1468ZM109.215 53.2082C109.212 53.212 109.21 53.2143 109.211 53.2137C109.211 53.2133 109.212 53.2128 109.213 53.2113C109.214 53.2103 109.216 53.2079 109.217 53.2057C109.224 53.1974 109.242 53.1755 109.261 53.1486L107.49 51.8446C107.495 51.837 107.5 51.8314 107.502 51.8284C107.504 51.8255 107.505 51.8241 107.504 51.8257C107.503 51.8266 107.503 51.8274 107.501 51.8294C107.5 51.8311 107.498 51.8337 107.495 51.8365C107.491 51.8421 107.484 51.8507 107.476 51.8609L109.215 53.2082ZM108.948 53.5131C109.046 53.4151 109.136 53.3115 109.218 53.2039L107.473 51.8652C107.446 51.9004 107.418 51.9322 107.39 51.9605L108.948 53.5131ZM108.957 53.504C108.959 53.5023 108.961 53.5005 108.962 53.4996C108.963 53.4985 108.963 53.4981 108.963 53.4978C108.964 53.4973 108.962 53.4991 108.959 53.5021L107.379 51.9714C107.372 51.979 107.365 51.9856 107.361 51.9898C107.359 51.9919 107.358 51.9938 107.356 51.995C107.355 51.9965 107.355 51.9971 107.354 51.9977L108.957 53.504ZM108.909 53.554C108.932 53.5309 108.951 53.5106 108.958 53.5037L107.354 51.9981C107.352 51.9995 107.354 51.9979 107.356 51.9951C107.359 51.9922 107.365 51.9867 107.372 51.9796L108.909 53.554ZM108.567 53.8405C108.681 53.7574 108.794 53.6641 108.903 53.5591L107.377 51.9745C107.347 52.0037 107.311 52.0334 107.27 52.0636L108.567 53.8405ZM108.492 53.8939C108.511 53.8807 108.541 53.8598 108.575 53.8348L107.262 52.0692C107.264 52.0677 107.265 52.0674 107.263 52.0685C107.262 52.0698 107.259 52.0719 107.253 52.0758L108.492 53.8939ZM108.114 54.1197C108.26 54.0463 108.389 53.9652 108.498 53.8892L107.246 52.0806C107.194 52.1167 107.155 52.1398 107.125 52.1548L108.114 54.1197ZM107.702 54.2903C107.825 54.2484 107.967 54.1939 108.114 54.1197L107.125 52.1548C107.097 52.169 107.055 52.1864 106.992 52.2079L107.702 54.2903ZM107.62 54.3176C107.648 54.3092 107.67 54.3014 107.684 54.2967C107.722 54.2835 107.683 54.297 107.707 54.2886L106.987 52.2096C106.98 52.2122 106.973 52.2146 106.969 52.2159C106.964 52.2176 106.963 52.2182 106.961 52.2187C106.96 52.2191 106.961 52.2187 106.964 52.218C106.966 52.2172 106.97 52.2158 106.976 52.2141L107.62 54.3176ZM107.195 54.4188C107.345 54.394 107.489 54.3587 107.627 54.3156L106.969 52.2161C106.922 52.2308 106.878 52.2413 106.836 52.2482L107.195 54.4188ZM107.123 54.4289C107.119 54.4294 107.117 54.4296 107.118 54.4295C107.119 54.4294 107.119 54.4293 107.121 54.4291C107.123 54.4289 107.125 54.4286 107.128 54.4283C107.137 54.4272 107.161 54.4242 107.19 54.4196L106.841 52.2474C106.849 52.2461 106.855 52.2453 106.858 52.2449C106.861 52.2445 106.863 52.2444 106.861 52.2446C106.859 52.2447 106.858 52.2448 106.856 52.2451C106.854 52.2453 106.852 52.2457 106.848 52.2461C106.842 52.2468 106.833 52.248 106.822 52.2495L107.123 54.4289ZM106.71 54.4609C106.854 54.4591 106.994 54.4473 107.129 54.428L106.816 52.2503C106.769 52.2571 106.725 52.2606 106.683 52.2611L106.71 54.4609ZM106.809 54.455C106.812 54.4546 106.804 54.4556 106.793 54.4566C106.782 54.4577 106.761 54.4594 106.735 54.4603L106.658 52.2616C106.628 52.2627 106.604 52.2647 106.589 52.2661C106.581 52.2668 106.574 52.2675 106.57 52.268C106.566 52.2684 106.563 52.2688 106.562 52.2689L106.809 54.455ZM106.672 54.463C106.715 54.463 106.75 54.4605 106.772 54.4587C106.783 54.4577 106.792 54.4568 106.798 54.4562C106.803 54.4556 106.808 54.455 106.809 54.455L106.562 52.2689C106.557 52.2695 106.57 52.2679 106.585 52.2666C106.603 52.2651 106.633 52.263 106.672 52.263V54.463ZM106.568 54.4581L106.578 54.4589L106.766 52.267L106.756 52.2661L106.568 54.4581ZM106.213 54.4277C106.353 54.4481 106.501 54.4612 106.656 54.4621L106.669 52.2621C106.63 52.2619 106.585 52.2586 106.531 52.2507L106.213 54.4277ZM106.118 54.412C106.139 54.4157 106.173 54.4216 106.21 54.4271L106.534 52.2512C106.529 52.2505 106.521 52.2491 106.5 52.2454L106.118 54.412ZM105.669 54.3017C105.835 54.3563 105.989 54.389 106.116 54.4116L106.502 52.2458C106.432 52.2332 106.389 52.2223 106.359 52.2124L105.669 54.3017ZM101.287 52.8632L105.671 54.3022L106.357 52.2119L101.973 50.7729L101.287 52.8632ZM102.137 53.8159L102.676 52.1585L100.584 51.4776L100.045 53.1349L102.137 53.8159ZM107.017 63.4733C103.024 62.1636 100.83 57.8315 102.137 53.8158L100.045 53.135C98.3642 58.2983 101.18 63.8741 106.332 65.5637L107.017 63.4733ZM109.386 63.8544C108.582 63.8544 107.787 63.7267 107.019 63.4737L106.33 65.5633C107.32 65.8892 108.347 66.0544 109.386 66.0544V63.8544ZM116.629 58.5769C115.602 61.737 112.691 63.8544 109.386 63.8544V66.0544C113.649 66.0544 117.401 63.3191 118.722 59.2573L116.629 58.5769ZM126.436 41.5812C125.673 43.9281 123.699 45.7226 121.29 46.2591L121.768 48.4065C124.937 47.7008 127.524 45.3484 128.528 42.2616L126.436 41.5812ZM127.779 37.4535L126.436 41.5811L128.528 42.2617L129.871 38.1341L127.779 37.4535ZM124.393 39.8109L129.043 38.8721L128.607 36.7156L123.957 37.6544L124.393 39.8109ZM121.366 39.6323C122.341 39.9521 123.387 40.014 124.393 39.8109L123.957 37.6544C123.325 37.7821 122.665 37.7432 122.052 37.5419L121.366 39.6323ZM113.351 37.0012L121.366 39.6322L122.052 37.542L114.037 34.9109L113.351 37.0012ZM106.47 40.5077C107.404 37.6355 110.493 36.0652 113.351 37.0014L114.036 34.9107C110.017 33.5942 105.687 35.8025 104.378 39.8271L106.47 40.5077ZM103.99 48.1215L106.47 40.5081L104.378 39.8267L101.898 47.4401L103.99 48.1215ZM103.313 46.7443L103.304 46.7415L102.584 48.8201L102.592 48.823L103.313 46.7443ZM105.876 47.5856L103.295 46.7385L102.609 48.8288L105.19 49.6759L105.876 47.5856ZM104.984 47.5069C104.86 47.668 104.731 47.8445 104.608 48.0357L106.458 49.2258C106.537 49.1037 106.627 48.9795 106.729 48.8455L104.984 47.5069ZM105.007 47.4771C105.006 47.4779 104.994 47.4932 104.981 47.5108L106.733 48.8415C106.727 48.8483 106.723 48.8534 106.721 48.8558C106.72 48.8578 106.719 48.8593 106.72 48.8573L105.007 47.4771ZM104.995 47.4931C105 47.4858 105.004 47.4804 105.006 47.4782C105.007 47.477 105.008 47.4762 105.008 47.4762C105.008 47.4762 105.008 47.4762 105.008 47.4765C105.007 47.4766 105.007 47.4768 105.007 47.477C105.007 47.4771 105.007 47.4774 105.007 47.4776L106.721 48.8568C106.721 48.8568 106.725 48.852 106.728 48.8474C106.732 48.8422 106.739 48.8338 106.747 48.8236L104.995 47.4931ZM105.396 47.0146C105.26 47.1646 105.128 47.3211 105.001 47.4851L106.741 48.8316C106.83 48.7163 106.925 48.6032 107.026 48.4915L105.396 47.0146ZM105.416 46.9919L105.396 47.014L107.026 48.4921L107.046 48.47L105.416 46.9919ZM107.394 45.4241C106.649 45.842 105.985 46.3701 105.419 46.9886L107.043 48.4733C107.45 48.028 107.929 47.6465 108.47 47.3433L107.394 45.4241ZM107.441 45.3983C107.437 45.4007 107.437 45.4007 107.425 45.4074C107.416 45.4123 107.401 45.4201 107.385 45.4294L108.479 47.338C108.477 47.3394 108.477 47.3396 108.481 47.3369C108.485 47.3352 108.486 47.3344 108.491 47.3317C108.495 47.3295 108.5 47.3265 108.506 47.3233L107.441 45.3983ZM107.5 45.3651C107.477 45.3785 107.46 45.3881 107.443 45.397L108.504 47.3245C108.533 47.3084 108.562 47.2924 108.583 47.2801L107.5 45.3651ZM107.678 45.2685C107.607 45.3047 107.541 45.342 107.5 45.3651L108.583 47.2801C108.631 47.2531 108.654 47.2402 108.675 47.2299L107.678 45.2685ZM112.395 44.488C110.788 44.2539 109.151 44.5189 107.677 45.2688L108.675 47.2296C109.744 46.6858 110.921 46.4965 112.078 46.6651L112.395 44.488ZM112.453 44.4967C112.428 44.4926 112.405 44.4894 112.39 44.4873L112.083 46.6658C112.097 46.6677 112.101 46.6684 112.104 46.6689L112.453 44.4967ZM113.052 44.6116C112.849 44.5643 112.646 44.5259 112.444 44.4953L112.113 46.6703C112.262 46.6929 112.409 46.7208 112.554 46.7544L113.052 44.6116ZM113.122 44.6287C113.122 44.6287 113.122 44.6288 113.106 44.6248C113.095 44.6219 113.071 44.6159 113.044 44.6097L112.562 46.7563C112.556 46.755 112.554 46.7543 112.564 46.7569C112.567 46.7577 112.575 46.7599 112.583 46.7616C112.59 46.7636 112.601 46.7663 112.613 46.7691L113.122 44.6287ZM113.734 44.8011C113.526 44.733 113.323 44.6776 113.127 44.6301L112.607 46.7677C112.763 46.8057 112.91 46.846 113.05 46.8918L113.734 44.8011ZM117.616 46.0762L113.735 44.8014L113.049 46.8915L116.929 48.1663L117.616 46.0762ZM121.289 46.2592C120.078 46.5298 118.807 46.4673 117.615 46.0761L116.929 48.1663C118.495 48.6802 120.168 48.7639 121.769 48.4063L121.289 46.2592ZM50.669 86.9171C50.8109 86.6471 51.0404 86.4445 51.3294 86.3372L50.564 84.2747C49.7663 84.5707 49.1156 85.1435 48.7213 85.8942L50.669 86.9171ZM46.0963 102.44L50.7499 86.7179L48.6404 86.0934L43.9868 101.815L46.0963 102.44ZM52.9934 87.7616L44.117 101.531L45.9661 102.723L54.8425 88.9536L52.9934 87.7616ZM52.9045 87.0682C53.012 87.3603 53.0075 87.6689 52.8952 87.9528L54.9408 88.7623C55.2528 87.974 55.2629 87.1067 54.9692 86.3085L52.9045 87.0682ZM52.2655 86.3741C52.5646 86.5124 52.7894 86.7555 52.9046 87.0684L54.9691 86.3082C54.6532 85.4503 54.0192 84.7611 53.1886 84.3771L52.2655 86.3741ZM51.3294 86.3372C51.6375 86.2229 51.966 86.2356 52.2655 86.3741L53.1886 84.3771C52.3584 83.9933 51.4223 83.9562 50.5641 84.2746L51.3294 86.3372Z" fill="white"/>
<path d="M39.1434 141.213H18.1161C16.9474 141.213 16 142.164 16 143.337C16 144.51 16.9474 145.461 18.1161 145.461H39.1434C40.3121 145.461 41.2595 144.51 41.2595 143.337C41.2595 142.164 40.3121 141.213 39.1434 141.213Z" fill="#074C7D" stroke="white" stroke-width="2.2"/>
<path d="M39.1427 129.018H24.3664C23.1978 129.018 22.2504 129.969 22.2504 131.142C22.2504 132.315 23.1978 133.266 24.3664 133.266H39.1427C40.3113 133.266 41.2587 132.315 41.2587 131.142C41.2587 129.969 40.3113 129.018 39.1427 129.018Z" fill="#074C7D" stroke="white" stroke-width="2.2"/>
<path d="M39.1429 116.82H32.8907C31.7221 116.82 30.7747 117.771 30.7747 118.944C30.7747 120.117 31.7221 121.069 32.8907 121.069H39.1429C40.3116 121.069 41.259 120.117 41.259 118.944C41.259 117.771 40.3116 116.82 39.1429 116.82Z" fill="#074C7D" stroke="white" stroke-width="2.2"/>
</svg>