<svg width="105" height="105" viewBox="0 0 105 105" fill="none" xmlns="http://www.w3.org/2000/svg">
<path d="M98.303 51.5412C98.5303 51.7685 98.6697 52.075 98.6948 52.3951C98.6975 52.4298 98.7 52.4652 98.7 52.5C98.7 64.8406 93.8945 76.4422 85.1684 85.1684C76.4422 93.8943 64.8406 98.7 52.5 98.7C40.1594 98.7 28.5577 93.8943 19.8315 85.1684C11.1055 76.4422 6.29999 64.8406 6.29999 52.5C6.29999 40.1594 11.1055 28.5577 19.8315 19.8315C28.5577 11.1057 40.1594 6.29999 52.5 6.29999C52.8551 6.29999 53.208 6.44635 53.459 6.6972L64.67 17.9082L70.2755 23.5137L75.881 29.1192L98.303 51.5412Z" fill="#CA0503" stroke="white" stroke-width="1.5"/>
<path d="M8.56831 52.5817C8.63356 76.8095 28.3976 96.4671 52.6257 96.4018C76.6082 96.3373 96.1107 76.9725 96.4404 53.0814C90.5781 49.342 84.9579 47.7993 79.9796 46.4333C77.4544 45.7402 75.074 45.086 72.8562 44.2224L70.1123 42.9853C68.1097 41.935 66.2664 40.5901 64.6004 38.725C62.1065 35.9332 60.6385 33.1929 59.6256 30.4292C59.2322 29.0125 58.0355 24.8454 57.7067 23.394C56.643 18.701 55.5439 13.8536 51.6997 8.53356C27.7887 8.967 8.50369 28.5839 8.56831 52.5817Z" fill="white"/>
<mask id="mask0" mask-type="alpha" maskUnits="userSpaceOnUse" x="6" y="7" width="93" height="93">
<path d="M9.11236 54.5768C9.68046 78.6958 29.7651 97.8558 53.8845 97.2877C77.7594 96.7254 96.7733 77.0415 96.6054 53.2494C90.6913 49.6484 85.0641 48.2291 80.0794 46.9726C77.5511 46.3351 75.1676 45.7332 72.9417 44.9195L70.1842 43.7449C68.1687 42.7407 66.3057 41.4401 64.6083 39.6179C62.0675 36.8902 60.5491 34.1926 59.4833 31.4621C59.0622 30.0599 57.7843 25.9362 57.4268 24.498C56.2704 19.8479 55.0755 15.0448 51.1378 9.82816C27.3418 10.7562 8.54966 30.6867 9.11236 54.5768Z" fill="white" stroke="white" stroke-width="2.2"/>
</mask>
<g mask="url(#mask0)">
<path d="M42.3938 46.0338H42.7338V45.6938V32.6588V32.3188H42.3938H29.3588H29.0188V32.6588V45.6938V46.0338H29.3588H42.3938ZM26.44 29.74H45.3125V48.6125H26.44V29.74Z" fill="#074C7D" stroke="white" stroke-width="0.68"/>
<path d="M32.9575 36.2574H38.795V42.0949H32.9575V36.2574Z" fill="#074C7D" stroke="white" stroke-width="0.68"/>
<path d="M29.3588 64.9061H29.0188V65.2461V78.2811V78.6211H29.3588H42.3938H42.7338V78.2811V65.2461V64.9061H42.3938H29.3588ZM45.3125 62.3273V81.1998H26.44V62.3273H45.3125Z" fill="#074C7D" stroke="white" stroke-width="0.68"/>
<path d="M32.9575 68.8452H38.795V74.6827H32.9575V68.8452Z" fill="#074C7D" stroke="white" stroke-width="0.68"/>
<path d="M74.9813 46.0338H75.3213V45.6938V32.6588V32.3188H74.9813H61.9463H61.6063V32.6588V45.6938V46.0338H61.9463H74.9813ZM77.9001 48.6125H59.0276V29.74H77.9001V48.6125Z" fill="#074C7D" stroke="white" stroke-width="0.68"/>
<path d="M65.545 36.2574H71.3825V42.0949H65.545V36.2574Z" fill="#074C7D" stroke="white" stroke-width="0.68"/>
<path d="M32.2775 55.4701V55.8101H32.6175H35.5363V58.3888H26.44V52.5513H32.2775V55.4701Z" fill="#074C7D" stroke="white" stroke-width="0.68"/>
<path d="M49.2513 59.0686H55.0888V64.9061H49.2513V59.0686Z" fill="#074C7D" stroke="white" stroke-width="0.68"/>
<path d="M36.2163 52.5513H42.0538V55.1301H36.2163V52.5513Z" fill="#074C7D" stroke="white" stroke-width="0.68"/>
<path d="M52.51 71.764V71.424H52.17H49.2513V68.8452H55.0888V71.764V74.6827H52.51V71.764Z" fill="#074C7D" stroke="white" stroke-width="0.68"/>
<path d="M45.6525 55.8101H45.9925V55.4701V52.5513H48.5713V58.3888H42.7338V55.8101H45.6525Z" fill="#074C7D" stroke="white" stroke-width="0.68"/>
<path d="M52.5099 42.7753H55.0887V48.6128H52.5099V42.7753Z" fill="#074C7D" stroke="white" stroke-width="0.68"/>
<path d="M55.7687 55.4701V55.1301H55.4287H52.5099V52.5513H61.6062V58.3888H55.7687V55.4701Z" fill="#074C7D" stroke="white" stroke-width="0.68"/>
<path d="M49.2513 49.2926H51.83V51.8714H49.2513V49.2926Z" fill="#074C7D" stroke="white" stroke-width="0.68"/>
<path d="M55.7687 75.3625H61.6062V81.2H55.7687V75.3625Z" fill="#074C7D" stroke="white" stroke-width="0.68"/>
<path d="M49.2513 75.3625H51.83V81.2H49.2513V75.3625Z" fill="#074C7D" stroke="white" stroke-width="0.68"/>
<path d="M55.7687 65.5865H58.3475V68.1653H55.7687V65.5865Z" fill="#074C7D" stroke="white" stroke-width="0.68"/>
<path d="M51.83 32.6588V32.9988H52.17H55.0888V38.8363H52.17H51.83V39.1763V42.095H49.2513V29.74H51.83V32.6588Z" fill="#074C7D" stroke="white" stroke-width="0.68"/>
<path d="M65.545 75.3625H68.1238V81.2H65.545V75.3625Z" fill="#074C7D" stroke="white" stroke-width="0.68"/>
<path d="M65.545 68.8452H71.3825V71.424H65.545V68.8452Z" fill="#074C7D" stroke="white" stroke-width="0.68"/>
<path d="M62.2862 72.1039H64.865V74.6827H62.2862V72.1039Z" fill="#074C7D" stroke="white" stroke-width="0.68"/>
<path d="M59.0276 68.8452H61.6063V71.424H59.0276V68.8452Z" fill="#074C7D" stroke="white" stroke-width="0.68"/>
<path d="M75.3213 65.2461V64.9061H74.9813H72.0625V62.3273H74.9813H77.9V68.1648H75.3213V65.2461Z" fill="#074C7D" stroke="white" stroke-width="0.68"/>
<path d="M74.6413 75.0227V75.3627H74.9813H77.9V81.2002H72.0625V72.1039H74.6413V75.0227Z" fill="#074C7D" stroke="white" stroke-width="0.68"/>
<path d="M61.9463 62.3274H62.2863V61.9874V59.0686H68.1238V64.9061H59.0276V62.3274H61.9463Z" fill="#074C7D" stroke="white" stroke-width="0.68"/>
<path d="M72.0625 55.4701V55.1301H71.7225H65.545V52.5513H71.7225H77.9V58.3888H72.0625V55.4701Z" fill="#074C7D" stroke="white" stroke-width="0.68"/>
</g>
<path d="M82.3441 45.3415C85.833 46.2999 89.589 47.9594 93.5379 49.5746L55.6 11.5C56.8277 14.783 58.1543 17.8961 58.8176 20.8151C60.6515 26.5901 61.3706 32.5916 66.1257 37.9633C70.2778 42.654 75.8671 43.5622 82.3441 45.3415Z" fill="white"/>
<line x1="85.3716" y1="41.9716" x2="88.1716" y2="39.1716" stroke="white" stroke-width="8"/>
</svg>
