<svg width="158" height="150" viewBox="0 0 158 150" fill="none" xmlns="http://www.w3.org/2000/svg">
<path d="M123.07 53.3277L123.069 53.3277L99.1118 53.3277H98.4618V53.9777V88.6606H95.0507V53.9777V53.3277H94.4007H83.2731V49.9166L123.07 49.9166L123.072 49.9166C123.915 49.914 124.749 50.0786 125.528 50.4011L125.777 49.8006L125.528 50.4011C126.307 50.7236 127.013 51.1975 127.607 51.7953L127.609 51.7968L156.85 81.0383L157.31 80.5787L156.85 81.0384C157.17 81.3581 157.35 81.7919 157.35 82.244V108.155C157.35 109.857 156.674 111.489 155.471 112.692C154.267 113.895 152.635 114.571 150.933 114.571H146.034H145.471L145.391 115.128C144.844 118.893 142.962 122.337 140.087 124.829C137.213 127.322 133.537 128.697 129.732 128.705H17.3183V125.294H52.2627H53.8583L52.7169 124.179C50.231 121.75 48.6158 118.569 48.122 115.129L48.042 114.571H47.4786H42.5791C40.8774 114.571 39.2453 113.895 38.0419 112.692C36.8386 111.489 36.1626 109.857 36.1626 108.155V87.6051H39.5736V108.155C39.5736 108.952 39.8903 109.716 40.4539 110.28C41.0176 110.844 41.782 111.16 42.5791 111.16H47.4786H48.042L48.122 110.603C48.663 106.836 50.5439 103.39 53.4197 100.898C56.2955 98.4058 59.9734 97.0338 63.7789 97.0338C67.5844 97.0338 71.2623 98.4058 74.1381 100.898C77.0139 103.39 78.8948 106.836 79.4357 110.603L79.5158 111.16H80.0791H113.433H113.997L114.077 110.603C114.618 106.836 116.499 103.39 119.374 100.898C122.25 98.4058 125.928 97.0338 129.734 97.0338C133.539 97.0338 137.217 98.4058 140.093 100.898C142.969 103.39 144.85 106.836 145.39 110.603L145.471 111.16H146.034H150.933C151.73 111.16 152.495 110.844 153.059 110.28C153.622 109.716 153.939 108.952 153.939 108.155V89.3106V88.6606H153.289H117.956C116.879 88.6606 115.846 88.2327 115.084 87.4711C114.323 86.7096 113.895 85.6766 113.895 84.5995V63.3998C113.895 62.3227 114.323 61.2898 115.084 60.5282C115.846 59.7666 116.879 59.3387 117.956 59.3387H128.758H130.328L129.218 58.2291L125.197 54.2083C124.918 53.9288 124.586 53.7072 124.221 53.5561L123.972 54.1567M123.07 53.3277V53.9777C123.38 53.9774 123.686 54.0383 123.972 54.1567M123.07 53.3277C123.465 53.3274 123.856 53.4051 124.221 53.5561L123.972 54.1567M123.07 53.3277L123.972 54.1567M51.3512 112.866L51.3512 112.867C51.3552 116.161 52.6657 119.32 54.9953 121.649C57.325 123.979 60.4835 125.29 63.7781 125.294H63.7789C66.2368 125.294 68.6396 124.565 70.6833 123.199C72.727 121.834 74.3199 119.893 75.2605 117.622C76.2011 115.351 76.4473 112.852 75.9677 110.441C75.4882 108.031 74.3046 105.816 72.5665 104.078C70.8285 102.34 68.6141 101.157 66.2034 100.677C63.7927 100.198 61.2939 100.444 59.023 101.384C56.7522 102.325 54.8112 103.918 53.4457 105.961C52.0801 108.005 51.3512 110.408 51.3512 112.866ZM74.8408 124.179L73.6995 125.294H75.2951H118.217H119.813L118.672 124.179C116.186 121.75 114.571 118.569 114.077 115.129L113.997 114.571H113.433H80.0791H79.5158L79.4357 115.129C78.9419 118.569 77.3268 121.75 74.8408 124.179ZM129.734 125.294H129.734C133.029 125.29 136.188 123.979 138.517 121.649C140.847 119.32 142.157 116.161 142.161 112.867V112.866C142.161 110.408 141.432 108.005 140.067 105.961C138.701 103.918 136.76 102.325 134.49 101.384C132.219 100.444 129.72 100.198 127.309 100.677C124.898 101.157 122.684 102.34 120.946 104.078C119.208 105.816 118.024 108.031 117.545 110.441C117.065 112.852 117.311 115.351 118.252 117.622C119.193 119.893 120.786 121.834 122.829 123.199C124.873 124.565 127.276 125.294 129.734 125.294ZM117.306 84.5995V85.2495H117.956H153.289H153.939V84.5995V83.2192V82.95L153.749 82.7596L133.929 62.9402L133.739 62.7498H133.47H117.956H117.306V63.3998V84.5995Z" fill="#CA0503" stroke="white" stroke-width="1.3"/>
<path d="M61.9733 114.671V111.06H65.5844V114.671H61.9733Z" fill="#CA0503" stroke="white" stroke-width="1.1"/>
<path d="M127.928 114.671V111.06H131.539V114.671H127.928Z" fill="#CA0503" stroke="white" stroke-width="1.1"/>
<path d="M0.75 107.25V103.75H27.25V107.25H0.75Z" fill="#074C7D" stroke="white" stroke-width="1.5"/>
<path d="M11.75 98.25V94.75H27.25V98.25H11.75Z" fill="#074C7D" stroke="white" stroke-width="1.5"/>
<path d="M17.75 89.25V85.75H27.25V89.25H17.75Z" fill="#074C7D" stroke="white" stroke-width="1.5"/>
<path d="M44 17.3769L43.9992 17.3769C36.4108 17.3859 29.1358 20.4043 23.7701 25.7701C18.4043 31.1359 15.3859 38.4108 15.3769 45.9992V46C15.3769 51.6611 17.0556 57.1951 20.2008 61.9021C23.3459 66.6092 27.8162 70.2779 33.0464 72.4443C38.2766 74.6107 44.0317 75.1775 49.5841 74.0731C55.1364 72.9687 60.2366 70.2426 64.2396 66.2396C68.2426 62.2366 70.9686 57.1364 72.0731 51.5841C73.1775 46.0318 72.6107 40.2766 70.4443 35.0464C68.2778 29.8162 64.6092 25.3459 59.9021 22.2008C55.1951 19.0557 49.6611 17.3769 44 17.3769ZM61.9449 72.8565C56.6334 76.4055 50.3889 78.2998 44.0008 78.3C35.4371 78.2901 27.227 74.8839 21.1716 68.8284C15.1162 62.7731 11.71 54.5631 11.7 45.9996C11.7001 39.6114 13.5944 33.3667 17.1435 28.0551C20.6927 22.7434 25.7373 18.6034 31.6393 16.1587C37.5414 13.714 44.0358 13.0743 50.3014 14.3207C56.567 15.567 62.3223 18.6432 66.8395 23.1605C71.3568 27.6777 74.433 33.433 75.6794 39.6986C76.9257 45.9642 76.286 52.4586 73.8413 58.3607C71.3966 64.2627 67.2566 69.3073 61.9449 72.8565Z" fill="#CA0503" stroke="white" stroke-width="1.4"/>
<path d="M44.5 63C45.0114 62.9999 45.5019 62.795 45.8635 62.4303C47.1055 61.1781 58 49.9528 58 41.6111C58 38.0012 56.5777 34.5392 54.0459 31.9866C51.5142 29.434 48.0804 28 44.5 28C40.9196 28 37.4858 29.434 34.9541 31.9866C32.4223 34.5392 31 38.0012 31 41.6111C31 49.9528 41.8945 61.1781 43.1365 62.4303C43.4981 62.795 43.9886 62.9999 44.5 63Z" stroke="#074C7D" stroke-width="2.5"/>
<path d="M50.2857 41.6101C50.2857 40.4564 49.9464 39.3286 49.3107 38.3693C48.6749 37.41 47.7713 36.6623 46.7141 36.2208C45.6569 35.7793 44.4936 35.6638 43.3713 35.8889C42.249 36.1139 41.218 36.6695 40.4089 37.4853C39.5997 38.3011 39.0487 39.3405 38.8255 40.4721C38.6022 41.6036 38.7168 42.7765 39.1547 43.8424C39.5926 44.9083 40.3342 45.8194 41.2856 46.4603C42.2371 47.1013 43.3557 47.4434 44.5 47.4434C46.0345 47.4434 47.5061 46.8289 48.5911 45.7349C49.6762 44.6409 50.2857 43.1572 50.2857 41.6101Z" stroke="#074C7D" stroke-width="2.5"/>
<path d="M106.728 98.1825V94.5715H115.051V98.1825H106.728Z" fill="#CA0503" stroke="white" stroke-width="1.1"/>
<line x1="31.1716" y1="126" x2="36.8285" y2="126" stroke="white" stroke-width="8"/>
</svg>
