<svg width="150" height="150" viewBox="0 0 150 150" fill="none" xmlns="http://www.w3.org/2000/svg">
<mask id="path-1-inside-1" fill="white">
<path d="M129.629 91.0603L126.729 86.0376C126.129 84.9979 124.8 84.6416 123.759 85.2419C122.719 85.8422 122.363 87.1719 122.963 88.2119L125.863 93.2346C126.016 93.4994 125.982 93.7516 125.948 93.8784C125.914 94.0051 125.817 94.2408 125.553 94.3937L117.885 98.8208C117.479 99.0543 116.959 98.915 116.725 98.5101L101.299 71.7919C101.065 71.3866 101.205 70.8665 101.61 70.6324L109.278 66.2054C109.683 65.9719 110.203 66.1106 110.437 66.5159L113.179 71.2655C113.78 72.3056 115.11 72.662 116.149 72.0613C117.189 71.461 117.546 70.1312 116.945 69.0913L114.203 64.3417C112.77 61.8602 109.586 61.0064 107.104 62.4394L99.4356 66.8666C98.2707 67.5393 97.4647 68.5979 97.0853 69.7885H75.3473C72.2954 69.7885 69.426 70.977 67.2677 73.1351L65.0404 75.3624C63.0875 74.8969 61.0868 74.6575 59.0747 74.6575H52.3251C51.9878 73.3549 51.1501 72.1826 49.8956 71.4581L42.2275 67.031C41.0251 66.3367 39.6241 66.1526 38.2837 66.5118C36.9428 66.8709 35.822 67.7311 35.128 68.9332L19.702 95.6517C19.008 96.8538 18.8234 98.2544 19.1826 99.5955C19.5418 100.937 20.4019 102.057 21.6043 102.751L29.2723 107.178C30.0888 107.65 30.9809 107.874 31.8621 107.874C32.1832 107.874 32.5026 107.843 32.8166 107.784L39.0927 114.061C38.9966 114.554 38.9468 115.06 38.9468 115.574C38.9468 117.663 39.7604 119.628 41.2378 121.105C42.6523 122.519 44.4783 123.276 46.334 123.379C46.3055 123.651 46.29 123.927 46.29 124.205C46.29 126.294 47.1036 128.258 48.581 129.735C50.0584 131.213 52.0226 132.026 54.1118 132.026C54.1686 132.026 54.2247 132.023 54.2812 132.022C54.2799 132.079 54.2771 132.135 54.2771 132.192C54.2771 134.281 55.0907 136.245 56.5681 137.722C58.0454 139.2 60.0097 140.013 62.0989 140.013C62.1556 140.013 62.2117 140.011 62.2682 140.009C62.2669 140.066 62.2641 140.122 62.2641 140.179C62.2641 142.268 63.0777 144.232 64.5551 145.709C66.0325 147.187 67.9967 148 70.0859 148C72.1751 148 74.1395 147.187 75.6167 145.709L78.7098 142.617C79.6166 141.71 80.2515 140.633 80.6192 139.488C81.9933 140.503 83.6261 141.01 85.2596 141.01C87.2623 141.009 89.2659 140.247 90.7904 138.722C91.7027 137.81 92.3609 136.712 92.7318 135.514C93.9905 136.336 95.4607 136.779 96.9996 136.779C99.0888 136.779 101.053 135.966 102.53 134.488C103.628 133.39 104.359 132.023 104.662 130.536C105.447 130.796 106.277 130.934 107.128 130.934C109.217 130.934 111.182 130.12 112.659 128.642C115.709 125.593 115.709 120.63 112.659 117.581L107.585 112.506L116.847 103.243C117.053 103.268 117.26 103.281 117.468 103.281C118.35 103.281 119.242 103.058 120.058 102.586L127.726 98.1594C128.928 97.4652 129.789 96.3446 130.148 95.0035C130.507 93.6625 130.323 92.2625 129.629 91.0603ZM23.7783 98.9854C23.5135 98.8326 23.4169 98.5971 23.383 98.4701C23.3491 98.3434 23.315 98.0911 23.468 97.8261L38.894 71.1074C39.0468 70.8426 39.2825 70.7461 39.4093 70.7122C39.4634 70.6978 39.5404 70.6832 39.6312 70.6832C39.7537 70.6832 39.9013 70.7095 40.053 70.7969L47.7211 75.2241C48.1262 75.4581 48.2658 75.9781 48.0318 76.3834L32.6059 103.102C32.3717 103.507 31.8521 103.647 31.4466 103.413L23.7783 98.9854ZM43.2953 115.574C43.2953 114.646 43.6566 113.774 44.3128 113.117L46.1892 111.241C46.8662 110.564 47.7557 110.225 48.6454 110.225C49.5346 110.225 50.4243 110.564 51.1014 111.241C51.7576 111.897 52.1189 112.769 52.1189 113.697C52.1189 114.625 51.7576 115.497 51.1014 116.153L49.225 118.029C47.8707 119.384 45.6671 119.384 44.3128 118.029C43.6566 117.374 43.2953 116.501 43.2953 115.574ZM54.112 127.678C53.1841 127.678 52.312 127.316 51.656 126.661C50.9999 126.005 50.6385 125.132 50.6385 124.205C50.6385 123.277 50.9999 122.404 51.656 121.749L54.7489 118.656C55.4259 117.979 56.3154 117.64 57.2049 117.64C58.0946 117.64 58.9841 117.979 59.6611 118.656C60.3173 119.312 60.6787 120.184 60.6787 121.112C60.6787 122.039 60.3173 122.912 59.6611 123.568L56.5683 126.661C55.9121 127.317 55.0398 127.678 54.112 127.678ZM62.0991 135.665C61.1711 135.665 60.299 135.304 59.6431 134.648C58.9869 133.992 58.6255 133.12 58.6255 132.192C58.6255 131.264 58.9869 130.392 59.6431 129.736L62.7359 126.643C63.413 125.966 64.3025 125.627 65.1919 125.627C66.0814 125.627 66.9711 125.966 67.6482 126.643C68.3043 127.299 68.6657 128.171 68.6657 129.099C68.6657 130.027 68.3043 130.899 67.6482 131.555L64.5553 134.648C63.8993 135.304 63.027 135.665 62.0991 135.665ZM75.6352 139.542L72.5421 142.635C71.8862 143.291 71.0141 143.652 70.0861 143.652C69.1582 143.652 68.2861 143.291 67.6301 142.635C66.9739 141.979 66.6126 141.107 66.6126 140.179C66.6126 139.251 66.9739 138.379 67.6301 137.723L70.7229 134.63C71.4 133.953 72.2895 133.614 73.1792 133.614C74.0684 133.614 74.9581 133.953 75.6352 134.63C76.9895 135.984 76.9895 138.188 75.6352 139.542ZM109.585 125.568C108.929 126.224 108.057 126.586 107.129 126.586C106.201 126.586 105.329 126.224 104.673 125.568L83.9197 104.815C83.0706 103.966 81.6943 103.966 80.8446 104.815C79.9956 105.664 79.9956 107.041 80.8446 107.89L99.4561 126.501C100.112 127.157 100.474 128.03 100.474 128.957C100.474 129.885 100.112 130.757 99.4561 131.414C98.8001 132.07 97.928 132.431 97 132.431C96.0721 132.431 95.2 132.07 94.544 131.414L72.1797 109.049C71.3306 108.2 69.9539 108.2 69.1047 109.049C68.2556 109.898 68.2556 111.275 69.1047 112.124L87.7161 130.736C88.3723 131.392 88.7336 132.264 88.7336 133.192C88.7336 134.119 88.3723 134.992 87.7161 135.648C86.362 137.002 84.1584 137.002 82.8038 135.648L78.7106 131.554C78.705 131.549 78.6987 131.544 78.693 131.539C77.1271 129.982 75.0616 129.228 73.01 129.272C73.0113 129.214 73.0141 129.157 73.0141 129.099C73.0141 127.01 72.2006 125.045 70.7232 123.568C69.1553 122 67.082 121.241 65.0228 121.285C65.0241 121.227 65.0269 121.17 65.0269 121.112C65.0269 119.022 64.2133 117.058 62.7359 115.581C61.0213 113.866 58.7021 113.116 56.4583 113.329C56.3685 111.378 55.5664 109.557 54.1762 108.167C51.1264 105.117 46.1639 105.117 43.1141 108.167L41.2378 110.043C41.2356 110.045 41.2334 110.047 41.2313 110.05L36.4032 105.222L51.5386 79.006H59.0745C59.8129 79.006 60.5493 79.0451 61.2816 79.1212L58.7962 81.6066C57.3188 83.084 56.5052 85.0484 56.5052 87.1376C56.5052 89.227 57.3188 91.1912 58.7962 92.6686C60.3212 94.1934 62.3243 94.9559 64.327 94.9559C66.3301 94.9559 68.3333 94.1936 69.858 92.6686L75.7276 86.7991L109.585 120.656C110.939 122.01 110.939 124.214 109.585 125.568ZM88.6954 93.6166C91.8593 91.3267 93.7987 87.6314 93.7987 83.6166C93.7987 82.4158 92.8251 81.4424 91.6245 81.4424C90.4239 81.4424 89.4502 82.4158 89.4502 83.6166C89.4502 86.4568 87.95 89.0474 85.5564 90.4779L77.2752 82.1967C76.4259 81.3476 75.0516 81.3254 74.2024 82.1745L66.7832 89.5936C65.4289 90.9479 63.2253 90.9477 61.871 89.5936C61.2148 88.9376 60.8535 88.0653 60.8535 87.1376C60.8535 86.2098 61.2148 85.3375 61.871 84.6814L70.3425 76.2099C71.6792 74.8732 73.4566 74.137 75.3473 74.137H97.6321L112.959 100.685C112.996 100.748 113.035 100.807 113.074 100.868L104.51 109.431L88.6954 93.6166Z"/>
</mask>
<path d="M129.629 91.0603L126.729 86.0376C126.129 84.9979 124.8 84.6416 123.759 85.2419C122.719 85.8422 122.363 87.1719 122.963 88.2119L125.863 93.2346C126.016 93.4994 125.982 93.7516 125.948 93.8784C125.914 94.0051 125.817 94.2408 125.553 94.3937L117.885 98.8208C117.479 99.0543 116.959 98.915 116.725 98.5101L101.299 71.7919C101.065 71.3866 101.205 70.8665 101.61 70.6324L109.278 66.2054C109.683 65.9719 110.203 66.1106 110.437 66.5159L113.179 71.2655C113.78 72.3056 115.11 72.662 116.149 72.0613C117.189 71.461 117.546 70.1312 116.945 69.0913L114.203 64.3417C112.77 61.8602 109.586 61.0064 107.104 62.4394L99.4356 66.8666C98.2707 67.5393 97.4647 68.5979 97.0853 69.7885H75.3473C72.2954 69.7885 69.426 70.977 67.2677 73.1351L65.0404 75.3624C63.0875 74.8969 61.0868 74.6575 59.0747 74.6575H52.3251C51.9878 73.3549 51.1501 72.1826 49.8956 71.4581L42.2275 67.031C41.0251 66.3367 39.6241 66.1526 38.2837 66.5118C36.9428 66.8709 35.822 67.7311 35.128 68.9332L19.702 95.6517C19.008 96.8538 18.8234 98.2544 19.1826 99.5955C19.5418 100.937 20.4019 102.057 21.6043 102.751L29.2723 107.178C30.0888 107.65 30.9809 107.874 31.8621 107.874C32.1832 107.874 32.5026 107.843 32.8166 107.784L39.0927 114.061C38.9966 114.554 38.9468 115.06 38.9468 115.574C38.9468 117.663 39.7604 119.628 41.2378 121.105C42.6523 122.519 44.4783 123.276 46.334 123.379C46.3055 123.651 46.29 123.927 46.29 124.205C46.29 126.294 47.1036 128.258 48.581 129.735C50.0584 131.213 52.0226 132.026 54.1118 132.026C54.1686 132.026 54.2247 132.023 54.2812 132.022C54.2799 132.079 54.2771 132.135 54.2771 132.192C54.2771 134.281 55.0907 136.245 56.5681 137.722C58.0454 139.2 60.0097 140.013 62.0989 140.013C62.1556 140.013 62.2117 140.011 62.2682 140.009C62.2669 140.066 62.2641 140.122 62.2641 140.179C62.2641 142.268 63.0777 144.232 64.5551 145.709C66.0325 147.187 67.9967 148 70.0859 148C72.1751 148 74.1395 147.187 75.6167 145.709L78.7098 142.617C79.6166 141.71 80.2515 140.633 80.6192 139.488C81.9933 140.503 83.6261 141.01 85.2596 141.01C87.2623 141.009 89.2659 140.247 90.7904 138.722C91.7027 137.81 92.3609 136.712 92.7318 135.514C93.9905 136.336 95.4607 136.779 96.9996 136.779C99.0888 136.779 101.053 135.966 102.53 134.488C103.628 133.39 104.359 132.023 104.662 130.536C105.447 130.796 106.277 130.934 107.128 130.934C109.217 130.934 111.182 130.12 112.659 128.642C115.709 125.593 115.709 120.63 112.659 117.581L107.585 112.506L116.847 103.243C117.053 103.268 117.26 103.281 117.468 103.281C118.35 103.281 119.242 103.058 120.058 102.586L127.726 98.1594C128.928 97.4652 129.789 96.3446 130.148 95.0035C130.507 93.6625 130.323 92.2625 129.629 91.0603ZM23.7783 98.9854C23.5135 98.8326 23.4169 98.5971 23.383 98.4701C23.3491 98.3434 23.315 98.0911 23.468 97.8261L38.894 71.1074C39.0468 70.8426 39.2825 70.7461 39.4093 70.7122C39.4634 70.6978 39.5404 70.6832 39.6312 70.6832C39.7537 70.6832 39.9013 70.7095 40.053 70.7969L47.7211 75.2241C48.1262 75.4581 48.2658 75.9781 48.0318 76.3834L32.6059 103.102C32.3717 103.507 31.8521 103.647 31.4466 103.413L23.7783 98.9854ZM43.2953 115.574C43.2953 114.646 43.6566 113.774 44.3128 113.117L46.1892 111.241C46.8662 110.564 47.7557 110.225 48.6454 110.225C49.5346 110.225 50.4243 110.564 51.1014 111.241C51.7576 111.897 52.1189 112.769 52.1189 113.697C52.1189 114.625 51.7576 115.497 51.1014 116.153L49.225 118.029C47.8707 119.384 45.6671 119.384 44.3128 118.029C43.6566 117.374 43.2953 116.501 43.2953 115.574ZM54.112 127.678C53.1841 127.678 52.312 127.316 51.656 126.661C50.9999 126.005 50.6385 125.132 50.6385 124.205C50.6385 123.277 50.9999 122.404 51.656 121.749L54.7489 118.656C55.4259 117.979 56.3154 117.64 57.2049 117.64C58.0946 117.64 58.9841 117.979 59.6611 118.656C60.3173 119.312 60.6787 120.184 60.6787 121.112C60.6787 122.039 60.3173 122.912 59.6611 123.568L56.5683 126.661C55.9121 127.317 55.0398 127.678 54.112 127.678ZM62.0991 135.665C61.1711 135.665 60.299 135.304 59.6431 134.648C58.9869 133.992 58.6255 133.12 58.6255 132.192C58.6255 131.264 58.9869 130.392 59.6431 129.736L62.7359 126.643C63.413 125.966 64.3025 125.627 65.1919 125.627C66.0814 125.627 66.9711 125.966 67.6482 126.643C68.3043 127.299 68.6657 128.171 68.6657 129.099C68.6657 130.027 68.3043 130.899 67.6482 131.555L64.5553 134.648C63.8993 135.304 63.027 135.665 62.0991 135.665ZM75.6352 139.542L72.5421 142.635C71.8862 143.291 71.0141 143.652 70.0861 143.652C69.1582 143.652 68.2861 143.291 67.6301 142.635C66.9739 141.979 66.6126 141.107 66.6126 140.179C66.6126 139.251 66.9739 138.379 67.6301 137.723L70.7229 134.63C71.4 133.953 72.2895 133.614 73.1792 133.614C74.0684 133.614 74.9581 133.953 75.6352 134.63C76.9895 135.984 76.9895 138.188 75.6352 139.542ZM109.585 125.568C108.929 126.224 108.057 126.586 107.129 126.586C106.201 126.586 105.329 126.224 104.673 125.568L83.9197 104.815C83.0706 103.966 81.6943 103.966 80.8446 104.815C79.9956 105.664 79.9956 107.041 80.8446 107.89L99.4561 126.501C100.112 127.157 100.474 128.03 100.474 128.957C100.474 129.885 100.112 130.757 99.4561 131.414C98.8001 132.07 97.928 132.431 97 132.431C96.0721 132.431 95.2 132.07 94.544 131.414L72.1797 109.049C71.3306 108.2 69.9539 108.2 69.1047 109.049C68.2556 109.898 68.2556 111.275 69.1047 112.124L87.7161 130.736C88.3723 131.392 88.7336 132.264 88.7336 133.192C88.7336 134.119 88.3723 134.992 87.7161 135.648C86.362 137.002 84.1584 137.002 82.8038 135.648L78.7106 131.554C78.705 131.549 78.6987 131.544 78.693 131.539C77.1271 129.982 75.0616 129.228 73.01 129.272C73.0113 129.214 73.0141 129.157 73.0141 129.099C73.0141 127.01 72.2006 125.045 70.7232 123.568C69.1553 122 67.082 121.241 65.0228 121.285C65.0241 121.227 65.0269 121.17 65.0269 121.112C65.0269 119.022 64.2133 117.058 62.7359 115.581C61.0213 113.866 58.7021 113.116 56.4583 113.329C56.3685 111.378 55.5664 109.557 54.1762 108.167C51.1264 105.117 46.1639 105.117 43.1141 108.167L41.2378 110.043C41.2356 110.045 41.2334 110.047 41.2313 110.05L36.4032 105.222L51.5386 79.006H59.0745C59.8129 79.006 60.5493 79.0451 61.2816 79.1212L58.7962 81.6066C57.3188 83.084 56.5052 85.0484 56.5052 87.1376C56.5052 89.227 57.3188 91.1912 58.7962 92.6686C60.3212 94.1934 62.3243 94.9559 64.327 94.9559C66.3301 94.9559 68.3333 94.1936 69.858 92.6686L75.7276 86.7991L109.585 120.656C110.939 122.01 110.939 124.214 109.585 125.568ZM88.6954 93.6166C91.8593 91.3267 93.7987 87.6314 93.7987 83.6166C93.7987 82.4158 92.8251 81.4424 91.6245 81.4424C90.4239 81.4424 89.4502 82.4158 89.4502 83.6166C89.4502 86.4568 87.95 89.0474 85.5564 90.4779L77.2752 82.1967C76.4259 81.3476 75.0516 81.3254 74.2024 82.1745L66.7832 89.5936C65.4289 90.9479 63.2253 90.9477 61.871 89.5936C61.2148 88.9376 60.8535 88.0653 60.8535 87.1376C60.8535 86.2098 61.2148 85.3375 61.871 84.6814L70.3425 76.2099C71.6792 74.8732 73.4566 74.137 75.3473 74.137H97.6321L112.959 100.685C112.996 100.748 113.035 100.807 113.074 100.868L104.51 109.431L88.6954 93.6166Z" fill="#074C7D" stroke="white" stroke-width="2.2" mask="url(#path-1-inside-1)"/>
<mask id="path-2-inside-2" fill="white">
<path fill-rule="evenodd" clip-rule="evenodd" d="M122.173 83.1277C121.731 83.3829 121.165 83.2314 120.91 82.7894L119.092 79.6405C118.837 79.1985 118.988 78.6333 119.43 78.3781C119.873 78.1229 120.438 78.2744 120.693 78.7164L122.511 81.8653C122.766 82.3073 122.615 82.8725 122.173 83.1277Z"/>
</mask>
<path fill-rule="evenodd" clip-rule="evenodd" d="M122.173 83.1277C121.731 83.3829 121.165 83.2314 120.91 82.7894L119.092 79.6405C118.837 79.1985 118.988 78.6333 119.43 78.3781C119.873 78.1229 120.438 78.2744 120.693 78.7164L122.511 81.8653C122.766 82.3073 122.615 82.8725 122.173 83.1277Z" fill="#CA0503"/>
<path d="M120.693 78.7164L122.425 77.7164L120.693 78.7164ZM120.91 82.7894L119.178 83.7894L120.91 82.7894ZM119.092 79.6405L117.36 80.6405L119.092 79.6405ZM117.36 80.6405L119.178 83.7894L122.642 81.7894L120.824 78.6406L117.36 80.6405ZM124.243 80.8653L122.425 77.7164L118.961 79.7164L120.779 82.8652L124.243 80.8653ZM120.779 82.8652C120.482 82.3507 120.658 81.6927 121.173 81.3956L123.173 84.8598C124.571 84.0523 125.05 82.2639 124.243 80.8653L120.779 82.8652ZM120.43 80.1102C119.916 80.4072 119.258 80.2309 118.961 79.7164L122.425 77.7164C121.618 76.3178 119.829 75.8386 118.431 76.646L120.43 80.1102ZM119.178 83.7894C119.986 85.188 121.774 85.6672 123.173 84.8598L121.173 81.3956C121.687 81.0986 122.345 81.2749 122.642 81.7894L119.178 83.7894ZM120.824 78.6406C121.121 79.1551 120.945 79.8131 120.43 80.1102L118.431 76.646C117.032 77.4535 116.553 79.2419 117.36 80.6405L120.824 78.6406Z" fill="#CA0503" mask="url(#path-2-inside-2)"/>
<path d="M26.5006 12.1211C27.0694 10.3706 29.5459 10.3706 30.1147 12.1211L31.5963 16.6812C32.1452 18.3705 33.7194 19.5142 35.4957 19.5142H40.2904C42.131 19.5142 42.8963 21.8695 41.4072 22.9513L37.5282 25.7696C36.0912 26.8137 35.4899 28.6643 36.0388 30.3536L37.5204 34.9137C38.0892 36.6642 36.0857 38.1198 34.5966 37.0379L30.7176 34.2196C29.2806 33.1756 27.3347 33.1756 25.8977 34.2196L22.0187 37.0379C20.5296 38.1198 18.5261 36.6642 19.0949 34.9137L20.5765 30.3536C21.1254 28.6643 20.5241 26.8137 19.0871 25.7696L15.2081 22.9513C13.719 21.8695 14.4843 19.5142 16.3249 19.5142H21.1196C22.8959 19.5142 24.4701 18.3705 25.019 16.6812L26.5006 12.1211Z" stroke="#CA0503" stroke-width="2.2"/>
<path d="M91.3558 31.549L92.9999 30.3546L95.2463 28.7224C97.5975 27.0142 96.3891 23.2954 93.483 23.2954L83.5558 23.2954C82.2561 23.2954 81.1043 22.4585 80.7027 21.2224L77.635 11.7812C76.7369 9.01722 72.8267 9.01721 71.9287 11.7811L68.861 21.2224C68.4594 22.4585 67.3075 23.2954 66.0078 23.2954L56.0807 23.2954C53.1745 23.2954 51.9662 27.0142 54.3174 28.7224L62.3486 34.5574C63.4 35.3214 63.84 36.6755 63.4384 37.9115L60.3707 47.3528C59.4727 50.1167 62.6361 52.4151 64.9873 50.7069L73.0185 44.8719C74.0699 44.108 75.4937 44.108 76.5452 44.8719L84.5764 50.7069C86.9276 52.4151 90.091 50.1168 89.1929 47.3528L86.1253 37.9115C85.7237 36.6755 86.1636 35.3214 87.2151 34.5574L87.5817 34.2911" stroke="#CA0503" stroke-width="2.2"/>
<path d="M119.449 12.1211C120.018 10.3706 122.494 10.3706 123.063 12.1211L124.545 16.6812C125.094 18.3705 126.668 19.5142 128.444 19.5142H133.239C135.079 19.5142 135.845 21.8695 134.356 22.9513L130.477 25.7696C129.04 26.8137 128.438 28.6643 128.987 30.3536L130.469 34.9137C131.038 36.6642 129.034 38.1198 127.545 37.0379L123.666 34.2196C122.229 33.1756 120.283 33.1756 118.846 34.2196L114.967 37.0379C113.478 38.1198 111.475 36.6642 112.043 34.9137L113.525 30.3536C114.074 28.6643 113.473 26.8137 112.036 25.7696L108.157 22.9513C106.668 21.8695 107.433 19.5142 109.273 19.5142H114.068C115.844 19.5142 117.419 18.3705 117.967 16.6812L119.449 12.1211Z" stroke="#CA0503" stroke-width="2.2"/>
</svg>