<svg width="147" height="151" viewBox="0 0 147 151" fill="none" xmlns="http://www.w3.org/2000/svg">
<path d="M1 150V126.65H104.145V150" stroke="#CA0503" stroke-width="2" stroke-miterlimit="10" stroke-linecap="square" stroke-linejoin="round"/>
<path d="M15.9724 149.642V139.913H44.2541V149.642" stroke="#CA0503" stroke-width="2" stroke-miterlimit="10" stroke-linecap="square" stroke-linejoin="round"/>
<path d="M59.2273 149.642V139.913H89.1726V149.642" stroke="#CA0503" stroke-width="2" stroke-miterlimit="10" stroke-linecap="square" stroke-linejoin="round"/>
<path d="M10.9819 139.913H15.9728" stroke="#CA0503" stroke-width="2" stroke-miterlimit="10" stroke-linecap="square" stroke-linejoin="round"/>
<path d="M54.2363 139.913H59.2272" stroke="#CA0503" stroke-width="2" stroke-miterlimit="10" stroke-linecap="square" stroke-linejoin="round"/>
<path d="M99.1541 139.913H104.145" stroke="#CA0503" stroke-width="2" stroke-miterlimit="10" stroke-linecap="square" stroke-linejoin="round"/>
<path d="M97.4907 126.292V77.6465H52.5728V126.292" stroke="#CA0503" stroke-width="2" stroke-miterlimit="10" stroke-linecap="square" stroke-linejoin="round"/>
<path d="M80.8539 77.6465V87.3756H69.2085V77.6465" stroke="#CA0503" stroke-width="2" stroke-miterlimit="10" stroke-linecap="round" stroke-linejoin="round"/>
<path d="M87.5085 114.617H80.854" stroke="#167FC9" stroke-width="2" stroke-miterlimit="10" stroke-linecap="square" stroke-linejoin="round"/>
<path d="M60.8904 77.6462V29.0005H15.9724V65.9712" stroke="#CA0503" stroke-width="2" stroke-miterlimit="10" stroke-linecap="square" stroke-linejoin="round"/>
<path d="M44.2543 29.0005V38.7296H32.6089V29.0005" stroke="#CA0503" stroke-width="2" stroke-miterlimit="10" stroke-linecap="round" stroke-linejoin="round"/>
<path d="M50.9087 65.9717H44.2542" stroke="#167FC9" stroke-width="2" stroke-miterlimit="10" stroke-linecap="square" stroke-linejoin="round"/>
<path d="M52.5725 126.292V77.6465H7.65454V114.617" stroke="#CA0503" stroke-width="2" stroke-miterlimit="10" stroke-linecap="square" stroke-linejoin="round"/>
<path d="M35.9362 77.6465V87.3756H24.2908V77.6465" stroke="#CA0503" stroke-width="2" stroke-miterlimit="10" stroke-linecap="round" stroke-linejoin="round"/>
<path d="M42.5908 114.617H35.9363" stroke="#167FC9" stroke-width="2" stroke-miterlimit="10" stroke-linecap="square" stroke-linejoin="round"/>
<path d="M123.608 14.5365C123.608 7.29399 119.262 1.5 107.674 1.5C96.0862 1.5 91.7407 7.29399 91.7407 14.5365" stroke="#167FC9" stroke-width="2" stroke-miterlimit="10" stroke-linecap="round" stroke-linejoin="round"/>
<path d="M90.2924 21.7788L91.1615 24.531C91.4512 25.4001 92.3203 25.6898 93.1894 25.4001C95.9416 24.2413 101.88 21.7788 107.674 21.7788C114.193 21.7788 119.697 24.0964 122.159 25.2552C122.884 25.6898 123.898 25.2552 124.187 24.3861L125.056 21.7788" stroke="#167FC9" stroke-width="2" stroke-miterlimit="10" stroke-linecap="round" stroke-linejoin="round"/>
<path d="M116.365 15.9846C116.365 15.9846 110.571 14.5361 107.674 14.5361C104.777 14.5361 98.9835 15.9846 98.9835 15.9846" stroke="#167FC9" stroke-width="2" stroke-miterlimit="10" stroke-linecap="round" stroke-linejoin="round"/>
<path d="M103.329 45.8257C97.5349 44.2324 94.3482 39.3075 93.1894 33.3687" stroke="#167FC9" stroke-width="2" stroke-miterlimit="10" stroke-linecap="round" stroke-linejoin="round"/>
<path d="M122.159 33.3687C121.001 39.3075 117.814 44.2324 112.02 45.8257" stroke="#167FC9" stroke-width="2" stroke-miterlimit="10" stroke-linecap="round" stroke-linejoin="round"/>
<path d="M116.365 44.9565C116.365 44.9565 115.931 49.8814 117.814 53.6475" stroke="#167FC9" stroke-width="2" stroke-miterlimit="10" stroke-linecap="round" stroke-linejoin="round"/>
<path d="M107.674 59.4419C112.165 59.4419 116.365 56.5449 117.814 53.6479" stroke="#167FC9" stroke-width="2" stroke-miterlimit="10" stroke-linecap="square" stroke-linejoin="round"/>
<path d="M117.814 53.6479L131.574 56.5449C139.686 58.2831 145.335 65.3808 145.335 73.4924V99.5006" stroke="#167FC9" stroke-width="2" stroke-miterlimit="10" stroke-linecap="square" stroke-linejoin="round"/>
<path d="M99.5802 45.7812C99.5802 45.7812 99.9907 50.4341 98.2117 53.9921" stroke="#167FC9" stroke-width="2" stroke-miterlimit="10" stroke-linecap="round" stroke-linejoin="round"/>
<path d="M97.6723 54.2158L80.25 58.0007" stroke="#167FC9" stroke-width="2" stroke-miterlimit="10" stroke-linecap="square" stroke-linejoin="round"/>
</svg>
