<svg width="152" height="152" viewBox="0 0 152 152" fill="none" xmlns="http://www.w3.org/2000/svg">
<path d="M34.8714 100.193C42.8884 100.193 49.3875 93.6943 49.3875 85.6773C49.3875 77.6602 42.8884 71.1611 34.8714 71.1611C26.8543 71.1611 20.3552 77.6602 20.3552 85.6773C20.3552 93.6943 26.8543 100.193 34.8714 100.193Z" stroke="#167FC9" stroke-width="2" stroke-miterlimit="10" stroke-linecap="round" stroke-linejoin="round"/>
<path d="M54.2259 25.1934V34.8708C54.2259 38.9837 51.0808 42.1289 46.9678 42.1289H37.2904" stroke="#167FC9" stroke-width="2" stroke-miterlimit="10" stroke-linecap="round" stroke-linejoin="round"/>
<path d="M63.9036 85.6777H49.3875" stroke="#167FC9" stroke-width="2" stroke-miterlimit="10" stroke-linecap="square" stroke-linejoin="round"/>
<path d="M119.548 32.4514H100.193V25.1934L78.4191 42.1289L100.193 59.0644V51.8063H151" stroke="#CA0503" stroke-width="2" stroke-miterlimit="10" stroke-linecap="square" stroke-linejoin="round"/>
<path d="M134.065 32.4512H143.742" stroke="#CA0503" stroke-width="2" stroke-miterlimit="10" stroke-linecap="square" stroke-linejoin="round"/>
<path d="M20.3549 85.6776H10.6774C5.35485 85.6776 1 81.3227 1 76.0002V58.3388C1 54.2259 2.45162 50.113 5.35485 46.9678L39.7098 8.98389C44.3065 3.90323 50.8388 1 57.613 1H119.549" stroke="#167FC9" stroke-width="2" stroke-miterlimit="10" stroke-linecap="square" stroke-linejoin="round"/>
<path d="M151 148.581V85.6772C151 84.2256 150.032 83.2578 148.581 83.2578H80.8384C79.3868 83.2578 78.4191 84.2256 78.4191 85.6772V148.581C78.4191 150.032 79.3868 151 80.8384 151H148.581C150.032 151 151 150.032 151 148.581Z" stroke="#167FC9" stroke-width="2" stroke-miterlimit="10" stroke-linecap="square" stroke-linejoin="round"/>
<path d="M124.387 83.2578V97.774H105.032V83.2578" stroke="#167FC9" stroke-width="2" stroke-miterlimit="10" stroke-linecap="round" stroke-linejoin="round"/>
<path d="M136.484 136.485H126.807" stroke="#CA0503" stroke-width="2" stroke-miterlimit="10" stroke-linecap="square" stroke-linejoin="round"/>
</svg>
