<svg width="151" height="151" viewBox="0 0 151 151" fill="none" xmlns="http://www.w3.org/2000/svg">
<path d="M34.7949 126.164H29.825C28.7316 126.164 27.837 125.27 27.837 124.177C27.837 123.085 28.7316 122.191 29.825 122.191H34.7949C35.8882 122.191 36.7828 123.085 36.7828 124.177C36.7828 125.27 35.8882 126.164 34.7949 126.164Z" stroke="#CA0503" stroke-width="2" stroke-miterlimit="10" stroke-linecap="round" stroke-linejoin="round"/>
<path d="M26.8436 124.177H21.8738C18.5936 124.177 15.9099 121.496 15.9099 118.218V113.252" stroke="#CA0503" stroke-width="2" stroke-miterlimit="10" stroke-linecap="round" stroke-linejoin="round"/>
<path d="M15.9101 119.212C12.928 119.212 10.9399 117.226 10.9399 114.743V111.763C10.9399 109.28 12.928 107.294 15.9101 107.294" stroke="#CA0503" stroke-width="2" stroke-miterlimit="10" stroke-linecap="round" stroke-linejoin="round"/>
<path d="M62.6265 150V149.901C62.6265 144.538 59.5451 139.671 54.6747 137.288L43.7409 132.123C40.5602 135.103 36.4849 137.089 31.8132 137.089C27.1416 137.089 24.0602 135.103 20.8795 132.123L8.9518 137.288C4.08132 139.572 1 144.438 1 149.901V150" stroke="#CA0503" stroke-width="2" stroke-miterlimit="10" stroke-linecap="square" stroke-linejoin="round"/>
<path d="M20.8793 132.123L13.9215 145.034L23.8613 143.048" stroke="#CA0503" stroke-width="2" stroke-miterlimit="10" stroke-linecap="round" stroke-linejoin="round"/>
<path d="M43.7405 132.123L49.7044 145.034L39.7646 143.048" stroke="#CA0503" stroke-width="2" stroke-miterlimit="10" stroke-linecap="round" stroke-linejoin="round"/>
<path d="M15.9099 113.253V104.314C15.9099 95.3756 22.7683 88.4233 31.8135 88.4233C40.8587 88.4233 48.7111 95.3756 48.7111 104.314V119.212C48.7111 119.212 47.7171 131.13 52.687 136.096" stroke="#CA0503" stroke-width="2" stroke-miterlimit="10" stroke-linecap="round" stroke-linejoin="round"/>
<path d="M44.7348 109.28V116.729C44.7348 123.581 39.1685 131.13 32.3101 131.13C25.4516 131.13 19.8854 123.581 19.8854 116.729V109.28" stroke="#CA0503" stroke-width="2" stroke-miterlimit="10" stroke-linecap="square" stroke-linejoin="round"/>
<path d="M44.7348 105.307H38.7709V99.3481L33.801 105.307H19.8854" stroke="#CA0503" stroke-width="2" stroke-miterlimit="10" stroke-linecap="square" stroke-linejoin="round"/>
<path d="M61.6339 0V88.4397H151.001" stroke="#167FC9" stroke-width="2" stroke-miterlimit="10"/>
<path d="M69.8368 42.5478L81.8039 30.5843L108.826 57.5665L148.652 17.7847" stroke="#CA0503" stroke-width="2" stroke-miterlimit="10"/>
<path d="M100.045 39.9745C105.61 34.4108 109.76 30.2622 109.76 30.2622L118.735 39.2348" stroke="#167FC9" stroke-width="2" stroke-miterlimit="10"/>
<path d="M148.106 63.8047L129.254 44.959" stroke="#167FC9" stroke-width="2" stroke-miterlimit="10"/>
<path d="M72.1212 67.9216C72.7324 67.3106 82.2546 57.7913 91.5516 48.4971" stroke="#167FC9" stroke-width="2" stroke-miterlimit="10"/>
<path d="M52.4976 43.7695H61.6337" stroke="#167FC9" stroke-width="2" stroke-miterlimit="10"/>
<path d="M52.4976 71.1055H61.6337" stroke="#167FC9" stroke-width="2" stroke-miterlimit="10"/>
<path d="M52.4976 16.4019H61.6337" stroke="#167FC9" stroke-width="2" stroke-miterlimit="10"/>
<path d="M107.218 98.4411V89.3398" stroke="#167FC9" stroke-width="2" stroke-miterlimit="10"/>
<path d="M134.562 98.4411V89.3398" stroke="#167FC9" stroke-width="2" stroke-miterlimit="10"/>
<path d="M79.8735 98.4411V89.3398" stroke="#167FC9" stroke-width="2" stroke-miterlimit="10"/>
</svg>
