<svg width="152" height="152" viewBox="0 0 152 152" fill="none" xmlns="http://www.w3.org/2000/svg">
<path d="M71.6586 151H107.17M81.1429 150.885L85.3149 139.738" stroke="#167FC9" stroke-width="2"/>
<path d="M151 80.4455V59.7624C151 58.5629 150.453 57.4775 149.687 56.7083C148.92 55.939 147.839 55.3901 146.644 55.3901H72.5196M45.5347 122.099H107.837M107.895 135.673H49.8907C47.9059 135.673 46.2304 134.402 45.7054 132.549C45.5942 132.157 45.5347 131.739 45.5347 131.301V93.4374" stroke="#167FC9" stroke-width="2"/>
<path d="M92.4078 130.72H90.569C89.1899 130.72 88.1392 129.595 88.1392 128.273C88.1392 126.95 89.2555 125.826 90.569 125.826H92.4078C93.7869 125.826 94.8376 126.95 94.8376 128.273C94.8376 129.595 93.7212 130.72 92.4078 130.72Z" stroke="#167FC9" stroke-width="2"/>
<path d="M150.924 115.176V88.6737C150.924 87.519 149.865 86.5293 148.628 86.5293H115.778C114.482 86.5293 113.482 87.464 113.482 88.6737V148.882C113.482 150.037 114.482 150.917 115.778 150.917H148.628C149.923 150.917 150.924 149.982 150.924 148.882V121.775" stroke="#CA0503" stroke-width="2"/>
<path d="M123.313 86.847L124.902 91.8506H139.267L140.975 86.792" stroke="#CA0503" stroke-width="2"/>
<path d="M133.132 147.973H130.816C129.676 147.973 129.259 147.197 129.259 146.283C129.259 145.324 129.73 144.593 130.816 144.593H133.132C134.272 144.593 134.688 145.37 134.688 146.283C134.688 147.197 134.217 147.973 133.132 147.973Z" stroke="#167FC9" stroke-width="2"/>
<path fill-rule="evenodd" clip-rule="evenodd" d="M78.0895 64.1854C79.1196 65.2211 79.7545 66.6542 79.7545 68.2306C79.7545 69.8135 79.1196 71.2401 78.0895 72.2759C77.0593 73.3116 75.634 73.95 74.0661 73.95C72.4917 73.95 71.0729 73.3116 70.0427 72.2759C69.0126 71.2401 68.3777 69.807 68.3777 68.2306C68.3777 66.6477 69.0126 65.2211 70.0427 64.1854C71.0729 63.1496 72.4982 62.5112 74.0661 62.5112C75.634 62.5112 77.0593 63.1496 78.0895 64.1854Z" stroke="#CA0503" stroke-width="2"/>
<path d="M22.8168 46.9106V53.9198C22.8168 54.226 22.6549 54.4866 22.4087 54.6299L10.2673 63.0721" stroke="#167FC9" stroke-width="2"/>
<path d="M58.9122 52.0098V55.8971C58.9122 56.2122 59.0759 56.4804 59.3248 56.6279L69.9431 64.208" stroke="#CA0503" stroke-width="2"/>
<path fill-rule="evenodd" clip-rule="evenodd" d="M10.7118 63.7342C11.7419 64.7699 12.3768 66.203 12.3768 67.7794C12.3768 69.3624 11.7419 70.789 10.7118 71.8247C9.68164 72.8604 8.2563 73.4988 6.68842 73.4988C5.11406 73.4988 3.6952 72.8604 2.66506 71.8247C1.63493 70.789 1 69.3559 1 67.7794C1 66.1965 1.63493 64.7699 2.66506 63.7342C3.6952 62.6984 5.12054 62.0601 6.68842 62.0601C8.2563 62.0601 9.68164 62.6984 10.7118 63.7342Z" stroke="#167FC9" stroke-width="2"/>
<path d="M60.6035 47.9199C60.6035 46.9167 59.7981 46.0991 58.7872 46.0991C57.7762 46.0991 56.9708 46.9167 56.9708 47.9199C56.9708 48.9206 57.7724 49.7368 58.7799 49.7407C59.8003 49.7515 60.6035 48.9124 60.6035 47.9199Z" stroke="#167FC9" stroke-width="2"/>
<path d="M57.8088 70.6676V68.2834V65.8993L48.4793 58.9227C48.2461 58.7793 48.0971 58.5188 48.0971 58.2256V55.0858V55.0793C48.0971 55.0533 48.0906 55.0337 48.0906 55.0077V46.9106" stroke="#167FC9" stroke-width="2"/>
<path fill-rule="evenodd" clip-rule="evenodd" d="M61.9192 72.7801C62.9493 73.8158 63.5842 75.2489 63.5842 76.8253C63.5842 78.4083 62.9493 79.8349 61.9192 80.8706C60.889 81.9063 59.4637 82.5447 57.8958 82.5447C56.3215 82.5447 54.9026 81.9063 53.8725 80.8706C52.8423 79.8349 52.2074 78.4018 52.2074 76.8253C52.2074 75.2424 52.8423 73.8158 53.8725 72.7801C54.9026 71.7443 56.3279 71.106 57.8958 71.106C59.4637 71.106 60.889 71.7443 61.9192 72.7801Z" stroke="#CA0503" stroke-width="2"/>
<path d="M32.8928 47.4019C32.8928 47.8578 32.8928 52.6106 32.8928 52.6106" stroke="#167FC9" stroke-width="2"/>
<path d="M32.7527 54.9316V58.1674C32.7527 58.2065 32.7527 58.2391 32.7527 58.2782C32.7332 58.5908 32.5453 58.8579 32.2732 58.9817L22.3477 65.9062C22.3477 65.9062 22.3477 68.6617 22.3477 70.4273" stroke="#167FC9" stroke-width="2"/>
<path fill-rule="evenodd" clip-rule="evenodd" d="M26.4342 72.3274C27.4643 73.3632 28.0992 74.7963 28.0992 76.3727C28.0992 77.9556 27.4643 79.3822 26.4342 80.418C25.4041 81.4537 23.9787 82.0921 22.4108 82.0921C20.8365 82.0921 19.4176 81.4537 18.3875 80.418C17.3573 79.3822 16.7224 77.9491 16.7224 76.3727C16.7224 74.7898 17.3573 73.3632 18.3875 72.3274C19.4176 71.2917 20.843 70.6533 22.4108 70.6533C23.9787 70.6533 25.4041 71.2917 26.4342 72.3274Z" stroke="#167FC9" stroke-width="2"/>
<path fill-rule="evenodd" clip-rule="evenodd" d="M44.909 76.72C45.9392 77.7558 46.5741 79.1889 46.5741 80.7653C46.5741 82.3482 45.9392 83.7748 44.909 84.8105C43.8789 85.8463 42.4536 86.4847 40.8857 86.4847C39.3113 86.4847 37.8925 85.8463 36.8623 84.8105C35.8322 83.7748 35.1973 82.3417 35.1973 80.7653C35.1973 79.1824 35.8322 77.7558 36.8623 76.72C37.8925 75.6843 39.3178 75.0459 40.8857 75.0459C42.4536 75.0459 43.8789 75.6843 44.909 76.72Z" stroke="#167FC9" stroke-width="2"/>
<path d="M42.7114 47.8227C42.7114 46.8196 41.906 46.002 40.8951 46.002C39.8841 46.002 39.0787 46.8196 39.0787 47.8227C39.0787 48.8259 39.8841 49.6435 40.8951 49.6435C41.8943 49.6435 42.7114 48.831 42.7114 47.8227Z" stroke="#167FC9" stroke-width="2"/>
<path d="M42.7114 54.8515C42.7114 53.8484 41.906 53.0308 40.8951 53.0308C39.8841 53.0308 39.0787 53.8484 39.0787 54.8515C39.0787 55.8547 39.8841 56.6723 40.8951 56.6723C41.8943 56.6723 42.7114 55.8598 42.7114 54.8515Z" stroke="#167FC9" stroke-width="2"/>
<path d="M40.9773 59.2129V75.2701" stroke="#167FC9" stroke-width="2"/>
<path d="M11.1995 43.6934H4.81136C4.34489 43.6934 3.96912 43.3156 3.96912 42.8466V31.1603C3.96912 30.6913 4.34489 30.3135 4.81136 30.3135H8.11591C9.52055 30.3135 10.7216 29.3333 11.139 27.9921C11.4075 27.1293 11.7137 26.2847 12.0547 25.4605C12.4024 24.6193 12.7868 23.7965 13.2057 22.9951C13.8528 21.7573 13.696 20.2253 12.7111 19.235L10.3572 16.8684C10.0268 16.5361 10.0268 16.002 10.3572 15.6763L18.5659 7.41639C18.8964 7.08417 19.4276 7.08417 19.7516 7.41639L22.0875 9.76503C23.0806 10.7635 24.6275 10.9222 25.8733 10.2655C26.6615 9.85002 27.4704 9.46859 28.2971 9.12309C29.1182 8.77968 29.9595 8.47322 30.8191 8.2037C32.1529 7.78546 33.1239 6.58861 33.1239 5.19075V1.84683C33.1239 1.37782 33.4996 1 33.9661 1H45.5827C46.0492 1 46.4249 1.37782 46.4249 1.84683V5.18817C46.4249 6.59019 47.4016 7.78973 48.739 8.21034C49.5963 8.47995 50.4364 8.78735 51.2581 9.1296C52.0865 9.47578 52.8969 9.85803 53.6866 10.2735C54.9297 10.9275 56.4716 10.7666 57.4621 9.77074L59.8037 7.41639C60.1341 7.08417 60.6654 7.08417 60.9893 7.41639L69.2045 15.6763C69.5349 16.0085 69.5349 16.5427 69.2045 16.8684L66.8507 19.235C65.8658 20.2253 65.709 21.7573 66.356 22.9951C66.775 23.7965 67.1593 24.6193 67.5071 25.4605C67.8493 26.2877 68.1546 27.1353 68.4231 28.0013C68.8377 29.339 70.0363 30.3135 71.4368 30.3135H74.7504C75.2169 30.3135 75.5926 30.6913 75.5926 31.1603V42.8401C75.5926 43.3091 75.2169 43.6869 74.7504 43.6869H68.3623" stroke="#167FC9" stroke-width="2"/>
<path fill-rule="evenodd" clip-rule="evenodd" d="M21.572 27.0254L23.4898 38.4384C23.5092 38.6117 23.6129 38.757 23.8072 38.8632C23.9821 38.947 24.1959 38.9917 24.4357 38.9917C24.6819 38.9917 24.8892 38.947 25.0706 38.8632C25.265 38.757 25.3881 38.6117 25.4334 38.4384L27.6168 28.4786L29.7742 38.3993C29.8066 38.5837 29.9232 38.729 30.1111 38.8408C30.2861 38.9414 30.4999 38.9917 30.746 38.9917C30.9858 38.9917 31.1996 38.9414 31.3745 38.8408C31.5689 38.729 31.679 38.5837 31.7114 38.3993L33.6291 26.9528C33.6615 26.7851 33.6097 26.6566 33.4866 26.5448C33.3765 26.4442 33.2145 26.3883 33.0266 26.3771C32.8128 26.3659 32.6379 26.3995 32.4953 26.4721C32.3204 26.5727 32.2103 26.7069 32.1779 26.8801L30.7007 36.5437L28.5886 26.9137C28.4461 26.5504 28.1221 26.3771 27.6168 26.3771C27.1179 26.3771 26.794 26.556 26.6449 26.9137L24.5069 36.5437L23.0038 26.8131C22.9714 26.6622 22.8613 26.5448 22.6864 26.4721C22.5438 26.4106 22.3689 26.3771 22.1746 26.3939C21.9867 26.4051 21.8182 26.4665 21.6886 26.5727C21.5591 26.6901 21.5202 26.8354 21.572 27.0254Z" fill="#CA0503" stroke="#CA0503" stroke-width="0.3"/>
<path fill-rule="evenodd" clip-rule="evenodd" d="M36.0144 27.1875V38.483C36.0144 38.6395 36.0922 38.7625 36.2347 38.8631C36.3643 38.9469 36.5262 38.9917 36.7206 38.9917C36.8955 38.9917 37.0575 38.9469 37.1871 38.8631C37.349 38.7625 37.4333 38.6395 37.4333 38.483V28.4506L40.2192 38.388C40.3293 38.8072 40.6792 39.0084 41.2558 38.9917C41.8259 38.9917 42.1823 38.7904 42.3442 38.388L45.1042 28.4506V38.483C45.1042 38.6395 45.182 38.7625 45.3245 38.8631C45.4541 38.9469 45.616 38.9917 45.8104 38.9917C45.9853 38.9917 46.1473 38.9469 46.2769 38.8631C46.4389 38.7625 46.5231 38.6395 46.5231 38.483V27.1875C46.5231 26.9471 46.4 26.7571 46.1603 26.6118C45.9465 26.4832 45.6938 26.4106 45.3828 26.3994C45.0589 26.377 44.7803 26.4162 44.5341 26.5168C44.262 26.6397 44.0935 26.8018 44.0223 27.0086L41.2817 36.9349L38.5412 27.0086C38.4764 26.7906 38.3079 26.623 38.0293 26.5168C37.7702 26.4162 37.4851 26.3714 37.1612 26.3882C36.8372 26.4106 36.5716 26.4832 36.3578 26.6174C36.1245 26.7571 36.0144 26.9471 36.0144 27.1875Z" fill="#CA0503" stroke="#CA0503" stroke-width="0.3"/>
<path fill-rule="evenodd" clip-rule="evenodd" d="M50.5844 35.4602C50.565 35.1304 50.3512 34.8566 49.8264 34.8566C49.4376 34.8566 49.0813 35.0634 49.0813 35.4266C49.1526 37.9473 51.3295 38.9813 53.7331 38.9813C55.9618 38.9813 58.1581 37.8244 58.1581 35.3205C58.1581 32.7495 55.8776 32.2129 53.8756 31.7267C52.7224 31.4528 51.012 31.0727 51.012 29.6363C51.012 28.2893 52.2171 27.6019 53.4027 27.6019C54.679 27.6019 56.0007 28.1049 56.3246 29.4519C56.4283 29.899 56.8041 30.0052 57.1021 30.0052C57.6528 30.0052 57.8472 29.7649 57.7759 29.3345C57.3872 27.2274 55.6508 26.417 53.461 26.417C51.459 26.417 49.4247 27.4677 49.4247 29.7146C49.4247 32.2185 51.634 32.6992 53.5452 33.1854C54.7632 33.4816 56.4672 33.912 56.4672 35.4658C56.4672 36.9525 55.1196 37.7797 53.6877 37.7797C52.0162 37.7741 50.5973 36.8575 50.5844 35.4602Z" fill="#CA0503" stroke="#CA0503" stroke-width="0.3"/>
</svg>
