<svg width="29" height="28" viewBox="0 0 29 28" fill="none" xmlns="http://www.w3.org/2000/svg">
<path d="M27.9535 3.25294C27.8692 3.08669 27.6871 2.99322 27.5035 3.02194L25.2031 3.37656L25.5577 1.07611C25.5861 0.891989 25.4929 0.710457 25.3267 0.626182C25.1605 0.541908 24.9589 0.574021 24.8272 0.705804L22.1568 3.37616C22.0921 3.44096 22.0497 3.52466 22.0358 3.6152L21.6131 6.3573L20.0845 7.88591C17.9788 5.93099 15.2531 4.8588 12.3605 4.8588C9.32364 4.8588 6.47014 6.03985 4.32565 8.18434C2.18105 10.3289 1 13.1824 1 16.2193C1 19.2561 2.18105 22.1096 4.32554 24.2541C6.47008 26.3986 9.32358 27.5796 12.3604 27.5796C15.3972 27.5796 18.2508 26.3985 20.3952 24.2541C22.5397 22.1095 23.7208 19.256 23.7208 16.2192C23.7208 13.8035 22.9742 11.4977 21.5618 9.551C21.422 9.35833 21.1524 9.31547 20.96 9.4553C20.7674 9.59507 20.7245 9.86443 20.8643 10.0571C22.1693 11.8557 22.8591 13.9865 22.8591 16.2193C22.8591 22.0082 18.1494 26.7179 12.3604 26.7179C6.57142 26.7179 1.8617 22.0082 1.8617 16.2193C1.8617 10.4303 6.57142 5.72056 12.3604 5.72056C15.0228 5.72056 17.5321 6.70319 19.4746 8.4957L17.5051 10.4652C16.0889 9.19701 14.2749 8.50208 12.3603 8.50208C8.10502 8.50208 4.6431 11.9641 4.6431 16.2193C4.6431 20.4746 8.10502 23.9365 12.3603 23.9365C16.6156 23.9365 20.0775 20.4746 20.0775 16.2193C20.0775 14.7991 19.6892 13.4112 18.9545 12.2057C18.8307 12.0025 18.5656 11.9381 18.3624 12.0621C18.1592 12.1859 18.0949 12.451 18.2187 12.6542C18.8709 13.7246 19.2157 14.9574 19.2157 16.2194C19.2157 19.9995 16.1404 23.0749 12.3603 23.0749C8.5801 23.0749 5.50475 19.9995 5.50475 16.2194C5.50475 12.4392 8.5801 9.36384 12.3603 9.36384C14.045 9.36384 15.6423 9.96922 16.895 11.0754L14.9208 13.0495C14.1984 12.464 13.3042 12.1453 12.3603 12.1453C10.1139 12.1453 8.28626 13.9729 8.28626 16.2194C8.28626 18.4658 10.1139 20.2934 12.3603 20.2934C14.6067 20.2934 16.4343 18.4658 16.4343 16.2194C16.4343 15.8191 16.3764 15.4236 16.2622 15.0435C16.1938 14.8157 15.9535 14.6863 15.7256 14.7549C15.4977 14.8234 15.3685 15.0636 15.437 15.2915C15.527 15.5911 15.5726 15.9032 15.5726 16.2194C15.5726 17.9906 14.1315 19.4317 12.3603 19.4317C10.589 19.4317 9.14797 17.9906 9.14797 16.2194C9.14797 14.4481 10.589 13.007 12.3603 13.007C13.0735 13.007 13.7505 13.238 14.3069 13.6634L12.0556 15.9147C11.8873 16.083 11.8873 16.3558 12.0556 16.5241C12.1397 16.6082 12.25 16.6502 12.3602 16.6502C12.4705 16.6502 12.5808 16.6082 12.6649 16.5241L20.3937 8.79523C20.3963 8.79259 22.2221 6.96682 22.2221 6.96682L24.9642 6.54406C25.0548 6.53016 25.1385 6.48771 25.2033 6.42297L27.8736 3.75261C28.0056 3.62065 28.0377 3.41913 27.9535 3.25294ZM22.8658 3.88583L24.5054 2.24624L24.2834 3.68695L22.6437 5.32659L22.8658 3.88583ZM24.6938 5.71384L23.2531 5.93593L24.8928 4.29629L26.3333 4.0742L24.6938 5.71384Z" fill="#167FC9" stroke="#167FC9" stroke-width="0.4"/>
</svg>
