<svg width="34" height="35" viewBox="0 0 34 35" fill="none" xmlns="http://www.w3.org/2000/svg">
<path d="M21.9277 32.5868C23.6891 33.2514 25.2907 33.5838 26.6168 33.5838C27.9365 33.5838 28.9839 33.2546 29.6389 32.5986C29.8287 32.4099 30.0324 32.2169 30.2414 32.0175C31.5086 30.8147 32.944 29.451 32.8701 27.6489C32.8186 26.4043 32.0478 25.2015 30.5137 23.9686C25.9865 20.329 24.372 21.966 22.5023 23.8625L22.1646 24.2034C21.6029 24.7651 20.2339 24.0126 19.4684 23.5151C18.2527 22.725 16.7315 21.4193 14.9476 19.6354C9.48231 14.1702 10.0698 12.7304 10.3807 12.4195L10.7162 12.0872L10.7182 12.0852C12.6181 10.2143 14.2581 8.59931 10.6165 4.07046C9.38368 2.53637 8.17977 1.7645 6.93727 1.71304C5.13408 1.64872 3.77366 3.07346 2.56975 4.33954L2.55073 4.35958C2.35807 4.56261 2.17134 4.75939 1.98763 4.9431C0.667938 6.26171 0.671154 9.14336 1.99513 12.6543C3.45204 16.5158 6.32942 20.7182 10.0977 24.4864C13.8648 28.2536 18.0662 31.1309 21.9277 32.5868Z" stroke="#167FC9" stroke-width="1.5"/>
</svg>
