<svg width="175" height="190" viewBox="0 0 175 190" fill="none" xmlns="http://www.w3.org/2000/svg">
<path d="M0 20C0 8.95431 8.95431 0 20 0H155C166.046 0 175 8.95431 175 20V170C175 181.046 166.046 190 155 190H20C8.9543 190 0 181.046 0 170V20Z" fill="white"/>
<path d="M0 20C0 8.95431 8.95431 0 20 0H69C80.0457 0 89 8.95431 89 20V170C89 181.046 80.0457 190 69 190H20C8.95431 190 0 181.046 0 170V20Z" fill="#F5FCFD"/>
<path d="M97.4852 135.174V89.702C97.4852 88.6527 96.8127 87.9531 95.804 87.9531H48.7291C47.7203 87.9531 47.0479 88.6527 47.0479 89.702V135.174C47.0479 136.223 47.7203 136.923 48.7291 136.923H95.804C96.8127 136.923 97.4852 136.223 97.4852 135.174Z" stroke="#074C7D" stroke-width="2.98901" stroke-miterlimit="10" stroke-linecap="square" stroke-linejoin="round"/>
<path d="M78.8046 87.9531V98.5152H65.7283V87.9531" stroke="#074C7D" stroke-width="2.98901" stroke-miterlimit="10" stroke-linecap="round" stroke-linejoin="round"/>
<path d="M87.2108 126.361H80.6726" stroke="#074C7D" stroke-width="2.98901" stroke-miterlimit="10" stroke-linecap="square" stroke-linejoin="round"/>
<path d="M40 149.081V138.622C40 137.576 40.6783 136.879 41.6957 136.879H116.308" stroke="#074C7D" stroke-width="2.98901" stroke-miterlimit="10" stroke-linecap="square" stroke-linejoin="round"/>
<path d="M126.655 136.877H145.308C146.325 136.877 147.003 137.574 147.003 138.62V149.079" stroke="#074C7D" stroke-width="2.98901" stroke-miterlimit="10" stroke-linecap="square" stroke-linejoin="round"/>
<path d="M116.309 98.5273V136.878" stroke="#074C7D" stroke-width="2.98901" stroke-miterlimit="10" stroke-linecap="round" stroke-linejoin="round"/>
<path d="M126.483 89.8105V136.877" stroke="#074C7D" stroke-width="2.98901" stroke-miterlimit="10" stroke-linecap="round" stroke-linejoin="round"/>
<path d="M126.26 67.8908C128.133 67.8908 129.652 66.3299 129.652 64.4044C129.652 62.4789 128.133 60.918 126.26 60.918C124.387 60.918 122.869 62.4789 122.869 64.4044C122.869 66.3299 124.387 67.8908 126.26 67.8908Z" fill="#167FC9"/>
<path d="M117.781 55.6895L126.26 64.4055" stroke="#167FC9" stroke-width="2.98901" stroke-miterlimit="10" stroke-linecap="round" stroke-linejoin="round"/>
<path d="M126.26 88.8101C139.371 88.8101 150 77.8836 150 64.4051C150 50.9265 139.371 40 126.26 40C113.149 40 102.52 50.9265 102.52 64.4051C102.52 77.8836 113.149 88.8101 126.26 88.8101Z" stroke="#167FC9" stroke-width="2.98901" stroke-miterlimit="10" stroke-linejoin="round"/>
</svg>
