<svg width="175" height="190" viewBox="0 0 175 190" fill="none" xmlns="http://www.w3.org/2000/svg">
<path d="M0 20C0 8.95431 8.95431 0 20 0H155C166.046 0 175 8.95431 175 20V170C175 181.046 166.046 190 155 190H20C8.9543 190 0 181.046 0 170V20Z" fill="white"/>
<path d="M0 20C0 8.95431 8.95431 0 20 0H69C80.0457 0 89 8.95431 89 20V170C89 181.046 80.0457 190 69 190H20C8.95431 190 0 181.046 0 170V20Z" fill="#F5FCFD"/>
<path d="M105.833 56.673C105.833 51.7246 102.475 47.6598 97.88 46.4227C96.2894 46.0692 95.229 44.6553 95.229 43.0648V39" stroke="#074C7D" stroke-width="2.98901" stroke-miterlimit="10" stroke-linecap="round" stroke-linejoin="round"/>
<path d="M84.7788 56.8613C84.7788 62.7507 89.5974 67.5693 95.4868 67.5693" stroke="#074C7D" stroke-width="2.98901" stroke-miterlimit="10" stroke-linecap="round" stroke-linejoin="round"/>
<path d="M95.4866 59.7812L137.345 74.383" stroke="#074C7D" stroke-width="2.98901" stroke-miterlimit="10" stroke-linecap="round" stroke-linejoin="round"/>
<path d="M52.6548 74.3841L80.8849 65.623" stroke="#074C7D" stroke-width="2.98901" stroke-miterlimit="10" stroke-linecap="round" stroke-linejoin="round"/>
<path d="M95.4866 39.3398V41.2867" stroke="#074C7D" stroke-width="2.98901" stroke-miterlimit="10" stroke-linejoin="round"/>
<path d="M150 85.0918H40V150.313H150V85.0918Z" stroke="#074C7D" stroke-width="2.98901" stroke-miterlimit="10" stroke-linecap="round" stroke-linejoin="round"/>
<path d="M91.6946 99.2656H95.2292V136.379H98.7638" stroke="#074C7D" stroke-width="2.98901" stroke-miterlimit="10" stroke-linecap="square" stroke-linejoin="round"/>
<path d="M74.0215 99.2656H77.5561V136.379H81.0907" stroke="#074C7D" stroke-width="2.98901" stroke-miterlimit="10" stroke-linecap="square" stroke-linejoin="round"/>
<path d="M56.3486 99.2656H59.8832V136.379H63.4178" stroke="#074C7D" stroke-width="2.98901" stroke-miterlimit="10" stroke-linecap="square" stroke-linejoin="round"/>
<path d="M127.041 99.2656H130.575V136.379H134.11" stroke="#167FC9" stroke-width="2.98901" stroke-miterlimit="10" stroke-linecap="square" stroke-linejoin="round"/>
<path d="M109.368 99.2656H112.902V136.379H116.437" stroke="#167FC9" stroke-width="2.98901" stroke-miterlimit="10" stroke-linecap="square" stroke-linejoin="round"/>
<path d="M47.7876 85.0927V79.7387C47.7876 76.8833 50.2861 74.3848 53.1416 74.3848C55.997 74.3848 58.4956 76.8833 58.4956 79.7387V85.0927" stroke="#074C7D" stroke-width="2.98901" stroke-miterlimit="10" stroke-linecap="round" stroke-linejoin="round"/>
<path d="M132.478 85.0927V79.7387C132.478 76.8833 134.976 74.3848 137.832 74.3848C140.687 74.3848 143.186 76.8833 143.186 79.7387V85.0927" stroke="#074C7D" stroke-width="2.98901" stroke-miterlimit="10" stroke-linecap="round" stroke-linejoin="round"/>
</svg>
