<svg width="175" height="190" viewBox="0 0 175 190" fill="none" xmlns="http://www.w3.org/2000/svg">
<path d="M0 20C0 8.95431 8.95431 0 20 0H155C166.046 0 175 8.95431 175 20V170C175 181.046 166.046 190 155 190H20C8.9543 190 0 181.046 0 170V20Z" fill="white"/>
<path d="M0 20C0 8.95431 8.95431 0 20 0H69C80.0457 0 89 8.95431 89 20V170C89 181.046 80.0457 190 69 190H20C8.95431 190 0 181.046 0 170V20Z" fill="#F5FCFD"/>
<path d="M139.966 71.0605V116.809M92.2664 138.836V90.4519" stroke="#074C7D" stroke-width="2.98901" stroke-miterlimit="10" stroke-linecap="round" stroke-linejoin="round"/>
<path d="M42.7996 76.709V118.641L92.266 138.837" stroke="#074C7D" stroke-width="2.98901" stroke-miterlimit="10" stroke-linecap="round" stroke-linejoin="round"/>
<path d="M42.7996 46.5893L97.3832 40L141.732 46.5893" stroke="#074C7D" stroke-width="2.98901" stroke-miterlimit="10" stroke-linecap="round" stroke-linejoin="round"/>
<path d="M141.161 46.5898L92.2664 57.0789L99.0104 83.3017L144.533 69.3162L141.161 46.5898Z" stroke="#074C7D" stroke-width="2.98901" stroke-miterlimit="10" stroke-linecap="round" stroke-linejoin="round"/>
<path d="M43.372 46.5898L92.2664 57.0789L85.5224 83.3017L40 69.3162L43.372 46.5898Z" stroke="#074C7D" stroke-width="2.98901" stroke-miterlimit="10" stroke-linecap="round" stroke-linejoin="round"/>
<path d="M75.2163 111.766L78.6052 110.057L81.9942 113.475" stroke="#074C7D" stroke-width="2.98901" stroke-miterlimit="10" stroke-linecap="round" stroke-linejoin="round"/>
<path d="M78.6055 110.057V124.076" stroke="#074C7D" stroke-width="2.98901" stroke-miterlimit="10" stroke-linecap="round" stroke-linejoin="round"/>
<path d="M61.6614 106.645L65.0503 104.936L68.4392 108.354" stroke="#074C7D" stroke-width="2.98901" stroke-miterlimit="10" stroke-linecap="round" stroke-linejoin="round"/>
<path d="M65.0498 104.936V118.013" stroke="#074C7D" stroke-width="2.98901" stroke-miterlimit="10" stroke-linecap="round" stroke-linejoin="round"/>
<path d="M93.9351 91.1406H144.164V143.246H93.9351V91.1406Z" fill="white"/>
<path d="M147.273 127.759H145.455V112.93C145.455 110.883 143.827 109.223 141.818 109.223H140.909V100.882C140.909 99.3465 139.688 98.1017 138.182 98.1017H132.56C132.176 96.9948 131.152 96.253 130 96.2481H124.378C123.994 95.1412 122.97 94.3994 121.818 94.3945H107.273C105.767 94.3945 104.545 95.6394 104.545 97.1749V109.307C101.924 109.761 100.005 112.073 100 114.784V144.441C100.003 147.511 102.443 149.999 105.455 150.002H141.818C143.827 150.002 145.455 148.342 145.455 146.295V140.734H147.273C148.779 140.734 150 139.489 150 137.954V130.54C150 129.004 148.779 127.759 147.273 127.759ZM141.818 111.077C142.822 111.077 143.636 111.907 143.636 112.93V119.006C142.802 118.551 141.849 118.371 140.909 118.491V111.077H141.818ZM132.727 118.491V112.198C135.924 112.718 138.449 115.242 139.02 118.491H132.727ZM106.435 118.491C106.94 114.84 110.381 112.004 114.545 112.004C118.71 112.004 122.151 114.84 122.656 118.491H106.435ZM124.545 112.198C127.743 112.718 130.267 115.242 130.838 118.491H124.545V112.198ZM139.091 100.882V103.662C137.083 103.662 135.455 102.003 135.455 99.9553H138.182C138.684 99.9553 139.091 100.37 139.091 100.882ZM139.091 105.516V114.084C137.513 112.053 135.24 110.705 132.727 110.311V99.9553H133.636C133.639 103.025 136.08 105.513 139.091 105.516ZM130 98.1017C130.502 98.1017 130.909 98.5167 130.909 99.0285V101.809C128.901 101.809 127.273 100.149 127.273 98.1017H130ZM130.909 103.662V114.084C129.331 112.053 127.058 110.705 124.545 110.311V98.1017H125.455C125.458 101.172 127.898 103.659 130.909 103.662ZM121.818 96.2481C122.32 96.2481 122.727 96.6631 122.727 97.1749V99.9553C120.719 99.9553 119.091 98.2955 119.091 96.2481H121.818ZM106.364 97.1749C106.364 96.6631 106.771 96.2481 107.273 96.2481H110C110 98.2955 108.372 99.9553 106.364 99.9553V97.1749ZM111.818 96.2481H117.273C117.276 99.318 119.716 101.806 122.727 101.809V114.107C120.719 111.605 117.716 110.155 114.545 110.155C111.375 110.155 108.372 111.605 106.364 114.107V101.809C109.375 101.806 111.815 99.318 111.818 96.2481ZM104.545 111.208V118.36C102.942 117.943 101.819 116.471 101.819 114.784C101.819 113.097 102.942 111.625 104.545 111.208ZM143.636 146.295C143.636 147.319 142.822 148.149 141.818 148.149H105.455C103.446 148.149 101.818 146.489 101.818 144.441V118.926C102.817 119.84 104.112 120.346 105.455 120.345H141.818C142.822 120.345 143.636 121.175 143.636 122.198V127.759H137.273C133.758 127.759 130.909 130.664 130.909 134.247C130.909 137.83 133.758 140.734 137.273 140.734H143.636V146.295ZM148.182 137.954C148.182 138.466 147.775 138.881 147.273 138.881H137.273C134.762 138.881 132.727 136.806 132.727 134.247C132.727 131.687 134.762 129.613 137.273 129.613H147.273C147.775 129.613 148.182 130.028 148.182 130.54V137.954Z" fill="#167FC9" stroke="#167FC9" stroke-width="0.4"/>
<path d="M137.862 132.045C136.425 132.045 135.26 133.221 135.26 134.673C135.26 136.124 136.425 137.3 137.862 137.3C139.298 137.3 140.463 136.124 140.463 134.673C140.463 133.221 139.298 132.045 137.862 132.045ZM137.862 135.549C137.383 135.549 136.995 135.156 136.995 134.673C136.995 134.189 137.383 133.797 137.862 133.797C138.34 133.797 138.729 134.189 138.729 134.673C138.729 135.156 138.34 135.549 137.862 135.549Z" fill="#167FC9" stroke="#167FC9" stroke-width="0.4"/>
<path d="M108.383 123.287H106.649C106.17 123.287 105.781 123.679 105.781 124.163C105.781 124.647 106.17 125.039 106.649 125.039H108.383C108.861 125.039 109.25 124.647 109.25 124.163C109.25 123.679 108.861 123.287 108.383 123.287Z" fill="#167FC9" stroke="#167FC9" stroke-width="0.4"/>
</svg>
