<svg width="175" height="190" viewBox="0 0 175 190" fill="none" xmlns="http://www.w3.org/2000/svg">
<path d="M0 20C0 8.95431 8.95431 0 20 0H155C166.046 0 175 8.95431 175 20V170C175 181.046 166.046 190 155 190H20C8.9543 190 0 181.046 0 170V20Z" fill="white"/>
<path d="M0 20C0 8.95431 8.95431 0 20 0H69C80.0457 0 89 8.95431 89 20V170C89 181.046 80.0457 190 69 190H20C8.95431 190 0 181.046 0 170V20Z" fill="#F5FCFD"/>
<path d="M137.413 89.8753L137.414 89.8761C137.748 90.2095 137.94 90.6739 137.94 91.1451C137.94 91.6162 137.747 92.0807 137.414 92.4142L137.414 92.4142C137.081 92.7476 136.616 92.9402 136.145 92.9402C135.674 92.9402 135.209 92.7476 134.876 92.4142L134.876 92.4141C134.542 92.0807 134.35 91.6164 134.35 91.1451C134.35 90.6719 134.542 90.2096 134.876 89.876L134.877 89.8753C135.209 89.541 135.673 89.35 136.145 89.35C136.617 89.35 137.081 89.541 137.413 89.8753Z" fill="#074C7D" stroke="white" stroke-width="0.7"/>
<path d="M133.955 109.369H134.305V109.019V99.5855C134.305 98.5941 135.109 97.7904 136.1 97.7904C137.091 97.7904 137.895 98.5942 137.895 99.5855V121.085C137.895 124.174 135.377 126.688 132.281 126.688H99.6379H99.2879V127.038V136.947V137.264L99.6026 137.295C104.837 137.826 108.936 142.26 108.936 147.631C108.936 148.622 108.132 149.426 107.141 149.426H71.1037C70.1125 149.426 69.3087 148.622 69.3087 147.631C69.3087 142.259 73.4079 137.826 78.6425 137.295L78.9573 137.264V136.947V127.038V126.688H78.6073H45.9644C42.8685 126.688 40.35 124.174 40.35 121.085V57.4847C40.35 54.3958 42.8685 51.8812 45.9644 51.8812H90.5526C91.5438 51.8812 92.3477 52.6849 92.3477 53.6763C92.3477 54.6677 91.5438 55.4714 90.5526 55.4714H45.9644C44.85 55.4714 43.9402 56.372 43.9402 57.4847V109.02V109.37L44.2902 109.37L133.955 109.369ZM73.2855 145.369L73.1204 145.836H73.6154H104.629H105.124L104.959 145.369C104.025 142.729 101.505 140.832 98.5473 140.832H97.4928H80.7523H79.6974C76.7396 140.832 74.2192 142.73 73.2855 145.369ZM82.8974 126.688H82.5474V127.038V136.892V137.242H82.8974H95.3477H95.6977V136.892V127.038V126.688H95.3477H82.8974ZM134.305 113.31V112.96H133.955H44.2902H43.9402V113.31V121.085C43.9402 122.197 44.85 123.098 45.9644 123.098H132.281C133.395 123.098 134.305 122.197 134.305 121.085V113.31Z" fill="#074C7D" stroke="white" stroke-width="0.7"/>
<path d="M120.012 50.434H136.1C137.091 50.434 137.895 51.2377 137.895 52.2291C137.895 53.2205 137.091 54.0242 136.1 54.0242H120.012C119.021 54.0242 118.217 53.2205 118.217 52.2291C118.217 51.2377 119.021 50.434 120.012 50.434Z" fill="#167FC9" stroke="white" stroke-width="0.7"/>
<path d="M112.486 50.9599L112.486 50.96C112.819 51.2935 113.012 51.7579 113.012 52.2291C113.012 52.7002 112.819 53.1647 112.486 53.4982L112.486 53.4982C112.152 53.8316 111.688 54.0242 111.217 54.0242C110.746 54.0242 110.281 53.8316 109.948 53.4981C109.614 53.1647 109.422 52.7004 109.422 52.2291C109.422 51.7579 109.614 51.2934 109.948 50.96C110.281 50.6265 110.746 50.434 111.217 50.434C111.688 50.434 112.152 50.6266 112.486 50.9599Z" fill="#167FC9" stroke="white" stroke-width="0.7"/>
<path d="M111.337 59.5707H136.22C137.211 59.5707 138.015 60.3744 138.015 61.3658C138.015 62.3572 137.211 63.1609 136.22 63.1609H111.337C110.346 63.1609 109.542 62.3572 109.542 61.3658C109.542 60.3744 110.346 59.5707 111.337 59.5707Z" fill="#167FC9" stroke="white" stroke-width="0.7"/>
<path d="M111.217 69.3109H136.1C137.091 69.3109 137.895 70.1146 137.895 71.106C137.895 72.0974 137.091 72.9011 136.1 72.9011H111.217C110.226 72.9011 109.422 72.0974 109.422 71.106C109.422 70.1146 110.226 69.3109 111.217 69.3109Z" fill="#167FC9" stroke="white" stroke-width="0.7"/>
<path d="M107.52 84.3348V84.0223L107.209 83.9871C102.04 83.4015 98.0099 79.0008 98.0099 73.6778V50.7254C98.0099 45.0047 102.665 40.35 108.385 40.35H139.275C144.995 40.35 149.65 45.0047 149.65 50.7254V73.6778C149.65 79.3985 144.995 84.0533 139.275 84.0533H117.854H117.709L117.606 84.1558L110.584 91.1783C110.584 91.1783 110.584 91.1784 110.584 91.1784C110.241 91.5216 109.782 91.7042 109.314 91.7042C109.083 91.7042 108.85 91.6595 108.628 91.5674L108.628 91.5674C107.957 91.2895 107.52 90.6348 107.52 89.9089V84.3348ZM111.11 84.7304V85.5754L111.707 84.9779L115.696 80.989C115.696 80.9889 115.696 80.9889 115.696 80.9889C116.033 80.6523 116.49 80.4631 116.966 80.4631H139.275C143.016 80.4631 146.06 77.4195 146.06 73.6778V50.7254C146.06 46.9837 143.016 43.9402 139.275 43.9402H108.385C104.644 43.9402 101.6 46.9837 101.6 50.7254V73.6778C101.6 77.4195 104.644 80.4631 108.385 80.4631H109.315C110.306 80.4631 111.11 81.2668 111.11 82.2582V84.7304Z" fill="#167FC9" stroke="white" stroke-width="0.7"/>
<path d="M90.4139 115.876L90.414 115.876C90.7476 116.209 90.9402 116.674 90.9402 117.145C90.9402 117.618 90.7476 118.081 90.414 118.414L90.4132 118.415C90.0809 118.749 89.6171 118.94 89.1451 118.94C88.6731 118.94 88.2093 118.749 87.8767 118.415L87.8759 118.414C87.5423 118.081 87.35 117.618 87.35 117.145C87.35 116.675 87.5421 116.212 87.8763 115.876C88.2097 115.542 88.674 115.35 89.1451 115.35C89.6163 115.35 90.0807 115.543 90.4139 115.876Z" fill="#074C7D" stroke="white" stroke-width="0.7"/>
</svg>
