<svg width="176" height="47" viewBox="0 0 176 47" fill="none" xmlns="http://www.w3.org/2000/svg">
<path d="M13.6362 35.8159H5.6499L3.979 40.6162H0.254883L8.04297 19.999H11.2573L19.0596 40.6162H15.3213L13.6362 35.8159ZM6.65527 32.9272H12.6309L9.64307 24.3745L6.65527 32.9272ZM34.3525 25.2949V40.6162H30.9116V28.0703H26.5786L26.2954 33.4087C26.116 35.9764 25.6204 37.8219 24.8086 38.9453C24.0062 40.0592 22.7743 40.6162 21.1128 40.6162H20.0508L20.0366 37.7559L20.7446 37.6851C21.4998 37.5812 22.0474 37.1234 22.3872 36.3115C22.7365 35.4902 22.9583 33.9987 23.0527 31.8369L23.3359 25.2949H34.3525ZM41.7158 30.166H45.0859C46.3415 30.166 47.4365 30.3831 48.3711 30.8174C49.3057 31.2516 50.0137 31.8605 50.4951 32.644C50.986 33.4276 51.2314 34.3385 51.2314 35.377C51.2314 36.9535 50.6745 38.2184 49.5605 39.1719C48.4466 40.1253 46.9645 40.6068 45.1143 40.6162H38.2749V25.2949H41.7158V30.166ZM41.7158 32.9272V37.8691H45.0718C45.9119 37.8691 46.5728 37.6615 47.0542 37.2461C47.5451 36.8213 47.7905 36.2218 47.7905 35.4478C47.7905 34.6737 47.5498 34.0648 47.0684 33.6211C46.5964 33.168 45.9544 32.9367 45.1426 32.9272H41.7158ZM53.4121 33.168C53.4121 30.6663 53.903 28.6839 54.8848 27.2207C55.876 25.748 57.2542 25.0117 59.0195 25.0117C59.737 25.0117 60.3883 25.1439 60.9736 25.4082V18.8662H64.4004V25.4648C65.0046 25.1628 65.7126 25.0117 66.5244 25.0117C68.2803 25.0117 69.6538 25.7433 70.645 27.2065C71.6457 28.6603 72.146 30.7466 72.146 33.4653C72.146 35.7593 71.6457 37.5718 70.645 38.9028C69.6444 40.2339 68.2803 40.8994 66.5527 40.8994C65.7692 40.8994 65.0518 40.7578 64.4004 40.4746V46.5068H60.9736V40.5312C60.3978 40.7767 59.737 40.8994 58.9912 40.8994C57.3392 40.8994 56.0176 40.2905 55.0264 39.0728C54.0446 37.8455 53.5112 36.1605 53.4263 34.0176L53.4121 33.168ZM68.7051 33.168C68.7051 31.4499 68.4313 30.1235 67.8838 29.189C67.3363 28.245 66.5622 27.7729 65.5615 27.7729C65.1367 27.7729 64.7497 27.8343 64.4004 27.957V38.0107C64.7119 38.1051 65.1084 38.1523 65.5898 38.1523C67.6667 38.1523 68.7051 36.4909 68.7051 33.168ZM56.8389 33.4653C56.8389 34.9946 57.0938 36.1605 57.6035 36.9629C58.1133 37.7559 58.8685 38.1523 59.8691 38.1523C60.2939 38.1523 60.6621 38.1051 60.9736 38.0107V27.9146C60.6527 27.8201 60.2939 27.7729 59.8975 27.7729C58.9157 27.7729 58.1605 28.2308 57.6318 29.1465C57.1032 30.0527 56.8389 31.4924 56.8389 33.4653ZM84.2671 40.6162C84.116 40.3236 83.9839 39.8468 83.8706 39.186C82.7756 40.3283 81.4351 40.8994 79.8491 40.8994C78.3104 40.8994 77.0549 40.4604 76.0825 39.5825C75.1102 38.7046 74.624 37.619 74.624 36.3257C74.624 34.6925 75.2282 33.4417 76.4365 32.5732C77.6543 31.6953 79.3913 31.2563 81.6475 31.2563H83.7573V30.251C83.7573 29.458 83.5355 28.8255 83.0918 28.3535C82.6481 27.8721 81.9731 27.6313 81.0669 27.6313C80.2834 27.6313 79.6414 27.8296 79.1411 28.2261C78.6408 28.6131 78.3906 29.1087 78.3906 29.7129H74.9497C74.9497 28.8727 75.2282 28.0892 75.7852 27.3623C76.3421 26.626 77.0973 26.0501 78.0508 25.6348C79.0137 25.2194 80.0851 25.0117 81.2651 25.0117C83.0588 25.0117 84.4889 25.4648 85.5557 26.3711C86.6224 27.2679 87.1699 28.5329 87.1982 30.166V37.0762C87.1982 38.4544 87.3918 39.5542 87.7788 40.3755V40.6162H84.2671ZM80.4863 38.1382C81.166 38.1382 81.8032 37.973 82.3979 37.6426C83.0021 37.3122 83.4552 36.8685 83.7573 36.3115V33.4229H81.9023C80.6279 33.4229 79.6698 33.6447 79.0278 34.0884C78.3859 34.5321 78.0649 35.1598 78.0649 35.9717C78.0649 36.6325 78.2821 37.1611 78.7163 37.5576C79.16 37.9447 79.75 38.1382 80.4863 38.1382ZM112.403 22.8877H105.975V40.6162H102.42V22.8877H96.0483V19.999H112.403V22.8877ZM126.932 33.1113C126.932 35.4808 126.394 37.3735 125.317 38.7896C124.241 40.1961 122.797 40.8994 120.984 40.8994C119.304 40.8994 117.959 40.3472 116.949 39.2427V46.5068H113.508V25.2949H116.68L116.821 26.8525C117.831 25.6253 119.205 25.0117 120.942 25.0117C122.811 25.0117 124.274 25.7103 125.332 27.1074C126.398 28.4951 126.932 30.4256 126.932 32.8989V33.1113ZM123.505 32.814C123.505 31.2847 123.198 30.0716 122.584 29.1748C121.98 28.278 121.112 27.8296 119.979 27.8296C118.572 27.8296 117.562 28.4102 116.949 29.5713V36.3682C117.572 37.5576 118.591 38.1523 120.007 38.1523C121.102 38.1523 121.957 37.7134 122.57 36.8354C123.193 35.9481 123.505 34.6076 123.505 32.814ZM139.01 40.6162C138.859 40.3236 138.727 39.8468 138.614 39.186C137.519 40.3283 136.178 40.8994 134.592 40.8994C133.054 40.8994 131.798 40.4604 130.826 39.5825C129.853 38.7046 129.367 37.619 129.367 36.3257C129.367 34.6925 129.971 33.4417 131.18 32.5732C132.397 31.6953 134.134 31.2563 136.391 31.2563H138.5V30.251C138.5 29.458 138.279 28.8255 137.835 28.3535C137.391 27.8721 136.716 27.6313 135.81 27.6313C135.027 27.6313 134.385 27.8296 133.884 28.2261C133.384 28.6131 133.134 29.1087 133.134 29.7129H129.693C129.693 28.8727 129.971 28.0892 130.528 27.3623C131.085 26.626 131.84 26.0501 132.794 25.6348C133.757 25.2194 134.828 25.0117 136.008 25.0117C137.802 25.0117 139.232 25.4648 140.299 26.3711C141.366 27.2679 141.913 28.5329 141.941 30.166V37.0762C141.941 38.4544 142.135 39.5542 142.522 40.3755V40.6162H139.01ZM135.229 38.1382C135.909 38.1382 136.546 37.973 137.141 37.6426C137.745 37.3122 138.198 36.8685 138.5 36.3115V33.4229H136.646C135.371 33.4229 134.413 33.6447 133.771 34.0884C133.129 34.5321 132.808 35.1598 132.808 35.9717C132.808 36.6325 133.025 37.1611 133.459 37.5576C133.903 37.9447 134.493 38.1382 135.229 38.1382ZM158.523 40.6162H155.082V34.4282H149.121V40.6162H145.68V25.2949H149.121V31.6812H155.082V25.2949H158.523V40.6162ZM168.492 38.1523C169.351 38.1523 170.063 37.9022 170.63 37.4019C171.196 36.9015 171.498 36.2832 171.536 35.5469H174.779C174.741 36.5003 174.444 37.3924 173.887 38.2231C173.33 39.0444 172.575 39.6958 171.621 40.1772C170.668 40.6587 169.639 40.8994 168.534 40.8994C166.391 40.8994 164.692 40.2056 163.437 38.8179C162.181 37.4302 161.553 35.5138 161.553 33.0688V32.7148C161.553 30.3831 162.176 28.5187 163.422 27.1216C164.668 25.715 166.368 25.0117 168.52 25.0117C170.342 25.0117 171.824 25.5451 172.966 26.6118C174.118 27.6691 174.722 29.0615 174.779 30.7891H171.536C171.498 29.9111 171.196 29.189 170.63 28.6226C170.073 28.0562 169.36 27.7729 168.492 27.7729C167.378 27.7729 166.519 28.1789 165.915 28.9907C165.31 29.7931 165.004 31.0156 164.994 32.6582V33.2104C164.994 34.8719 165.292 36.1133 165.886 36.9346C166.49 37.7464 167.359 38.1523 168.492 38.1523Z" fill="black"/>
<path d="M9.1626 2.33594V13H8.26172V3.10498H3.75732L3.5083 7.51416C3.41064 9.09131 3.25928 10.2388 3.0542 10.9565C2.854 11.6694 2.56592 12.187 2.18994 12.5093C1.81885 12.8267 1.31348 12.9902 0.673828 13H0.292969V12.2383L0.585938 12.231C1.08887 12.2065 1.46729 12.0479 1.72119 11.7549C1.9751 11.4619 2.17041 10.9883 2.30713 10.334C2.44873 9.6748 2.55859 8.65918 2.63672 7.28711L2.90039 2.33594H9.1626ZM11.1914 8.92041C11.1914 8.15869 11.3379 7.47266 11.6309 6.8623C11.9287 6.25195 12.3462 5.77832 12.8833 5.44141C13.4253 5.09961 14.0381 4.92871 14.7217 4.92871C15.7764 4.92871 16.6309 5.2998 17.2852 6.04199C17.9395 6.7793 18.2666 7.7583 18.2666 8.979V9.16211C18.2666 9.92871 18.1177 10.6196 17.8198 11.2349C17.5269 11.8452 17.1118 12.3164 16.5747 12.6484C16.0376 12.9805 15.4248 13.1465 14.7363 13.1465C13.6865 13.1465 12.832 12.7778 12.1729 12.0405C11.5186 11.2983 11.1914 10.3169 11.1914 9.09619V8.92041ZM12.0703 9.16211C12.0703 10.1094 12.3145 10.8882 12.8027 11.4985C13.2959 12.104 13.9404 12.4067 14.7363 12.4067C15.5273 12.4067 16.167 12.104 16.6553 11.4985C17.1484 10.8882 17.395 10.085 17.395 9.08887V8.92041C17.395 8.31494 17.2827 7.76074 17.0581 7.25781C16.8335 6.75488 16.5186 6.3667 16.1133 6.09326C15.708 5.81494 15.2441 5.67578 14.7217 5.67578C13.9404 5.67578 13.3032 5.9834 12.8101 6.59863C12.3169 7.20898 12.0703 8.00977 12.0703 9.00098V9.16211ZM25.0195 5.82959H21.0132V13H20.1343V5.0752H25.0195V5.82959ZM31.6187 5.0752H32.4976V13H31.6187V6.48877L27.3413 13H26.4697V5.0752H27.3413V11.5938L31.6187 5.0752ZM37.7783 12.4067C38.3887 12.4067 38.8989 12.2358 39.3091 11.894C39.7241 11.5474 39.9487 11.1006 39.9829 10.5537H40.8252C40.8008 11.0371 40.6494 11.479 40.3711 11.8794C40.0928 12.2749 39.7217 12.585 39.2578 12.8096C38.7988 13.0342 38.3057 13.1465 37.7783 13.1465C36.7383 13.1465 35.9131 12.7852 35.3027 12.0625C34.6973 11.3398 34.3945 10.3682 34.3945 9.14746V8.88379C34.3945 8.10254 34.5312 7.41162 34.8047 6.81104C35.0781 6.21045 35.4688 5.74658 35.9766 5.41943C36.4893 5.09229 37.0874 4.92871 37.771 4.92871C38.6401 4.92871 39.3555 5.1875 39.917 5.70508C40.4834 6.22266 40.7861 6.90381 40.8252 7.74854H39.9829C39.9438 7.12842 39.7192 6.62793 39.3091 6.24707C38.9038 5.86621 38.3911 5.67578 37.771 5.67578C36.98 5.67578 36.3647 5.96143 35.9253 6.53271C35.4907 7.104 35.2734 7.90479 35.2734 8.93506V9.19141C35.2734 10.2021 35.4907 10.9907 35.9253 11.5571C36.3647 12.1235 36.9824 12.4067 37.7783 12.4067ZM48.2739 5.82227H45.3882V13H44.5093V5.82227H41.7334V5.0752H48.2739V5.82227ZM54.9243 5.0752H55.8032V13H54.9243V6.48877L50.647 13H49.7754V5.0752H50.647V11.5938L54.9243 5.0752ZM63.7939 13H62.915V9.66748C62.1924 9.93115 61.5015 10.063 60.8423 10.063C59.7925 10.063 59.0308 9.8335 58.5571 9.37451C58.0835 8.91064 57.8369 8.19043 57.8174 7.21387V5.0752H58.689V7.16992C58.6987 7.92676 58.8647 8.47363 59.187 8.81055C59.5142 9.14258 60.0659 9.30859 60.8423 9.30859C61.5503 9.28906 62.2412 9.16211 62.915 8.92773V5.0752H63.7939V13ZM69.2065 13.1465C68.5327 13.1465 67.9224 12.9805 67.3755 12.6484C66.8335 12.3164 66.4111 11.855 66.1084 11.2642C65.8057 10.6685 65.6543 10.002 65.6543 9.26465V8.94971C65.6543 8.18799 65.8008 7.50195 66.0938 6.8916C66.3916 6.28125 66.8042 5.80273 67.3315 5.45605C67.8589 5.10449 68.4302 4.92871 69.0454 4.92871C70.0073 4.92871 70.769 5.2583 71.3306 5.91748C71.897 6.57178 72.1802 7.46777 72.1802 8.60547V9.09619H66.5259V9.26465C66.5259 10.1631 66.7822 10.9126 67.2949 11.5132C67.8125 12.1089 68.4619 12.4067 69.2432 12.4067C69.7119 12.4067 70.1245 12.3213 70.481 12.1504C70.8423 11.9795 71.1694 11.7061 71.4624 11.3301L72.0117 11.7476C71.3672 12.6802 70.4321 13.1465 69.2065 13.1465ZM69.0454 5.67578C68.3862 5.67578 67.8296 5.91748 67.3755 6.40088C66.9263 6.88428 66.6528 7.53369 66.5552 8.34912H71.3086V8.25391C71.2842 7.49219 71.0669 6.87207 70.6567 6.39355C70.2466 5.91504 69.7095 5.67578 69.0454 5.67578ZM76.8164 12.4067C77.4268 12.4067 77.937 12.2358 78.3472 11.894C78.7622 11.5474 78.9868 11.1006 79.021 10.5537H79.8633C79.8389 11.0371 79.6875 11.479 79.4092 11.8794C79.1309 12.2749 78.7598 12.585 78.2959 12.8096C77.8369 13.0342 77.3438 13.1465 76.8164 13.1465C75.7764 13.1465 74.9512 12.7852 74.3408 12.0625C73.7354 11.3398 73.4326 10.3682 73.4326 9.14746V8.88379C73.4326 8.10254 73.5693 7.41162 73.8428 6.81104C74.1162 6.21045 74.5068 5.74658 75.0146 5.41943C75.5273 5.09229 76.1255 4.92871 76.8091 4.92871C77.6782 4.92871 78.3936 5.1875 78.9551 5.70508C79.5215 6.22266 79.8242 6.90381 79.8633 7.74854H79.021C78.9819 7.12842 78.7573 6.62793 78.3472 6.24707C77.9419 5.86621 77.4292 5.67578 76.8091 5.67578C76.0181 5.67578 75.4028 5.96143 74.9634 6.53271C74.5288 7.104 74.3115 7.90479 74.3115 8.93506V9.19141C74.3115 10.2021 74.5288 10.9907 74.9634 11.5571C75.4028 12.1235 76.0205 12.4067 76.8164 12.4067ZM83.7744 9.36719H82.5586V13H81.6724V5.0752H82.5586V8.59082H83.7598L86.6675 5.0752H87.7734L84.5215 8.92041L88.1323 13H86.9751L83.7744 9.36719ZM94.6069 5.0752H95.4858V13H94.6069V6.48877L90.3296 13H89.458V5.0752H90.3296V11.5938L94.6069 5.0752ZM103.044 5.0752H103.923V13H103.044V6.48877L98.7671 13H97.8955V5.0752H98.7671V11.5938L103.044 5.0752ZM103 2.21875C103 2.78027 102.808 3.23438 102.422 3.58105C102.041 3.92773 101.528 4.10107 100.884 4.10107C100.249 4.10107 99.7363 3.93018 99.3457 3.58838C98.96 3.2417 98.7671 2.78516 98.7671 2.21875H99.5142C99.5142 2.62402 99.6338 2.93408 99.873 3.14893C100.117 3.36377 100.454 3.47119 100.884 3.47119C101.313 3.47119 101.648 3.35889 101.887 3.13428C102.131 2.90967 102.253 2.60449 102.253 2.21875H103ZM112.075 9.36719H110.859V13H109.973V5.0752H110.859V8.59082H112.061L114.968 5.0752H116.074L112.822 8.92041L116.433 13H115.276L112.075 9.36719ZM117.056 8.92041C117.056 8.15869 117.202 7.47266 117.495 6.8623C117.793 6.25195 118.21 5.77832 118.748 5.44141C119.29 5.09961 119.902 4.92871 120.586 4.92871C121.641 4.92871 122.495 5.2998 123.149 6.04199C123.804 6.7793 124.131 7.7583 124.131 8.979V9.16211C124.131 9.92871 123.982 10.6196 123.684 11.2349C123.391 11.8452 122.976 12.3164 122.439 12.6484C121.902 12.9805 121.289 13.1465 120.601 13.1465C119.551 13.1465 118.696 12.7778 118.037 12.0405C117.383 11.2983 117.056 10.3169 117.056 9.09619V8.92041ZM117.935 9.16211C117.935 10.1094 118.179 10.8882 118.667 11.4985C119.16 12.104 119.805 12.4067 120.601 12.4067C121.392 12.4067 122.031 12.104 122.52 11.4985C123.013 10.8882 123.259 10.085 123.259 9.08887V8.92041C123.259 8.31494 123.147 7.76074 122.922 7.25781C122.698 6.75488 122.383 6.3667 121.978 6.09326C121.572 5.81494 121.108 5.67578 120.586 5.67578C119.805 5.67578 119.167 5.9834 118.674 6.59863C118.181 7.20898 117.935 8.00977 117.935 9.00098V9.16211ZM130.334 11.8135L133.484 5.0752H134.568V13H133.689V6.49609L130.642 13H130.02L126.914 6.34961V13H126.042V5.0752H127.192L130.334 11.8135ZM143.005 13H142.126V5.82959H137.856V13H136.978V5.0752H143.005V13ZM151.45 5.0752V13H150.571V5.82959H147.327L147.188 8.7959C147.129 9.89453 147.019 10.7344 146.858 11.3154C146.697 11.8916 146.458 12.3164 146.14 12.5898C145.823 12.8633 145.4 13 144.873 13H144.536V12.2236L144.807 12.209C145.31 12.1992 145.671 11.9551 145.891 11.4766C146.111 10.998 146.255 10.1436 146.323 8.91309L146.484 5.0752H151.45ZM156.877 13.1465C156.204 13.1465 155.593 12.9805 155.046 12.6484C154.504 12.3164 154.082 11.855 153.779 11.2642C153.477 10.6685 153.325 10.002 153.325 9.26465V8.94971C153.325 8.18799 153.472 7.50195 153.765 6.8916C154.062 6.28125 154.475 5.80273 155.002 5.45605C155.53 5.10449 156.101 4.92871 156.716 4.92871C157.678 4.92871 158.44 5.2583 159.001 5.91748C159.568 6.57178 159.851 7.46777 159.851 8.60547V9.09619H154.197V9.26465C154.197 10.1631 154.453 10.9126 154.966 11.5132C155.483 12.1089 156.133 12.4067 156.914 12.4067C157.383 12.4067 157.795 12.3213 158.152 12.1504C158.513 11.9795 158.84 11.7061 159.133 11.3301L159.683 11.7476C159.038 12.6802 158.103 13.1465 156.877 13.1465ZM156.716 5.67578C156.057 5.67578 155.5 5.91748 155.046 6.40088C154.597 6.88428 154.324 7.53369 154.226 8.34912H158.979V8.25391C158.955 7.49219 158.738 6.87207 158.328 6.39355C157.917 5.91504 157.38 5.67578 156.716 5.67578ZM163.711 9.36719H162.495V13H161.609V5.0752H162.495V8.59082H163.696L166.604 5.0752H167.71L164.458 8.92041L168.069 13H166.912L163.711 9.36719ZM172.148 12.4067C172.759 12.4067 173.269 12.2358 173.679 11.894C174.094 11.5474 174.319 11.1006 174.353 10.5537H175.195C175.171 11.0371 175.02 11.479 174.741 11.8794C174.463 12.2749 174.092 12.585 173.628 12.8096C173.169 13.0342 172.676 13.1465 172.148 13.1465C171.108 13.1465 170.283 12.7852 169.673 12.0625C169.067 11.3398 168.765 10.3682 168.765 9.14746V8.88379C168.765 8.10254 168.901 7.41162 169.175 6.81104C169.448 6.21045 169.839 5.74658 170.347 5.41943C170.859 5.09229 171.458 4.92871 172.141 4.92871C173.01 4.92871 173.726 5.1875 174.287 5.70508C174.854 6.22266 175.156 6.90381 175.195 7.74854H174.353C174.314 7.12842 174.089 6.62793 173.679 6.24707C173.274 5.86621 172.761 5.67578 172.141 5.67578C171.35 5.67578 170.735 5.96143 170.295 6.53271C169.861 7.104 169.644 7.90479 169.644 8.93506V9.19141C169.644 10.2021 169.861 10.9907 170.295 11.5571C170.735 12.1235 171.353 12.4067 172.148 12.4067Z" fill="black"/>
</svg>
