<svg width="34" height="35" viewBox="0 0 34 35" fill="none" xmlns="http://www.w3.org/2000/svg">
<path d="M21.9278 32.5868C23.6892 33.2514 25.2908 33.5838 26.6169 33.5838C27.9366 33.5838 28.984 33.2546 29.639 32.5986C29.8288 32.4099 30.0325 32.2169 30.2415 32.0175C31.5087 30.8147 32.9442 29.451 32.8702 27.6489C32.8187 26.4043 32.0479 25.2015 30.5138 23.9686C25.9866 20.329 24.3721 21.966 22.5024 23.8625L22.1647 24.2034C21.603 24.7651 20.234 24.0126 19.4685 23.5151C18.2528 22.725 16.7316 21.4193 14.9477 19.6354C9.48243 14.1702 10.0699 12.7304 10.3808 12.4195L10.7164 12.0872L10.7184 12.0852C12.6182 10.2143 14.2582 8.59931 10.6167 4.07046C9.3838 2.53637 8.17989 1.7645 6.93739 1.71304C5.13421 1.64872 3.77378 3.07346 2.56987 4.33954L2.55086 4.35958C2.35819 4.56261 2.17146 4.75939 1.98775 4.9431C0.66806 6.26171 0.671276 9.14336 1.99525 12.6543C3.45216 16.5158 6.32954 20.7182 10.0978 24.4864C13.865 28.2536 18.0663 31.1309 21.9278 32.5868Z" stroke="#CA0503" stroke-width="1.5"/>
</svg>
