<svg width="31" height="31" viewBox="0 0 31 31" fill="none" xmlns="http://www.w3.org/2000/svg">
<path d="M19.6296 27.721C21.1134 28.2809 22.4627 28.5608 23.5798 28.5608C24.6915 28.5608 25.5738 28.2836 26.1256 27.7309C26.2855 27.5719 26.4571 27.4094 26.6332 27.2414C27.7006 26.2281 28.9099 25.0794 28.8476 23.5613C28.8042 22.5128 28.1549 21.4995 26.8626 20.461C23.0488 17.395 21.6887 18.774 20.1137 20.3716L19.8292 20.6587C19.356 21.132 18.2027 20.498 17.5579 20.079C16.5338 19.4134 15.2523 18.3134 13.7496 16.8107C9.14556 12.2067 9.64045 10.9938 9.90235 10.7319L10.185 10.452L10.1867 10.4503C11.7872 8.8742 13.1687 7.51375 10.101 3.69861C9.06247 2.40628 8.04829 1.75606 7.0016 1.71271C5.48258 1.65852 4.33655 2.85874 3.32237 3.92529L3.30636 3.94216C3.14406 4.1132 2.98675 4.27897 2.83198 4.43373C1.72027 5.54454 1.72298 7.97206 2.83831 10.9297C4.06562 14.1827 6.48954 17.7228 9.66394 20.8972C12.8374 24.0706 16.3767 26.4946 19.6296 27.721Z" stroke="black" stroke-width="3"/>
</svg>
