<svg width="30" height="31" viewBox="0 0 30 31" fill="none" xmlns="http://www.w3.org/2000/svg">
<path d="M19.3848 28.2311C20.9322 28.815 22.3392 29.1069 23.5042 29.1069C24.6635 29.1069 25.5836 28.8178 26.1591 28.2414C26.3257 28.0757 26.5047 27.9062 26.6883 27.731C27.8015 26.6743 29.0626 25.4764 28.9976 23.8932C28.9524 22.7998 28.2752 21.7432 26.9275 20.6601C22.9504 17.4628 21.5321 18.9009 19.8896 20.5669L19.5929 20.8664C19.0994 21.3599 17.8968 20.6987 17.2243 20.2617C16.1564 19.5677 14.82 18.4206 13.2528 16.8534C8.45163 12.0523 8.96773 10.7874 9.24085 10.5143L9.53563 10.2224L9.53739 10.2206C11.2064 8.57703 12.6471 7.15831 9.44804 3.17975C8.36499 1.83207 7.30737 1.15398 6.21584 1.10878C4.63176 1.05227 3.43663 2.3039 2.37901 3.41614L2.36231 3.43374C2.19306 3.6121 2.02902 3.78497 1.86762 3.94636C0.708286 5.10475 0.711111 7.63625 1.87421 10.7206C3.1541 14.1129 5.68185 17.8046 8.99222 21.115C12.3016 24.4244 15.9925 26.9521 19.3848 28.2311Z" stroke="#167FC9" stroke-width="2"/>
</svg>
