<svg width="30" height="30" viewBox="0 0 30 30" fill="none" xmlns="http://www.w3.org/2000/svg">
<path d="M19.3848 28.1241C20.9322 28.708 22.3392 29 23.5042 29C24.6635 29 25.5836 28.7109 26.1591 28.1345C26.3257 27.9688 26.5047 27.7992 26.6883 27.6241C27.8015 26.5674 29.0626 25.3694 28.9976 23.7863C28.9524 22.6929 28.2752 21.6362 26.9275 20.5532C22.9504 17.3558 21.5321 18.7939 19.8896 20.4599L19.5929 20.7594C19.0994 21.2529 17.8968 20.5918 17.2243 20.1548C16.1564 19.4607 14.82 18.3136 13.2528 16.7465C8.45163 11.9453 8.96773 10.6805 9.24085 10.4074L9.53563 10.1154L9.53739 10.1137C11.2064 8.4701 12.6471 7.05137 9.44804 3.07282C8.36499 1.72513 7.30737 1.04705 6.21584 1.00185C4.63176 0.945339 3.43663 2.19696 2.37901 3.3092L2.36231 3.3268C2.19306 3.50516 2.02902 3.67803 1.86762 3.83943C0.708286 4.99781 0.711111 7.52932 1.87421 10.6136C3.1541 14.0059 5.68185 17.6977 8.99222 21.0081C12.3016 24.3175 15.9925 26.8452 19.3848 28.1241Z" stroke="white" stroke-width="2"/>
</svg>
