<svg width="30" height="30" viewBox="0 0 30 30" fill="none" xmlns="http://www.w3.org/2000/svg">
<path d="M1 28.9999H0V29.9999H1V28.9999ZM29 28.9999V29.9999H30V28.9999H29ZM15 16.0001C19.4198 16.0001 23 12.4199 23 8.00007H21C21 11.3153 18.3152 14.0001 15 14.0001V16.0001ZM23 8.00007C23 3.58025 19.4198 0 15 0V2C18.3152 2 21 4.68481 21 8.00007H23ZM15 0C10.5802 0 7 3.58025 7 8.00007H9C9 4.68481 11.6848 2 15 2V0ZM7 8.00007C7 12.4199 10.5802 16.0001 15 16.0001V14.0001C11.6848 14.0001 9 11.3153 9 8.00007H7ZM15 17.4998C12.5387 17.4998 8.91233 18.1096 5.87594 19.326C4.35694 19.9345 2.92271 20.7194 1.8522 21.7075C0.774892 22.7018 0 23.9689 0 25.4999H2C2 24.7034 2.39105 23.9318 3.20866 23.1772C4.03307 22.4163 5.22275 21.7421 6.61969 21.1825C9.41517 20.0626 12.7888 19.4998 15 19.4998V17.4998ZM0 25.4999V28.9999H2V25.4999H0ZM1 29.9999H29V27.9999H1V29.9999ZM30 28.9999V25.4999H28V28.9999H30ZM30 25.4999C30 23.9689 29.2251 22.7018 28.1478 21.7075C27.0773 20.7194 25.6431 19.9345 24.1241 19.326C21.0877 18.1096 17.4613 17.4998 15 17.4998V19.4998C17.2112 19.4998 20.5848 20.0626 23.3803 21.1825C24.7773 21.7421 25.9669 22.4163 26.7913 23.1772C27.609 23.9318 28 24.7034 28 25.4999H30Z" fill="#CA0503"/>
</svg>
