<svg width="142" height="170" viewBox="0 0 142 170" fill="none" xmlns="http://www.w3.org/2000/svg">
<path d="M125.258 79.9294C130.11 50.0334 109.809 21.8639 79.9128 17.0111C50.0168 12.1583 21.8473 32.4598 16.9945 62.3558C12.1417 92.2518 32.4432 120.421 62.3392 125.274C92.2352 130.127 120.405 109.825 125.258 79.9294Z" fill="url(#paint0_linear)"/>
<path d="M106.066 106.066C125.592 86.5401 125.592 54.8818 106.066 35.3556C86.5398 15.8294 54.8816 15.8294 35.3553 35.3556C15.8291 54.8818 15.8291 86.5401 35.3553 106.066C54.8815 125.592 86.5398 125.592 106.066 106.066Z" fill="url(#paint1_linear)"/>
<path d="M83.6816 59.957C83.6816 62.6133 82.8418 64.8496 81.1621 66.666C79.502 68.4824 77.2656 69.6445 74.4531 70.1523V70.3281C77.8906 70.7578 80.5078 71.8516 82.3047 73.6094C84.1016 75.3672 85 77.7305 85 80.6992C85 84.7031 83.6328 87.8086 80.8984 90.0156C78.1836 92.2031 74.2676 93.2969 69.1504 93.2969C64.7949 93.2969 60.9961 92.4863 57.7539 90.8652V87.9648C59.3945 88.8242 61.2305 89.498 63.2617 89.9863C65.3125 90.4746 67.2363 90.7188 69.0332 90.7188C73.3496 90.7188 76.5918 89.8496 78.7598 88.1113C80.9277 86.3535 82.0117 83.8828 82.0117 80.6992C82.0117 77.8672 80.8984 75.6895 78.6719 74.166C76.4648 72.6426 73.2129 71.8809 68.916 71.8809H64.2871V69.0684H68.9746C72.5293 69.0684 75.3418 68.2285 77.4121 66.5488C79.502 64.8496 80.5469 62.5547 80.5469 59.6641C80.5469 57.2812 79.6973 55.377 77.998 53.9512C76.3184 52.5059 74.1113 51.7832 71.377 51.7832C69.248 51.7832 67.3047 52.0859 65.5469 52.6914C63.7891 53.2773 61.8164 54.293 59.6289 55.7383L58.1934 53.7754C59.8535 52.3887 61.8555 51.2949 64.1992 50.4941C66.543 49.6738 68.916 49.2637 71.3184 49.2637C75.2637 49.2637 78.3105 50.2012 80.459 52.0762C82.6074 53.9316 83.6816 56.5586 83.6816 59.957Z" fill="#167FC9"/>
<path d="M76 164.59C76 165.579 75.7068 166.545 75.1573 167.368C74.6079 168.19 73.827 168.831 72.9134 169.209C71.9998 169.588 70.9945 169.687 70.0245 169.494C69.0546 169.301 68.1637 168.825 67.4645 168.125C66.7652 167.426 66.289 166.535 66.0961 165.565C65.9031 164.595 66.0022 163.59 66.3806 162.676C66.759 161.763 67.3999 160.982 68.2222 160.433C69.0444 159.883 70.0111 159.59 71 159.59C72.3261 159.59 73.5978 160.117 74.5355 161.054C75.4732 161.992 76 163.264 76 164.59Z" fill="url(#paint2_linear)"/>
<defs>
<linearGradient id="paint0_linear" x1="33.8091" y1="28.7944" x2="124.629" y2="131.804" gradientUnits="userSpaceOnUse">
<stop stop-color="white"/>
<stop offset="1" stop-color="#BABCBE"/>
</linearGradient>
<linearGradient id="paint1_linear" x1="70.7145" y1="97.0732" x2="70.7146" y2="-118.675" gradientUnits="userSpaceOnUse">
<stop stop-color="white"/>
<stop offset="0.625" stop-color="#FAFAFA"/>
<stop offset="1" stop-color="#F0F0F0"/>
</linearGradient>
<linearGradient id="paint2_linear" x1="1409.4" y1="3653.59" x2="5156" y2="3573.59" gradientUnits="userSpaceOnUse">
<stop stop-color="#E53A40"/>
<stop offset="1" stop-color="#CA2E78"/>
</linearGradient>
</defs>
</svg>
