<svg width="142" height="170" viewBox="0 0 142 170" fill="none" xmlns="http://www.w3.org/2000/svg">
<path d="M125.258 79.9294C130.11 50.0334 109.809 21.8639 79.9128 17.0111C50.0168 12.1583 21.8473 32.4598 16.9945 62.3558C12.1417 92.2518 32.4432 120.421 62.3392 125.274C92.2352 130.127 120.405 109.825 125.258 79.9294Z" fill="url(#paint0_linear)"/>
<path d="M106.066 106.066C125.592 86.5401 125.592 54.8818 106.066 35.3556C86.5398 15.8294 54.8816 15.8294 35.3553 35.3556C15.8291 54.8818 15.8291 86.5401 35.3553 106.066C54.8815 125.592 86.5398 125.592 106.066 106.066Z" fill="url(#paint1_linear)"/>
<path d="M87.4277 81.7832H80.0449V92.7109H77.291V81.7832H55.2598V79.8203L76.5 49.6445H80.0449V79.2637H87.4277V81.7832ZM77.291 79.2637V67.0176C77.291 61.1191 77.4277 56.168 77.7012 52.1641H77.4668C77.0762 52.8867 75.875 54.7227 73.8633 57.6719L58.7461 79.2637H77.291Z" fill="#167FC9"/>
<path d="M76 164.59C76 165.579 75.7068 166.545 75.1573 167.368C74.6079 168.19 73.827 168.831 72.9134 169.209C71.9998 169.588 70.9945 169.687 70.0245 169.494C69.0546 169.301 68.1637 168.825 67.4645 168.125C66.7652 167.426 66.289 166.535 66.0961 165.565C65.9031 164.595 66.0022 163.59 66.3806 162.676C66.759 161.763 67.3999 160.982 68.2222 160.433C69.0444 159.883 70.0111 159.59 71 159.59C72.3261 159.59 73.5978 160.117 74.5355 161.054C75.4732 161.992 76 163.264 76 164.59Z" fill="url(#paint2_linear)"/>
<defs>
<linearGradient id="paint0_linear" x1="33.8091" y1="28.7944" x2="124.629" y2="131.804" gradientUnits="userSpaceOnUse">
<stop stop-color="white"/>
<stop offset="1" stop-color="#BABCBE"/>
</linearGradient>
<linearGradient id="paint1_linear" x1="70.7145" y1="97.0732" x2="70.7146" y2="-118.675" gradientUnits="userSpaceOnUse">
<stop stop-color="white"/>
<stop offset="0.625" stop-color="#FAFAFA"/>
<stop offset="1" stop-color="#F0F0F0"/>
</linearGradient>
<linearGradient id="paint2_linear" x1="1409.4" y1="3653.59" x2="5156" y2="3573.59" gradientUnits="userSpaceOnUse">
<stop stop-color="#E53A40"/>
<stop offset="1" stop-color="#CA2E78"/>
</linearGradient>
</defs>
</svg>
