<svg width="142" height="169" viewBox="0 0 142 169" fill="none" xmlns="http://www.w3.org/2000/svg">
<path d="M125.258 79.9294C130.11 50.0334 109.809 21.8639 79.9128 17.0111C50.0168 12.1583 21.8473 32.4598 16.9945 62.3558C12.1417 92.2518 32.4432 120.421 62.3392 125.274C92.2352 130.127 120.405 109.825 125.258 79.9294Z" fill="url(#paint0_linear)"/>
<path d="M106.066 106.066C125.592 86.5401 125.592 54.8818 106.066 35.3556C86.5398 15.8294 54.8816 15.8294 35.3553 35.3556C15.8291 54.8818 15.8291 86.5401 35.3553 106.066C54.8815 125.592 86.5398 125.592 106.066 106.066Z" fill="url(#paint1_linear)"/>
<path d="M68.7324 66.959C73.3027 66.959 76.8965 68.0625 79.5137 70.2695C82.1504 72.4766 83.4688 75.5137 83.4688 79.3809C83.4688 83.7754 82.1016 87.1934 79.3672 89.6348C76.6328 92.0762 72.8633 93.2969 68.0586 93.2969C65.9297 93.2969 63.9082 93.0918 61.9941 92.6816C60.0801 92.252 58.4785 91.6465 57.1895 90.8652V87.8477C59.2988 88.9219 61.1738 89.6738 62.8145 90.1035C64.4551 90.5137 66.2031 90.7188 68.0586 90.7188C71.8086 90.7188 74.8164 89.7324 77.082 87.7598C79.3477 85.7676 80.4805 83.082 80.4805 79.7031C80.4805 76.5195 79.377 74.0195 77.1699 72.2031C74.9629 70.3867 71.9648 69.4785 68.1758 69.4785C65.6367 69.4785 62.9805 69.8594 60.207 70.6211L58.4492 69.4785L60.1484 49.8789H80.7734V52.6914H62.9023L61.584 67.8086C64.6309 67.2422 67.0137 66.959 68.7324 66.959Z" fill="#167FC9"/>
<path d="M76 163.59C76 164.579 75.7068 165.545 75.1573 166.368C74.6079 167.19 73.827 167.831 72.9134 168.209C71.9998 168.588 70.9945 168.687 70.0245 168.494C69.0546 168.301 68.1637 167.825 67.4645 167.125C66.7652 166.426 66.289 165.535 66.0961 164.565C65.9031 163.595 66.0022 162.59 66.3806 161.676C66.759 160.763 67.3999 159.982 68.2222 159.433C69.0444 158.883 70.0111 158.59 71 158.59C72.3261 158.59 73.5978 159.117 74.5355 160.054C75.4732 160.992 76 162.264 76 163.59Z" fill="url(#paint2_linear)"/>
<defs>
<linearGradient id="paint0_linear" x1="33.8091" y1="28.7944" x2="124.629" y2="131.804" gradientUnits="userSpaceOnUse">
<stop stop-color="white"/>
<stop offset="1" stop-color="#BABCBE"/>
</linearGradient>
<linearGradient id="paint1_linear" x1="70.7145" y1="97.0732" x2="70.7145" y2="-118.675" gradientUnits="userSpaceOnUse">
<stop stop-color="white"/>
<stop offset="0.625" stop-color="#FAFAFA"/>
<stop offset="1" stop-color="#F0F0F0"/>
</linearGradient>
<linearGradient id="paint2_linear" x1="1409.4" y1="3652.59" x2="5156" y2="3572.59" gradientUnits="userSpaceOnUse">
<stop stop-color="#E53A40"/>
<stop offset="1" stop-color="#CA2E78"/>
</linearGradient>
</defs>
</svg>
