<svg width="142" height="169" viewBox="0 0 142 169" fill="none" xmlns="http://www.w3.org/2000/svg">
<path d="M125.258 79.9294C130.11 50.0334 109.809 21.8639 79.9128 17.0111C50.0168 12.1583 21.8473 32.4598 16.9945 62.3558C12.1417 92.2518 32.4432 120.421 62.3392 125.274C92.2352 130.127 120.405 109.825 125.258 79.9294Z" fill="url(#paint0_linear)"/>
<path d="M106.066 106.066C125.592 86.5401 125.592 54.8818 106.066 35.3556C86.5398 15.8294 54.8816 15.8294 35.3553 35.3556C15.8291 54.8818 15.8291 86.5401 35.3553 106.066C54.8815 125.592 86.5398 125.592 106.066 106.066Z" fill="url(#paint1_linear)"/>
<path d="M56.8379 74.459C56.8379 68.8926 57.5898 64.2148 59.0938 60.4258C60.6172 56.6172 62.7656 53.7949 65.5391 51.959C68.332 50.123 71.6914 49.2051 75.6172 49.2051C77.4531 49.2051 79.1328 49.4297 80.6562 49.8789V52.457C79.2305 51.9297 77.5117 51.666 75.5 51.666C70.6758 51.666 66.916 53.4043 64.2207 56.8809C61.5449 60.3574 60.041 65.416 59.709 72.0566H60.0898C61.5742 70.1426 63.2734 68.6973 65.1875 67.7207C67.1016 66.7441 69.123 66.2559 71.252 66.2559C75.2559 66.2559 78.3809 67.3984 80.627 69.6836C82.8926 71.9688 84.0254 75.123 84.0254 79.1465C84.0254 83.5215 82.834 86.9785 80.4512 89.5176C78.0879 92.0371 74.8945 93.2969 70.8711 93.2969C66.5352 93.2969 63.1074 91.6465 60.5879 88.3457C58.0879 85.0254 56.8379 80.3965 56.8379 74.459ZM70.8711 90.7188C74.0742 90.7188 76.5645 89.7129 78.3418 87.7012C80.1191 85.6895 81.0078 82.8184 81.0078 79.0879C81.0078 75.8066 80.1289 73.248 78.3711 71.4121C76.6133 69.5762 74.2207 68.6582 71.1934 68.6582C69.2012 68.6582 67.3457 69.0977 65.627 69.9766C63.9277 70.8555 62.5703 72.0273 61.5547 73.4922C60.5391 74.9375 60.0312 76.4219 60.0312 77.9453C60.0312 80.1133 60.5098 82.2031 61.4668 84.2148C62.4434 86.207 63.752 87.7891 65.3926 88.9609C67.0527 90.1328 68.8789 90.7188 70.8711 90.7188Z" fill="#167FC9"/>
<path d="M76 163.589C76 164.578 75.7068 165.544 75.1573 166.367C74.6079 167.189 73.827 167.83 72.9134 168.208C71.9998 168.587 70.9945 168.686 70.0245 168.493C69.0546 168.3 68.1637 167.824 67.4645 167.124C66.7652 166.425 66.289 165.534 66.0961 164.564C65.9031 163.594 66.0022 162.589 66.3806 161.675C66.759 160.762 67.3999 159.981 68.2222 159.432C69.0444 158.882 70.0111 158.589 71 158.589C72.3261 158.589 73.5978 159.116 74.5355 160.053C75.4732 160.991 76 162.263 76 163.589Z" fill="url(#paint2_linear)"/>
<defs>
<linearGradient id="paint0_linear" x1="33.8091" y1="28.7944" x2="124.629" y2="131.804" gradientUnits="userSpaceOnUse">
<stop stop-color="white"/>
<stop offset="1" stop-color="#BABCBE"/>
</linearGradient>
<linearGradient id="paint1_linear" x1="70.7145" y1="97.0732" x2="70.7145" y2="-118.675" gradientUnits="userSpaceOnUse">
<stop stop-color="white"/>
<stop offset="0.625" stop-color="#FAFAFA"/>
<stop offset="1" stop-color="#F0F0F0"/>
</linearGradient>
<linearGradient id="paint2_linear" x1="1409.4" y1="3652.59" x2="5156" y2="3572.59" gradientUnits="userSpaceOnUse">
<stop stop-color="#E53A40"/>
<stop offset="1" stop-color="#CA2E78"/>
</linearGradient>
</defs>
</svg>
