<svg width="175" height="190" viewBox="0 0 175 190" fill="none" xmlns="http://www.w3.org/2000/svg">
<path d="M0 20C0 8.95431 8.95431 0 20 0H155C166.046 0 175 8.95431 175 20V170C175 181.046 166.046 190 155 190H20C8.9543 190 0 181.046 0 170V20Z" fill="white"/>
<path d="M0 20C0 8.95431 8.95431 0 20 0H69C80.0457 0 89 8.95431 89 20V170C89 181.046 80.0457 190 69 190H20C8.95431 190 0 181.046 0 170V20Z" fill="#F5FCFD"/>
<path d="M149.133 73.2752L95.966 40.2752C95.6759 40.0953 95.3413 40 94.9999 40C94.6585 40 94.3239 40.0953 94.0337 40.2752L40.8672 73.2752C40.6019 73.4396 40.3831 73.6691 40.2313 73.9418C40.0796 74.2145 40 74.5214 40 74.8335V148.167C40 148.653 40.1932 149.119 40.537 149.463C40.8808 149.807 41.3471 150 41.8333 150H148.166C148.653 150 149.119 149.807 149.463 149.463C149.807 149.119 150 148.653 150 148.167V74.8335C150 74.5214 149.92 74.2145 149.768 73.9418C149.617 73.6691 149.398 73.4396 149.133 73.2752ZM50.0833 84.4585V79.8752H139.916V84.4585H50.0833ZM136.25 87.2085V147.25H113.333V123.417C113.333 122.93 113.14 122.464 112.796 122.12C112.452 121.777 111.986 121.583 111.5 121.583H83.7707V97.7501C83.7707 97.2639 83.5776 96.7976 83.2338 96.4538C82.89 96.1099 82.6528 95.9168 82.1666 95.9168H53.75V87.2085H136.25ZM90.6457 124.333H103.021V132.825L96.8332 135.805L90.6457 132.825V124.333ZM61.3125 124.333H73.6874V133.055L67.4999 135.805L61.3125 133.055V124.333ZM53.75 121.583V98.6668H58.3333V107.833C58.3314 108.176 58.4254 108.512 58.6046 108.803C58.7837 109.095 59.041 109.33 59.3471 109.483L66.6804 113.15C66.9349 113.277 67.2155 113.343 67.4999 113.343C67.7844 113.343 68.065 113.277 68.3194 113.15L75.6528 109.483C75.9589 109.33 76.2161 109.095 76.3953 108.803C76.5745 108.512 76.6685 108.176 76.6666 107.833V98.6668H81.0207V121.583H53.75ZM61.3125 98.6668H73.6874V107.388L67.4999 110.138L61.3125 107.388V98.6668ZM53.75 124.333H58.3333V133.5C58.3314 133.842 58.4254 134.178 58.6046 134.47C58.7837 134.761 59.041 134.997 59.3471 135.15L66.6804 138.817C66.9349 138.944 67.2155 139.01 67.4999 139.01C67.7844 139.01 68.065 138.944 68.3194 138.817L75.6528 135.15C75.9589 134.997 76.2161 134.761 76.3953 134.47C76.5745 134.178 76.6685 133.842 76.6666 133.5V124.333H81.0207V147.25H53.75V124.333ZM83.7707 147.25V124.333H87.6666V133.5C87.6647 133.842 87.7587 134.178 87.9378 134.47C88.117 134.761 88.3742 134.997 88.6804 135.15L96.0137 138.817C96.2682 138.944 96.5487 139.01 96.8332 139.01C97.1177 139.01 97.3982 138.944 97.6527 138.817L104.986 135.15C105.292 134.997 105.549 134.761 105.729 134.47C105.908 134.178 106.002 133.842 106 133.5V124.333H110.354V147.25H83.7707ZM147.021 147.25H139V87.2085H140.833C141.319 87.2085 141.786 87.0153 142.129 86.6715C142.473 86.3277 142.666 85.8614 142.666 85.3751V78.9585C142.666 78.4723 142.473 78.0059 142.129 77.6621C141.786 77.3183 141.319 77.1252 140.833 77.1252H49.1666C48.6804 77.1252 48.2141 77.3183 47.8703 77.6621C47.5265 78.0059 47.3333 78.4723 47.3333 78.9585V85.3751C47.3333 85.8614 47.5265 86.3277 47.8703 86.6715C48.2141 87.0153 48.6804 87.2085 49.1666 87.2085H51V147.25H42.9792V74.9362L94.9999 43.0747L147.021 74.9362V147.25Z" fill="#074C7D" stroke="white" stroke-width="0.5"/>
<path d="M63.8333 125.479H71.1666V128.458H63.8333V125.479Z" fill="#074C7D" stroke="white" stroke-width="0.5"/>
<path d="M63.8333 100.041H71.1666V103.02H63.8333V100.041Z" fill="#074C7D" stroke="white" stroke-width="0.5"/>
<path d="M93.1665 125.479H100.5V128.458H93.1665V125.479Z" fill="#074C7D" stroke="white" stroke-width="0.5"/>
<path d="M80.3333 60.3958V67.7291C80.3333 68.2154 80.5264 68.6817 80.8702 69.0255C81.214 69.3693 81.6804 69.5625 82.1666 69.5625H107.833C108.319 69.5625 108.786 69.3693 109.13 69.0255C109.473 68.6817 109.667 68.2154 109.667 67.7291V60.3958C109.667 59.9096 109.473 59.4433 109.13 59.0995C108.786 58.7557 108.549 58.5625 108.062 58.5625H82.3957C81.9095 58.5625 81.214 58.7557 80.8702 59.0995C80.5264 59.4433 80.3333 59.9096 80.3333 60.3958ZM83.3124 61.3125H106.917V66.8125H83.3124V61.3125Z" fill="#167FC9" stroke="white" stroke-width="0.5"/>
<path d="M89.4999 51.2285H100.5V54.4368H89.4999V51.2285Z" fill="#167FC9" stroke="white" stroke-width="0.5"/>
</svg>
