<svg width="175" height="190" viewBox="0 0 175 190" fill="none" xmlns="http://www.w3.org/2000/svg">
<path d="M0 20C0 8.95431 8.95431 0 20 0H155C166.046 0 175 8.95431 175 20V170C175 181.046 166.046 190 155 190H20C8.9543 190 0 181.046 0 170V20Z" fill="white"/>
<path d="M0 20C0 8.95431 8.95431 0 20 0H69C80.0457 0 89 8.95431 89 20V170C89 181.046 80.0457 190 69 190H20C8.95431 190 0 181.046 0 170V20Z" fill="#F5FCFD"/>
<path d="M63.8334 125.666C60.7958 125.666 58.3334 128.128 58.3334 131.166C58.3334 134.204 60.7958 136.666 63.8334 136.666C66.871 136.666 69.3334 134.204 69.3334 131.166C69.3334 128.128 66.871 125.666 63.8334 125.666ZM63.8334 132.999C62.8209 132.999 62 132.178 62 131.166C62 130.154 62.8209 129.333 63.8334 129.333C64.8458 129.333 65.6667 130.154 65.6667 131.166C65.6667 132.178 64.8458 132.999 63.8334 132.999Z" fill="#167FC9" stroke="white"/>
<path d="M126.167 125.666C123.129 125.666 120.667 128.128 120.667 131.166C120.667 134.204 123.129 136.666 126.167 136.666C129.204 136.666 131.667 134.204 131.667 131.166C131.667 128.128 129.204 125.666 126.167 125.666ZM126.167 132.999C125.154 132.999 124.333 132.178 124.333 131.166C124.333 130.154 125.154 129.333 126.167 129.333C127.179 129.333 128 130.154 128 131.166C128 132.178 127.179 132.999 126.167 132.999Z" fill="#167FC9" stroke="white"/>
<path d="M149.776 102.788L138.776 82.6216C138.455 82.0327 137.838 81.6663 137.167 81.6665H115.167C114.154 81.6665 113.333 82.4874 113.333 83.4998V111H100.5V107.333H106C107.012 107.333 107.833 106.512 107.833 105.5V90.8331C107.833 90.3469 107.64 89.8807 107.296 89.537L98.1295 80.3703C97.7858 80.0266 97.3196 79.8331 96.8333 79.8331H90.05L126.167 55.7578V65.1665C126.167 66.1789 126.988 66.9998 128 66.9998C130.025 66.9998 131.667 68.6413 131.667 70.6665C131.667 72.6916 130.025 74.3331 128 74.3331C125.975 74.3331 124.333 72.6916 124.333 70.6665H120.667C120.667 74.7165 123.95 77.9998 128 77.9998C132.05 77.9998 135.333 74.7165 135.333 70.6665C135.333 67.3225 133.071 64.402 129.833 63.566V52.3331H129.8C129.814 51.9743 129.719 51.6195 129.527 51.3156L125.861 45.8156C125.316 44.9994 124.225 44.7571 123.386 45.2656L53.7188 87.4323C53.1727 87.7653 52.8416 88.3602 52.8462 88.9998H52.8333V105.5C52.8333 106.512 53.6542 107.333 54.6667 107.333H56.5V111H41.8333C40.8209 111 40 111.821 40 112.833V125.666C40 126.679 40.8209 127.5 41.8333 127.5H51.5408C49.5049 134.289 53.3581 141.443 60.147 143.479C66.936 145.515 74.0899 141.661 76.1258 134.873C76.847 132.468 76.847 129.905 76.1258 127.5H113.874C111.838 134.289 115.691 141.443 122.48 143.479C129.269 145.515 136.423 141.662 138.459 134.873C139.18 132.468 139.18 129.905 138.459 127.5H148.167C149.179 127.5 150 126.679 150 125.667V103.667C150 103.36 149.923 103.058 149.776 102.788ZM124.333 85.3331H136.078L146.078 103.666H124.333V85.3331ZM93.1667 83.4998H96.0743L104.167 91.5921V96.3331H93.1667V83.4998ZM91.3333 99.9998H104.167V103.666H98.6667H85.8333V83.4998H89.5V98.1665C89.5 99.1792 90.3209 99.9998 91.3333 99.9998ZM96.8333 107.333V111H60.1667V107.333H96.8333ZM82.1667 87.1665H79.05L82.1667 85.0911V87.1665ZM123.783 49.3118L125.461 51.8253L72.45 87.1665H61.2355L123.783 49.3118ZM56.5 90.8331H82.1667V103.666H58.3333H56.5V90.8331ZM63.8333 140.333C58.7708 140.333 54.6667 136.229 54.6667 131.166C54.6667 126.104 58.7708 122 63.8333 122C68.8959 122 73 126.104 73 131.166C72.994 136.227 68.8933 140.327 63.8333 140.333ZM115.651 123.833H74.3493C70.3151 118.025 62.3366 116.588 56.5289 120.622C55.2756 121.492 54.1879 122.58 53.3173 123.833H43.6667V114.666H124.333C128.759 114.671 132.751 117.323 134.472 121.4C129.1 116.811 121.025 117.444 116.435 122.816C116.157 123.142 115.895 123.481 115.651 123.833ZM126.167 140.333C121.104 140.333 117 136.229 117 131.166C117 126.104 121.104 122 126.167 122C131.229 122 135.333 126.104 135.333 131.166C135.327 136.227 131.227 140.327 126.167 140.333ZM146.333 123.833H138.886C138.857 123.6 138.808 123.375 138.767 123.146C138.736 122.962 138.712 122.779 138.676 122.612C138.61 122.302 138.525 121.998 138.439 121.695C138.399 121.551 138.368 121.402 138.322 121.261C138.182 120.823 138.027 120.392 137.849 119.978C137.836 119.946 137.819 119.917 137.807 119.886C137.638 119.494 137.454 119.11 137.257 118.736C137.178 118.59 137.086 118.452 137.004 118.309C136.859 118.06 136.714 117.809 136.553 117.576C136.448 117.418 136.331 117.268 136.221 117.114C136.067 116.901 135.913 116.687 135.748 116.483C135.621 116.327 135.487 116.181 135.357 116.03C135.19 115.847 135.024 115.651 134.848 115.469C134.705 115.323 134.556 115.183 134.409 115.042C134.226 114.872 134.043 114.703 133.859 114.542C133.702 114.408 133.542 114.28 133.379 114.151C133.185 113.999 132.987 113.849 132.785 113.706C132.616 113.584 132.445 113.468 132.272 113.359C132.063 113.224 131.848 113.095 131.632 112.971C131.449 112.868 131.265 112.767 131.082 112.67C130.858 112.553 130.627 112.444 130.396 112.34C130.213 112.256 130.03 112.169 129.846 112.092C129.602 111.993 129.355 111.909 129.113 111.821C128.929 111.757 128.746 111.689 128.55 111.638C128.284 111.557 128.013 111.495 127.74 111.429C127.556 111.385 127.373 111.335 127.19 111.299C126.883 111.238 126.572 111.198 126.26 111.156C126.102 111.135 125.947 111.104 125.787 111.09C125.312 111.044 124.832 111.016 124.344 111.016H117V85.3331H120.667V105.5C120.667 106.512 121.488 107.333 122.5 107.333H146.333V123.833Z" fill="#074C7D" stroke="white"/>
</svg>
