<svg width="828" height="2039" viewBox="0 0 828 2039" fill="none" xmlns="http://www.w3.org/2000/svg">
<path d="M-49 3.40323C40.165 -5.9415 365.002 149.5 417.76 224.128C466.046 292.429 349.887 351.475 385.936 427.369C443.744 549.075 757.876 479.076 761.792 581.043C770.75 814.254 332.919 678.849 315.922 820C281 1110 779.396 911.113 765.709 1150.5C750.5 1416.5 315.922 1305.12 315.922 1502.58C315.922 1700.04 699.938 1619.97 765.709 1674.6C831.48 1729.24 845.686 1825.17 791.495 1911.25C764.864 1953.55 761.792 2038 761.792 2038" stroke="#F1F1F1" stroke-width="5" stroke-dasharray="12 14 26 10"/>
<path d="M-49 3.40323C40.165 -5.9415 365.002 149.5 417.76 224.128C466.046 292.429 349.887 351.475 385.936 427.369C443.744 549.075 757.876 479.076 761.792 581.043C770.75 814.254 332.919 678.849 315.922 820C281 1110 779.396 911.113 765.709 1150.5C750.5 1416.5 315.922 1305.12 315.922 1502.58C315.922 1700.04 699.938 1619.97 765.709 1674.6C831.48 1729.24 845.686 1825.17 791.495 1911.25C764.864 1953.55 761.792 2038 761.792 2038" stroke="url(#paint0_linear)" stroke-width="5" stroke-dasharray="12 14 26 10"/>
<defs>
<linearGradient id="paint0_linear" x1="727.694" y1="1713.43" x2="784.986" y2="2132.34" gradientUnits="userSpaceOnUse">
<stop stop-color="white" stop-opacity="0"/>
<stop offset="0.575048" stop-color="white" stop-opacity="0.569885"/>
<stop offset="1" stop-color="white"/>
</linearGradient>
</defs>
</svg>
