<svg width="312" height="312" viewBox="0 0 312 312" fill="none" xmlns="http://www.w3.org/2000/svg">
<rect x="74.9409" width="237.059" height="237.059" rx="20" fill="#F5FCFD"/>
<path d="M2 309.998V267.419H190.088V309.998" stroke="#CA0503" stroke-width="2.5" stroke-miterlimit="10" stroke-linecap="square" stroke-linejoin="round"/>
<path d="M29.3027 309.347V291.605H80.8752V309.347" stroke="#CA0503" stroke-width="2.5" stroke-miterlimit="10" stroke-linecap="square" stroke-linejoin="round"/>
<path d="M108.179 309.347V291.605H162.785V309.347" stroke="#CA0503" stroke-width="2.5" stroke-miterlimit="10" stroke-linecap="square" stroke-linejoin="round"/>
<path d="M20.2021 291.605H29.3032" stroke="#CA0503" stroke-width="2.5" stroke-miterlimit="10" stroke-linecap="square" stroke-linejoin="round"/>
<path d="M99.0776 291.605H108.179" stroke="#CA0503" stroke-width="2.5" stroke-miterlimit="10" stroke-linecap="square" stroke-linejoin="round"/>
<path d="M180.987 291.605H190.088" stroke="#CA0503" stroke-width="2.5" stroke-miterlimit="10" stroke-linecap="square" stroke-linejoin="round"/>
<path d="M177.953 266.767V178.06H96.0439V266.767" stroke="#CA0503" stroke-width="2.5" stroke-miterlimit="10" stroke-linecap="square" stroke-linejoin="round"/>
<path d="M147.617 178.06V195.801H126.381V178.06" stroke="#CA0503" stroke-width="2.5" stroke-miterlimit="10" stroke-linecap="round" stroke-linejoin="round"/>
<path d="M159.751 245.478H147.617" stroke="#167FC9" stroke-width="2.5" stroke-miterlimit="10" stroke-linecap="square" stroke-linejoin="round"/>
<path d="M111.212 178.06V89.353H29.3027V156.77" stroke="#CA0503" stroke-width="2.5" stroke-miterlimit="10" stroke-linecap="square" stroke-linejoin="round"/>
<path d="M80.8754 89.353V107.094H59.6396V89.353" stroke="#CA0503" stroke-width="2.5" stroke-miterlimit="10" stroke-linecap="round" stroke-linejoin="round"/>
<path d="M93.0102 156.771H80.8755" stroke="#167FC9" stroke-width="2.5" stroke-miterlimit="10" stroke-linecap="square" stroke-linejoin="round"/>
<path d="M96.0441 266.767V178.06H14.1348V245.477" stroke="#CA0503" stroke-width="2.5" stroke-miterlimit="10" stroke-linecap="square" stroke-linejoin="round"/>
<path d="M65.7069 178.06V195.801H44.4712V178.06" stroke="#CA0503" stroke-width="2.5" stroke-miterlimit="10" stroke-linecap="round" stroke-linejoin="round"/>
<path d="M77.8417 245.478H65.707" stroke="#167FC9" stroke-width="2.5" stroke-miterlimit="10" stroke-linecap="square" stroke-linejoin="round"/>
<path d="M225.578 62.978C225.578 49.7711 217.654 39.2056 196.523 39.2056C175.392 39.2056 167.468 49.7711 167.468 62.978" stroke="#167FC9" stroke-width="2.5" stroke-miterlimit="10" stroke-linecap="round" stroke-linejoin="round"/>
<path d="M164.827 76.1841L166.411 81.2027C166.94 82.7875 168.525 83.3158 170.109 82.7875C175.128 80.6744 185.958 76.1841 196.523 76.1841C208.409 76.1841 218.447 80.4103 222.937 82.5234C224.258 83.3158 226.107 82.5234 226.635 80.9386L228.22 76.1841" stroke="#167FC9" stroke-width="2.5" stroke-miterlimit="10" stroke-linecap="round" stroke-linejoin="round"/>
<path d="M212.372 65.6189C212.372 65.6189 201.806 62.9775 196.523 62.9775C191.241 62.9775 180.675 65.6189 180.675 65.6189" stroke="#167FC9" stroke-width="2.5" stroke-miterlimit="10" stroke-linecap="round" stroke-linejoin="round"/>
<path d="M188.6 120.034C178.034 117.129 172.223 108.148 170.11 97.3184" stroke="#167FC9" stroke-width="2.5" stroke-miterlimit="10" stroke-linecap="round" stroke-linejoin="round"/>
<path d="M222.937 97.3184C220.824 108.148 215.013 117.129 204.447 120.034" stroke="#167FC9" stroke-width="2.5" stroke-miterlimit="10" stroke-linecap="round" stroke-linejoin="round"/>
<path d="M212.371 118.45C212.371 118.45 211.579 127.43 215.013 134.298" stroke="#167FC9" stroke-width="2.5" stroke-miterlimit="10" stroke-linecap="round" stroke-linejoin="round"/>
<path d="M196.523 144.864C204.711 144.864 212.371 139.581 215.013 134.298" stroke="#167FC9" stroke-width="2.5" stroke-miterlimit="10" stroke-linecap="square" stroke-linejoin="round"/>
<path d="M215.013 134.298L240.106 139.581C254.898 142.751 265.199 155.694 265.199 170.485V217.912" stroke="#167FC9" stroke-width="2.5" stroke-miterlimit="10" stroke-linecap="square" stroke-linejoin="round"/>
<path d="M181.764 119.953C181.764 119.953 182.513 128.438 179.269 134.926" stroke="#167FC9" stroke-width="2.5" stroke-miterlimit="10" stroke-linecap="round" stroke-linejoin="round"/>
<path d="M178.285 135.333L146.515 142.235" stroke="#167FC9" stroke-width="2.5" stroke-miterlimit="10" stroke-linecap="square" stroke-linejoin="round"/>
</svg>
