<svg width="284" height="283" viewBox="0 0 284 283" fill="none" xmlns="http://www.w3.org/2000/svg">
<path d="M134.119 280.996H200.519M151.853 280.783L159.654 260.05" stroke="#167FC9" stroke-width="2.5"/>
<path d="M282.473 149.768V111.297C282.473 109.066 281.451 107.048 280.017 105.617C278.584 104.186 276.563 103.165 274.328 103.165H135.729M85.2715 227.242H201.765M201.874 252.489H93.4165C89.7052 252.489 86.5724 250.125 85.5908 246.68C85.3829 245.95 85.2715 245.171 85.2715 244.357V173.932" stroke="#167FC9" stroke-width="2.5"/>
<path d="M172.915 243.275H169.477C166.898 243.275 164.934 241.185 164.934 238.725C164.934 236.265 167.021 234.174 169.477 234.174H172.915C175.494 234.174 177.459 236.265 177.459 238.725C177.459 241.185 175.371 243.275 172.915 243.275Z" stroke="#167FC9" stroke-width="2.5"/>
<path d="M282.332 214.366V165.072C282.332 162.924 280.35 161.083 278.038 161.083H216.613C214.192 161.083 212.32 162.822 212.32 165.072V277.058C212.32 279.206 214.192 280.842 216.613 280.842H278.038C280.46 280.842 282.332 279.104 282.332 277.058V226.639" stroke="#CA0503" stroke-width="2.5"/>
<path d="M230.704 161.673L233.676 170.98H260.536L263.728 161.571" stroke="#CA0503" stroke-width="2.5"/>
<path d="M249.063 275.367H244.732C242.6 275.367 241.822 273.923 241.822 272.223C241.822 270.439 242.702 269.08 244.732 269.08H249.063C251.194 269.08 251.973 270.524 251.973 272.223C251.973 273.923 251.093 275.367 249.063 275.367Z" stroke="#167FC9" stroke-width="2.5"/>
<path fill-rule="evenodd" clip-rule="evenodd" d="M146.144 119.525C148.07 121.452 149.257 124.117 149.257 127.05C149.257 129.994 148.07 132.647 146.144 134.574C144.218 136.5 141.552 137.687 138.621 137.687C135.677 137.687 133.024 136.5 131.098 134.574C129.172 132.647 127.984 129.982 127.984 127.05C127.984 124.105 129.172 121.452 131.098 119.525C133.024 117.599 135.689 116.412 138.621 116.412C141.552 116.412 144.218 117.599 146.144 119.525Z" stroke="#CA0503" stroke-width="2.5"/>
<path d="M42.7935 87.394V100.431C42.7935 101 42.4906 101.485 42.0303 101.752L19.3281 117.454" stroke="#167FC9" stroke-width="2.5"/>
<path d="M110.286 96.8789V104.109C110.286 104.695 110.592 105.194 111.058 105.468L130.912 119.567" stroke="#CA0503" stroke-width="2.5"/>
<path fill-rule="evenodd" clip-rule="evenodd" d="M20.1593 118.685C22.0855 120.612 23.2727 123.277 23.2727 126.209C23.2727 129.153 22.0855 131.807 20.1593 133.733C18.2331 135.66 15.568 136.847 12.6363 136.847C9.69257 136.847 7.03955 135.66 5.11337 133.733C3.1872 131.807 2 129.141 2 126.209C2 123.265 3.1872 120.612 5.11337 118.685C7.03955 116.759 9.70469 115.571 12.6363 115.571C15.568 115.571 18.2331 116.759 20.1593 118.685Z" stroke="#167FC9" stroke-width="2.5"/>
<path d="M112.828 89.2713C112.828 87.7329 111.59 86.4946 110.052 86.4946C108.513 86.4946 107.275 87.7329 107.275 89.2713C107.275 90.8065 108.508 92.043 110.043 92.0479C111.589 92.0653 112.828 90.7964 112.828 89.2713Z" stroke="#167FC9" stroke-width="2.5"/>
<path d="M108.222 131.581V127.147V122.712L90.7776 109.736C90.3415 109.47 90.0629 108.985 90.0629 108.44V102.6V102.588C90.0629 102.539 90.0508 102.503 90.0508 102.454V87.394" stroke="#167FC9" stroke-width="2.5"/>
<path fill-rule="evenodd" clip-rule="evenodd" d="M115.908 135.51C117.835 137.437 119.022 140.102 119.022 143.034C119.022 145.979 117.835 148.632 115.908 150.558C113.982 152.485 111.317 153.672 108.385 153.672C105.442 153.672 102.789 152.485 100.862 150.558C98.9362 148.632 97.749 145.966 97.749 143.034C97.749 140.09 98.9362 137.437 100.862 135.51C102.789 133.584 105.454 132.396 108.385 132.396C111.317 132.396 113.982 133.584 115.908 135.51Z" stroke="#CA0503" stroke-width="2.5"/>
<path d="M61.6338 88.3076C61.6338 89.1557 61.6338 97.9957 61.6338 97.9957" stroke="#167FC9" stroke-width="2.5"/>
<path d="M61.3716 102.313V108.331C61.3716 108.404 61.3716 108.465 61.3716 108.537C61.3352 109.119 60.9839 109.616 60.4751 109.846L41.916 122.725C41.916 122.725 41.916 127.851 41.916 131.135" stroke="#167FC9" stroke-width="2.5"/>
<path fill-rule="evenodd" clip-rule="evenodd" d="M49.5568 134.669C51.483 136.595 52.6702 139.261 52.6702 142.193C52.6702 145.137 51.483 147.791 49.5568 149.717C47.6306 151.644 44.9655 152.831 42.0338 152.831C39.09 152.831 36.437 151.644 34.5108 149.717C32.5847 147.791 31.3975 145.125 31.3975 142.193C31.3975 139.249 32.5847 136.595 34.5108 134.669C36.437 132.743 39.1021 131.555 42.0338 131.555C44.9655 131.555 47.6306 132.743 49.5568 134.669Z" stroke="#167FC9" stroke-width="2.5"/>
<path fill-rule="evenodd" clip-rule="evenodd" d="M84.1027 142.838C86.0289 144.765 87.2161 147.43 87.2161 150.363C87.2161 153.307 86.0289 155.96 84.1027 157.887C82.1765 159.813 79.5114 161 76.5797 161C73.6359 161 70.9829 159.813 69.0567 157.887C67.1306 155.96 65.9434 153.295 65.9434 150.363C65.9434 147.418 67.1306 144.765 69.0567 142.838C70.9829 140.912 73.648 139.725 76.5797 139.725C79.5114 139.725 82.1765 140.912 84.1027 142.838Z" stroke="#167FC9" stroke-width="2.5"/>
<path d="M79.374 89.0906C79.374 87.5523 78.1362 86.314 76.5977 86.314C75.0591 86.314 73.8213 87.5523 73.8213 89.0906C73.8213 90.6289 75.0591 91.8672 76.5977 91.8672C78.1176 91.8672 79.374 90.6353 79.374 89.0906Z" stroke="#167FC9" stroke-width="2.5"/>
<path d="M79.374 102.164C79.374 100.626 78.1362 99.3872 76.5977 99.3872C75.0591 99.3872 73.8213 100.626 73.8213 102.164C73.8213 103.702 75.0591 104.94 76.5977 104.94C78.1176 104.94 79.374 103.709 79.374 102.164Z" stroke="#167FC9" stroke-width="2.5"/>
<path d="M76.751 110.276V140.142" stroke="#167FC9" stroke-width="2.5"/>
<path d="M21.0723 81.4088H9.12759C8.25536 81.4088 7.55273 80.706 7.55273 79.8337V58.0974C7.55273 57.2251 8.25536 56.5223 9.12759 56.5223H17.3998C18.8031 56.5223 20.0104 55.5469 20.3783 54.1926C21.0032 51.8923 21.7727 49.6567 22.6714 47.4959C23.5851 45.2971 24.634 43.166 25.8079 41.1175C26.5051 39.9009 26.3405 38.3588 25.349 37.3672L19.4974 31.5148C18.8796 30.8968 18.8796 29.9033 19.4974 29.2975L34.8462 13.9343C35.4641 13.3164 36.4574 13.3164 37.0631 13.9343L42.9142 19.7863C43.9059 20.7781 45.4484 20.9428 46.6653 20.2453C48.7132 19.0714 50.8438 18.0225 53.0419 17.1087C55.2054 16.2086 57.444 15.445 59.7474 14.8178C61.0974 14.4502 62.067 13.2451 62.067 11.8459V3.57509C62.067 2.70273 62.7697 2 63.6419 2H85.3628C86.235 2 86.9377 2.70273 86.9377 3.57509V11.849C86.9377 13.2523 87.913 14.4595 89.2672 14.8275C91.5677 15.4525 93.8053 16.222 95.9749 17.1209C98.1744 18.0352 100.306 19.0848 102.355 20.2545C103.57 20.9481 105.108 20.7812 106.097 19.7919L111.954 13.9343C112.572 13.3164 113.565 13.3164 114.171 13.9343L129.532 29.2975C130.149 29.9154 130.149 30.909 129.532 31.5148L123.68 37.3672C122.688 38.3588 122.524 39.9009 123.221 41.1175C124.395 43.166 125.444 45.2971 126.358 47.4959C127.258 49.6598 128.021 51.8988 128.648 54.2025C129.016 55.5526 130.221 56.5223 131.62 56.5223H139.901C140.774 56.5223 141.476 57.2251 141.476 58.0974V79.8216C141.476 80.6939 140.774 81.3966 139.901 81.3966H127.957" stroke="#167FC9" stroke-width="2.5"/>
<path fill-rule="evenodd" clip-rule="evenodd" d="M40.4663 50.4076L44.0522 71.6354C44.0885 71.9577 44.2823 72.2279 44.6458 72.4255C44.9729 72.5814 45.3726 72.6646 45.8209 72.6646C46.2812 72.6646 46.6689 72.5814 47.0081 72.4255C47.3715 72.2279 47.6017 71.9577 47.6865 71.6354L51.769 53.1104L55.803 71.5626C55.8636 71.9057 56.0817 72.176 56.433 72.3839C56.7601 72.571 57.1598 72.6646 57.6202 72.6646C58.0684 72.6646 58.4682 72.571 58.7953 72.3839C59.1587 72.176 59.3646 71.9057 59.4252 71.5626L63.011 50.2724C63.0716 49.9606 62.9747 49.7215 62.7445 49.5135C62.5386 49.3264 62.2357 49.2225 61.8844 49.2017C61.4846 49.1809 61.1575 49.2433 60.891 49.3784C60.5639 49.5655 60.358 49.815 60.2974 50.1373L57.5354 68.1113L53.5861 50.1996C53.3196 49.5239 52.7139 49.2017 51.769 49.2017C50.8362 49.2017 50.2305 49.5343 49.9518 50.1996L45.9541 68.1113L43.1436 50.0125C43.083 49.7318 42.8771 49.5135 42.55 49.3784C42.2835 49.264 41.9564 49.2017 41.593 49.2329C41.2417 49.2536 40.9267 49.368 40.6844 49.5655C40.4421 49.7838 40.3694 50.0541 40.4663 50.4076Z" fill="#CA0503"/>
<path fill-rule="evenodd" clip-rule="evenodd" d="M67.4697 50.7088V71.7183C67.4697 72.0094 67.6151 72.2381 67.8816 72.4252C68.1239 72.5812 68.4268 72.6643 68.7902 72.6643C69.1173 72.6643 69.4201 72.5812 69.6624 72.4252C69.9653 72.2381 70.1228 72.0094 70.1228 71.7183V53.0582L75.3319 71.5416C75.5378 72.3213 76.192 72.6955 77.2702 72.6643C78.3362 72.6643 79.0025 72.2901 79.3054 71.5416L84.4661 53.0582V71.7183C84.4661 72.0094 84.6115 72.2381 84.878 72.4252C85.1203 72.5812 85.4231 72.6643 85.7865 72.6643C86.1136 72.6643 86.4165 72.5812 86.6588 72.4252C86.9616 72.2381 87.1191 72.0094 87.1191 71.7183V50.7088C87.1191 50.2618 86.8889 49.9083 86.4407 49.6381C86.0409 49.399 85.5685 49.2638 84.987 49.243C84.3813 49.2014 83.8604 49.2742 83.4 49.4613C82.8912 49.69 82.5763 49.9915 82.443 50.3761L77.3186 68.8387L72.1943 50.3761C72.0732 49.9707 71.7582 49.6588 71.2373 49.4613C70.7527 49.2742 70.2197 49.191 69.614 49.2222C69.0082 49.2638 68.5116 49.399 68.1118 49.6484C67.6757 49.9083 67.4697 50.2618 67.4697 50.7088Z" fill="#CA0503"/>
<path fill-rule="evenodd" clip-rule="evenodd" d="M94.7148 66.095C94.6785 65.4817 94.2787 64.9723 93.2974 64.9723C92.5706 64.9723 91.9043 65.3569 91.9043 66.0326C92.0376 70.7211 96.108 72.6443 100.602 72.6443C104.77 72.6443 108.876 70.4924 108.876 65.8351C108.876 61.0531 104.612 60.0552 100.869 59.1507C98.7125 58.6414 95.5144 57.9345 95.5144 55.2628C95.5144 52.7574 97.7676 51.4788 99.9845 51.4788C102.371 51.4788 104.842 52.4144 105.448 54.9197C105.642 55.7514 106.345 55.9489 106.902 55.9489C107.931 55.9489 108.295 55.5019 108.162 54.7014C107.435 50.7823 104.188 49.2749 100.094 49.2749C96.3502 49.2749 92.5464 51.2293 92.5464 55.4083C92.5464 60.0656 96.6773 60.9596 100.251 61.864C102.529 62.415 105.715 63.2154 105.715 66.1054C105.715 68.8706 103.195 70.4092 100.518 70.4092C97.3921 70.3988 94.739 68.6939 94.7148 66.095Z" fill="#CA0503"/>
</svg>
