<svg width="175" height="190" viewBox="0 0 175 190" fill="none" xmlns="http://www.w3.org/2000/svg">
<path d="M0 20C0 8.95431 8.95431 0 20 0H155C166.046 0 175 8.95431 175 20V170C175 181.046 166.046 190 155 190H20C8.9543 190 0 181.046 0 170V20Z" fill="white"/>
<path d="M0 20C0 8.95431 8.95431 0 20 0H69C80.0457 0 89 8.95431 89 20V170C89 181.046 80.0457 190 69 190H20C8.95431 190 0 181.046 0 170V20Z" fill="#F5FCFD"/>
<path fill-rule="evenodd" clip-rule="evenodd" d="M41.6297 146.795H46.4289C47.3177 146.795 48.0361 146.077 48.0361 145.189V141.943H126.348V145.189C126.348 146.077 127.067 146.795 127.955 146.795H132.777C133.666 146.795 134.384 146.077 134.384 145.189V48.0154C134.384 45.8021 132.583 44 130.366 44C128.15 44 126.348 45.8021 126.348 48.0154V72.9175L83.7813 72.9158V50.4375C83.7813 49.5509 83.0629 48.8314 82.1741 48.8314H56.465C55.5762 48.8314 54.8578 49.5509 54.8578 50.4375V72.9158H48.0361V48.0154C48.0361 45.8021 46.2344 44 44.0181 44C41.8017 44 40 45.8021 40 48.0154L40.0225 145.189C40.0225 146.077 40.7409 146.795 41.6297 146.795ZM130.366 47.2123C129.924 47.2123 129.563 47.5721 129.563 48.0154V143.582H131.17V48.0154C131.17 47.5721 130.808 47.2123 130.366 47.2123ZM70.9235 52.0437H67.7091V53.6627H70.9235V52.0437ZM64.4947 52.0437H58.0722V72.9158H80.5669V52.0437H74.138V55.2689C74.138 56.1555 73.4196 56.875 72.5308 56.875H66.1019C65.2131 56.875 64.4947 56.1555 64.4947 55.2689V52.0437ZM56.465 76.1282H48.0361V77.7343H126.348V76.1282H117.923H92.2134H82.1741H56.465ZM126.348 80.9467H48.0361V103.388H54.8513V85.7347C54.8513 84.8481 55.5698 84.1285 56.4586 84.1285H117.926C118.815 84.1285 119.533 84.8481 119.533 85.7347V103.386H126.348V80.9467ZM92.2102 92.1593H82.1741C81.2853 92.1593 80.5669 91.4398 80.5669 90.5532V87.3408H58.0658V103.388H116.319V87.3408H93.8174V90.5532C93.8174 91.4398 93.099 92.1593 92.2102 92.1593ZM83.7813 87.3408V88.947H90.603V87.3408H83.7813ZM56.4586 106.6H48.0361V108.21H126.348V106.6H117.926H56.4586ZM126.348 111.422H48.0361V133.908H54.8578V119.472C54.8578 118.584 55.5762 117.866 56.465 117.866H67.693C67.6962 117.866 67.6987 117.865 67.7011 117.864C67.7035 117.864 67.7059 117.863 67.7091 117.863C67.7123 117.863 67.7147 117.864 67.7171 117.864C67.7196 117.865 67.722 117.866 67.7252 117.866H74.1251C74.1316 117.866 74.1348 117.863 74.1412 117.863C74.1476 117.863 74.1508 117.866 74.1573 117.866H85.3982C86.287 117.866 87.0054 118.584 87.0054 119.472V133.908H93.8174V114.651C93.8174 113.762 94.5358 113.044 95.4246 113.044H117.929C118.818 113.044 119.536 113.762 119.536 114.651V133.908H126.348V111.422ZM109.893 121.086H103.461C102.572 121.086 101.854 120.368 101.854 119.48V116.255H97.0319V133.907H116.322V116.255H111.5V119.48C111.5 120.368 110.782 121.086 109.893 121.086ZM105.068 116.255V117.874H108.286V116.255H105.068ZM74.1412 125.905H67.7091C66.8203 125.905 66.1019 125.187 66.1019 124.299V121.077H58.0722V133.907H83.791V121.077H75.7484V124.299C75.7484 125.187 75.03 125.905 74.1412 125.905ZM69.3163 121.077V122.693H72.534V121.077H69.3163ZM56.465 137.121H48.0361V138.73H126.348V137.121H117.929H95.4246H85.3982H56.465ZM44.8217 48.0154C44.8217 47.5721 44.46 47.2123 44.0181 47.2123C43.5761 47.2123 43.2144 47.5721 43.2144 48.0154L43.2369 143.582H44.8217V48.0154Z" fill="#074C7D" stroke="white"/>
<path fill-rule="evenodd" clip-rule="evenodd" d="M121 54.3831V69.5184V72.3H92V69.517V54.3831C92 53.6196 92.7203 53 93.6115 53H119.389C120.28 53 121 53.6196 121 54.3831ZM95.2229 55.7662H101.662V58.5434C101.662 59.3068 102.383 59.9265 103.274 59.9265H109.723C110.614 59.9265 111.334 59.3068 111.334 58.5434V55.7662H117.777V69.517H95.2229V55.7662ZM108.111 55.7662H104.885V57.1603H108.111V55.7662Z" fill="#167FC9" stroke="white"/>
<path d="M135.65 144.008H148.452C149.307 144.008 150 144.524 150 145.161C150 145.798 149.307 146.313 148.452 146.313H45.8712C45.0161 146.313 44.3232 145.798 44.3232 145.161C44.3232 144.524 45.0161 144.008 45.8712 144.008H58.673L61.769 144.008H132.554L135.65 144.008Z" fill="#074C7D"/>
</svg>
