<svg width="176" height="47" viewBox="0 0 176 47" fill="none" xmlns="http://www.w3.org/2000/svg">
<path d="M13.6361 35.8159H5.64978L3.97888 40.6162H0.254761L8.04285 19.999H11.2572L19.0594 40.6162H15.3212L13.6361 35.8159ZM6.65515 32.9272H12.6307L9.64294 24.3745L6.65515 32.9272ZM34.3524 25.2949V40.6162H30.9115V28.0703H26.5785L26.2953 33.4087C26.1159 35.9764 25.6203 37.8219 24.8085 38.9453C24.0061 40.0592 22.7741 40.6162 21.1127 40.6162H20.0507L20.0365 37.7559L20.7445 37.6851C21.4997 37.5812 22.0472 37.1234 22.3871 36.3115C22.7364 35.4902 22.9582 33.9987 23.0526 31.8369L23.3358 25.2949H34.3524ZM41.7157 30.166H45.0858C46.3413 30.166 47.4364 30.3831 48.371 30.8174C49.3055 31.2516 50.0135 31.8605 50.495 32.644C50.9859 33.4276 51.2313 34.3385 51.2313 35.377C51.2313 36.9535 50.6744 38.2184 49.5604 39.1719C48.4465 40.1253 46.9644 40.6068 45.1141 40.6162H38.2748V25.2949H41.7157V30.166ZM41.7157 32.9272V37.8691H45.0717C45.9118 37.8691 46.5726 37.6615 47.0541 37.2461C47.545 36.8213 47.7904 36.2218 47.7904 35.4478C47.7904 34.6737 47.5497 34.0648 47.0682 33.6211C46.5962 33.168 45.9543 32.9367 45.1425 32.9272H41.7157ZM53.412 33.168C53.412 30.6663 53.9029 28.6839 54.8846 27.2207C55.8759 25.748 57.2541 25.0117 59.0194 25.0117C59.7369 25.0117 60.3882 25.1439 60.9735 25.4082V18.8662H64.4003V25.4648C65.0044 25.1628 65.7124 25.0117 66.5243 25.0117C68.2802 25.0117 69.6537 25.7433 70.6449 27.2065C71.6455 28.6603 72.1459 30.7466 72.1459 33.4653C72.1459 35.7593 71.6455 37.5718 70.6449 38.9028C69.6442 40.2339 68.2802 40.8994 66.5526 40.8994C65.7691 40.8994 65.0516 40.7578 64.4003 40.4746V46.5068H60.9735V40.5312C60.3977 40.7767 59.7369 40.8994 58.9911 40.8994C57.3391 40.8994 56.0175 40.2905 55.0262 39.0728C54.0445 37.8455 53.5111 36.1605 53.4261 34.0176L53.412 33.168ZM68.705 33.168C68.705 31.4499 68.4312 30.1235 67.8837 29.189C67.3361 28.245 66.5621 27.7729 65.5614 27.7729C65.1366 27.7729 64.7496 27.8343 64.4003 27.957V38.0107C64.7118 38.1051 65.1083 38.1523 65.5897 38.1523C67.6665 38.1523 68.705 36.4909 68.705 33.168ZM56.8387 33.4653C56.8387 34.9946 57.0936 36.1605 57.6034 36.9629C58.1132 37.7559 58.8684 38.1523 59.869 38.1523C60.2938 38.1523 60.662 38.1051 60.9735 38.0107V27.9146C60.6525 27.8201 60.2938 27.7729 59.8973 27.7729C58.9156 27.7729 58.1604 28.2308 57.6317 29.1465C57.1031 30.0527 56.8387 31.4924 56.8387 33.4653ZM84.267 40.6162C84.1159 40.3236 83.9838 39.8468 83.8705 39.186C82.7754 40.3283 81.4349 40.8994 79.849 40.8994C78.3103 40.8994 77.0547 40.4604 76.0824 39.5825C75.1101 38.7046 74.6239 37.619 74.6239 36.3257C74.6239 34.6925 75.2281 33.4417 76.4364 32.5732C77.6542 31.6953 79.3912 31.2563 81.6473 31.2563H83.7572V30.251C83.7572 29.458 83.5354 28.8255 83.0917 28.3535C82.648 27.8721 81.973 27.6313 81.0668 27.6313C80.2832 27.6313 79.6413 27.8296 79.141 28.2261C78.6407 28.6131 78.3905 29.1087 78.3905 29.7129H74.9496C74.9496 28.8727 75.2281 28.0892 75.785 27.3623C76.342 26.626 77.0972 26.0501 78.0507 25.6348C79.0135 25.2194 80.085 25.0117 81.265 25.0117C83.0586 25.0117 84.4888 25.4648 85.5555 26.3711C86.6223 27.2679 87.1698 28.5329 87.1981 30.166V37.0762C87.1981 38.4544 87.3916 39.5542 87.7787 40.3755V40.6162H84.267ZM80.4862 38.1382C81.1659 38.1382 81.8031 37.973 82.3978 37.6426C83.002 37.3122 83.4551 36.8685 83.7572 36.3115V33.4229H81.9022C80.6278 33.4229 79.6696 33.6447 79.0277 34.0884C78.3858 34.5321 78.0648 35.1598 78.0648 35.9717C78.0648 36.6325 78.2819 37.1611 78.7162 37.5576C79.1599 37.9447 79.7499 38.1382 80.4862 38.1382ZM112.403 22.8877H105.974V40.6162H102.42V22.8877H96.0482V19.999H112.403V22.8877ZM126.932 33.1113C126.932 35.4808 126.393 37.3735 125.317 38.7896C124.241 40.1961 122.797 40.8994 120.984 40.8994C119.304 40.8994 117.959 40.3472 116.949 39.2427V46.5068H113.508V25.2949H116.68L116.821 26.8525C117.831 25.6253 119.205 25.0117 120.942 25.0117C122.811 25.0117 124.274 25.7103 125.331 27.1074C126.398 28.4951 126.932 30.4256 126.932 32.8989V33.1113ZM123.505 32.814C123.505 31.2847 123.198 30.0716 122.584 29.1748C121.98 28.278 121.112 27.8296 119.979 27.8296C118.572 27.8296 117.562 28.4102 116.949 29.5713V36.3682C117.572 37.5576 118.591 38.1523 120.007 38.1523C121.102 38.1523 121.957 37.7134 122.57 36.8354C123.193 35.9481 123.505 34.6076 123.505 32.814ZM139.01 40.6162C138.859 40.3236 138.727 39.8468 138.614 39.186C137.519 40.3283 136.178 40.8994 134.592 40.8994C133.053 40.8994 131.798 40.4604 130.826 39.5825C129.853 38.7046 129.367 37.619 129.367 36.3257C129.367 34.6925 129.971 33.4417 131.18 32.5732C132.397 31.6953 134.134 31.2563 136.391 31.2563H138.5V30.251C138.5 29.458 138.279 28.8255 137.835 28.3535C137.391 27.8721 136.716 27.6313 135.81 27.6313C135.026 27.6313 134.384 27.8296 133.884 28.2261C133.384 28.6131 133.134 29.1087 133.134 29.7129H129.693C129.693 28.8727 129.971 28.0892 130.528 27.3623C131.085 26.626 131.84 26.0501 132.794 25.6348C133.757 25.2194 134.828 25.0117 136.008 25.0117C137.802 25.0117 139.232 25.4648 140.299 26.3711C141.365 27.2679 141.913 28.5329 141.941 30.166V37.0762C141.941 38.4544 142.135 39.5542 142.522 40.3755V40.6162H139.01ZM135.229 38.1382C135.909 38.1382 136.546 37.973 137.141 37.6426C137.745 37.3122 138.198 36.8685 138.5 36.3115V33.4229H136.645C135.371 33.4229 134.413 33.6447 133.771 34.0884C133.129 34.5321 132.808 35.1598 132.808 35.9717C132.808 36.6325 133.025 37.1611 133.459 37.5576C133.903 37.9447 134.493 38.1382 135.229 38.1382ZM158.523 40.6162H155.082V34.4282H149.12V40.6162H145.68V25.2949H149.12V31.6812H155.082V25.2949H158.523V40.6162ZM168.492 38.1523C169.351 38.1523 170.063 37.9022 170.63 37.4019C171.196 36.9015 171.498 36.2832 171.536 35.5469H174.779C174.741 36.5003 174.444 37.3924 173.887 38.2231C173.33 39.0444 172.574 39.6958 171.621 40.1772C170.668 40.6587 169.639 40.8994 168.534 40.8994C166.391 40.8994 164.692 40.2056 163.436 38.8179C162.181 37.4302 161.553 35.5138 161.553 33.0688V32.7148C161.553 30.3831 162.176 28.5187 163.422 27.1216C164.668 25.715 166.368 25.0117 168.52 25.0117C170.342 25.0117 171.824 25.5451 172.966 26.6118C174.118 27.6691 174.722 29.0615 174.779 30.7891H171.536C171.498 29.9111 171.196 29.189 170.63 28.6226C170.073 28.0562 169.36 27.7729 168.492 27.7729C167.378 27.7729 166.519 28.1789 165.914 28.9907C165.31 29.7931 165.003 31.0156 164.994 32.6582V33.2104C164.994 34.8719 165.291 36.1133 165.886 36.9346C166.49 37.7464 167.359 38.1523 168.492 38.1523Z" fill="white"/>
<path d="M9.16272 2.33594V13H8.26184V3.10498H3.75745L3.50842 7.51416C3.41077 9.09131 3.2594 10.2388 3.05432 10.9565C2.85413 11.6694 2.56604 12.187 2.19006 12.5093C1.81897 12.8267 1.3136 12.9902 0.67395 13H0.293091V12.2383L0.58606 12.231C1.08899 12.2065 1.46741 12.0479 1.72131 11.7549C1.97522 11.4619 2.17053 10.9883 2.30725 10.334C2.44885 9.6748 2.55872 8.65918 2.63684 7.28711L2.90051 2.33594H9.16272ZM11.1915 8.92041C11.1915 8.15869 11.338 7.47266 11.631 6.8623C11.9288 6.25195 12.3463 5.77832 12.8834 5.44141C13.4254 5.09961 14.0382 4.92871 14.7218 4.92871C15.7765 4.92871 16.631 5.2998 17.2853 6.04199C17.9396 6.7793 18.2667 7.7583 18.2667 8.979V9.16211C18.2667 9.92871 18.1178 10.6196 17.8199 11.2349C17.527 11.8452 17.1119 12.3164 16.5748 12.6484C16.0377 12.9805 15.4249 13.1465 14.7365 13.1465C13.6866 13.1465 12.8322 12.7778 12.173 12.0405C11.5187 11.2983 11.1915 10.3169 11.1915 9.09619V8.92041ZM12.0704 9.16211C12.0704 10.1094 12.3146 10.8882 12.8029 11.4985C13.296 12.104 13.9406 12.4067 14.7365 12.4067C15.5275 12.4067 16.1671 12.104 16.6554 11.4985C17.1486 10.8882 17.3951 10.085 17.3951 9.08887V8.92041C17.3951 8.31494 17.2828 7.76074 17.0582 7.25781C16.8336 6.75488 16.5187 6.3667 16.1134 6.09326C15.7081 5.81494 15.2443 5.67578 14.7218 5.67578C13.9406 5.67578 13.3033 5.9834 12.8102 6.59863C12.317 7.20898 12.0704 8.00977 12.0704 9.00098V9.16211ZM25.0197 5.82959H21.0133V13H20.1344V5.0752H25.0197V5.82959ZM31.6188 5.0752H32.4977V13H31.6188V6.48877L27.3414 13H26.4698V5.0752H27.3414V11.5938L31.6188 5.0752ZM37.7784 12.4067C38.3888 12.4067 38.899 12.2358 39.3092 11.894C39.7242 11.5474 39.9489 11.1006 39.983 10.5537H40.8253C40.8009 11.0371 40.6495 11.479 40.3712 11.8794C40.0929 12.2749 39.7218 12.585 39.2579 12.8096C38.799 13.0342 38.3058 13.1465 37.7784 13.1465C36.7384 13.1465 35.9132 12.7852 35.3029 12.0625C34.6974 11.3398 34.3947 10.3682 34.3947 9.14746V8.88379C34.3947 8.10254 34.5314 7.41162 34.8048 6.81104C35.0782 6.21045 35.4689 5.74658 35.9767 5.41943C36.4894 5.09229 37.0875 4.92871 37.7711 4.92871C38.6403 4.92871 39.3556 5.1875 39.9171 5.70508C40.4835 6.22266 40.7863 6.90381 40.8253 7.74854H39.983C39.944 7.12842 39.7194 6.62793 39.3092 6.24707C38.9039 5.86621 38.3912 5.67578 37.7711 5.67578C36.9801 5.67578 36.3649 5.96143 35.9254 6.53271C35.4908 7.104 35.2736 7.90479 35.2736 8.93506V9.19141C35.2736 10.2021 35.4908 10.9907 35.9254 11.5571C36.3649 12.1235 36.9825 12.4067 37.7784 12.4067ZM48.274 5.82227H45.3883V13H44.5094V5.82227H41.7335V5.0752H48.274V5.82227ZM54.9244 5.0752H55.8033V13H54.9244V6.48877L50.6471 13H49.7755V5.0752H50.6471V11.5938L54.9244 5.0752ZM63.7941 13H62.9152V9.66748C62.1925 9.93115 61.5016 10.063 60.8424 10.063C59.7926 10.063 59.0309 9.8335 58.5573 9.37451C58.0836 8.91064 57.837 8.19043 57.8175 7.21387V5.0752H58.6891V7.16992C58.6989 7.92676 58.8649 8.47363 59.1871 8.81055C59.5143 9.14258 60.066 9.30859 60.8424 9.30859C61.5504 9.28906 62.2413 9.16211 62.9152 8.92773V5.0752H63.7941V13ZM69.2067 13.1465C68.5328 13.1465 67.9225 12.9805 67.3756 12.6484C66.8336 12.3164 66.4113 11.855 66.1085 11.2642C65.8058 10.6685 65.6544 10.002 65.6544 9.26465V8.94971C65.6544 8.18799 65.8009 7.50195 66.0939 6.8916C66.3917 6.28125 66.8043 5.80273 67.3317 5.45605C67.859 5.10449 68.4303 4.92871 69.0455 4.92871C70.0074 4.92871 70.7692 5.2583 71.3307 5.91748C71.8971 6.57178 72.1803 7.46777 72.1803 8.60547V9.09619H66.526V9.26465C66.526 10.1631 66.7823 10.9126 67.295 11.5132C67.8126 12.1089 68.462 12.4067 69.2433 12.4067C69.712 12.4067 70.1246 12.3213 70.4811 12.1504C70.8424 11.9795 71.1696 11.7061 71.4625 11.3301L72.0118 11.7476C71.3673 12.6802 70.4323 13.1465 69.2067 13.1465ZM69.0455 5.67578C68.3864 5.67578 67.8297 5.91748 67.3756 6.40088C66.9264 6.88428 66.653 7.53369 66.5553 8.34912H71.3087V8.25391C71.2843 7.49219 71.067 6.87207 70.6569 6.39355C70.2467 5.91504 69.7096 5.67578 69.0455 5.67578ZM76.8165 12.4067C77.4269 12.4067 77.9371 12.2358 78.3473 11.894C78.7623 11.5474 78.9869 11.1006 79.0211 10.5537H79.8634C79.839 11.0371 79.6876 11.479 79.4093 11.8794C79.131 12.2749 78.7599 12.585 78.296 12.8096C77.837 13.0342 77.3439 13.1465 76.8165 13.1465C75.7765 13.1465 74.9513 12.7852 74.3409 12.0625C73.7355 11.3398 73.4327 10.3682 73.4327 9.14746V8.88379C73.4327 8.10254 73.5695 7.41162 73.8429 6.81104C74.1163 6.21045 74.507 5.74658 75.0148 5.41943C75.5275 5.09229 76.1256 4.92871 76.8092 4.92871C77.6783 4.92871 78.3937 5.1875 78.9552 5.70508C79.5216 6.22266 79.8243 6.90381 79.8634 7.74854H79.0211C78.9821 7.12842 78.7574 6.62793 78.3473 6.24707C77.942 5.86621 77.4293 5.67578 76.8092 5.67578C76.0182 5.67578 75.403 5.96143 74.9635 6.53271C74.5289 7.104 74.3116 7.90479 74.3116 8.93506V9.19141C74.3116 10.2021 74.5289 10.9907 74.9635 11.5571C75.403 12.1235 76.0206 12.4067 76.8165 12.4067ZM83.7745 9.36719H82.5587V13H81.6725V5.0752H82.5587V8.59082H83.7599L86.6676 5.0752H87.7736L84.5216 8.92041L88.1324 13H86.9752L83.7745 9.36719ZM94.6071 5.0752H95.486V13H94.6071V6.48877L90.3297 13H89.4581V5.0752H90.3297V11.5938L94.6071 5.0752ZM103.045 5.0752H103.923V13H103.045V6.48877L98.7672 13H97.8956V5.0752H98.7672V11.5938L103.045 5.0752ZM103.001 2.21875C103.001 2.78027 102.808 3.23438 102.422 3.58105C102.041 3.92773 101.528 4.10107 100.884 4.10107C100.249 4.10107 99.7365 3.93018 99.3458 3.58838C98.9601 3.2417 98.7672 2.78516 98.7672 2.21875H99.5143C99.5143 2.62402 99.6339 2.93408 99.8732 3.14893C100.117 3.36377 100.454 3.47119 100.884 3.47119C101.314 3.47119 101.648 3.35889 101.887 3.13428C102.131 2.90967 102.254 2.60449 102.254 2.21875H103.001ZM112.075 9.36719H110.859V13H109.973V5.0752H110.859V8.59082H112.061L114.968 5.0752H116.074L112.822 8.92041L116.433 13H115.276L112.075 9.36719ZM117.056 8.92041C117.056 8.15869 117.202 7.47266 117.495 6.8623C117.793 6.25195 118.211 5.77832 118.748 5.44141C119.29 5.09961 119.902 4.92871 120.586 4.92871C121.641 4.92871 122.495 5.2998 123.15 6.04199C123.804 6.7793 124.131 7.7583 124.131 8.979V9.16211C124.131 9.92871 123.982 10.6196 123.684 11.2349C123.391 11.8452 122.976 12.3164 122.439 12.6484C121.902 12.9805 121.289 13.1465 120.601 13.1465C119.551 13.1465 118.696 12.7778 118.037 12.0405C117.383 11.2983 117.056 10.3169 117.056 9.09619V8.92041ZM117.935 9.16211C117.935 10.1094 118.179 10.8882 118.667 11.4985C119.16 12.104 119.805 12.4067 120.601 12.4067C121.392 12.4067 122.031 12.104 122.52 11.4985C123.013 10.8882 123.259 10.085 123.259 9.08887V8.92041C123.259 8.31494 123.147 7.76074 122.922 7.25781C122.698 6.75488 122.383 6.3667 121.978 6.09326C121.572 5.81494 121.109 5.67578 120.586 5.67578C119.805 5.67578 119.168 5.9834 118.674 6.59863C118.181 7.20898 117.935 8.00977 117.935 9.00098V9.16211ZM130.335 11.8135L133.484 5.0752H134.568V13H133.689V6.49609L130.642 13H130.02L126.914 6.34961V13H126.043V5.0752H127.193L130.335 11.8135ZM143.005 13H142.127V5.82959H137.857V13H136.978V5.0752H143.005V13ZM151.45 5.0752V13H150.571V5.82959H147.327L147.188 8.7959C147.129 9.89453 147.019 10.7344 146.858 11.3154C146.697 11.8916 146.458 12.3164 146.14 12.5898C145.823 12.8633 145.401 13 144.873 13H144.536V12.2236L144.807 12.209C145.31 12.1992 145.672 11.9551 145.891 11.4766C146.111 10.998 146.255 10.1436 146.323 8.91309L146.484 5.0752H151.45ZM156.878 13.1465C156.204 13.1465 155.593 12.9805 155.047 12.6484C154.505 12.3164 154.082 11.855 153.779 11.2642C153.477 10.6685 153.325 10.002 153.325 9.26465V8.94971C153.325 8.18799 153.472 7.50195 153.765 6.8916C154.063 6.28125 154.475 5.80273 155.003 5.45605C155.53 5.10449 156.101 4.92871 156.716 4.92871C157.678 4.92871 158.44 5.2583 159.002 5.91748C159.568 6.57178 159.851 7.46777 159.851 8.60547V9.09619H154.197V9.26465C154.197 10.1631 154.453 10.9126 154.966 11.5132C155.484 12.1089 156.133 12.4067 156.914 12.4067C157.383 12.4067 157.796 12.3213 158.152 12.1504C158.513 11.9795 158.84 11.7061 159.133 11.3301L159.683 11.7476C159.038 12.6802 158.103 13.1465 156.878 13.1465ZM156.716 5.67578C156.057 5.67578 155.501 5.91748 155.047 6.40088C154.597 6.88428 154.324 7.53369 154.226 8.34912H158.98V8.25391C158.955 7.49219 158.738 6.87207 158.328 6.39355C157.918 5.91504 157.38 5.67578 156.716 5.67578ZM163.711 9.36719H162.495V13H161.609V5.0752H162.495V8.59082H163.696L166.604 5.0752H167.71L164.458 8.92041L168.069 13H166.912L163.711 9.36719ZM172.149 12.4067C172.759 12.4067 173.269 12.2358 173.679 11.894C174.094 11.5474 174.319 11.1006 174.353 10.5537H175.195C175.171 11.0371 175.02 11.479 174.741 11.8794C174.463 12.2749 174.092 12.585 173.628 12.8096C173.169 13.0342 172.676 13.1465 172.149 13.1465C171.109 13.1465 170.283 12.7852 169.673 12.0625C169.068 11.3398 168.765 10.3682 168.765 9.14746V8.88379C168.765 8.10254 168.901 7.41162 169.175 6.81104C169.448 6.21045 169.839 5.74658 170.347 5.41943C170.859 5.09229 171.458 4.92871 172.141 4.92871C173.01 4.92871 173.726 5.1875 174.287 5.70508C174.854 6.22266 175.156 6.90381 175.195 7.74854H174.353C174.314 7.12842 174.089 6.62793 173.679 6.24707C173.274 5.86621 172.761 5.67578 172.141 5.67578C171.35 5.67578 170.735 5.96143 170.296 6.53271C169.861 7.104 169.644 7.90479 169.644 8.93506V9.19141C169.644 10.2021 169.861 10.9907 170.296 11.5571C170.735 12.1235 171.353 12.4067 172.149 12.4067Z" fill="white"/>
</svg>
