<svg width="60" height="50" viewBox="0 0 60 50" fill="none" xmlns="http://www.w3.org/2000/svg">
<path d="M56.6374 6.04395V30.8845L35.0681 43.3527V18.4642L56.6374 6.04395Z" fill="#548864"/>
<path d="M60 6.04373V32.8025L31.7053 49.107V16.5458L60 0.241211V6.04373ZM53.2746 28.9661V11.8462L38.4307 20.3822V37.502L53.2746 28.9661Z" fill="white"/>
<path d="M56.6374 6.04395V30.8845L35.0681 43.3527V18.4642L56.6374 6.04395Z" fill="#548864"/>
<path d="M3.36255 6.04395V30.8845L24.9318 43.3527V18.4642L3.36255 6.04395Z" fill="#FF0000"/>
<path d="M6.72538 11.8462V28.9661L21.5693 37.502V20.3822L6.72538 11.8462ZM0 30.8843V0.241211L28.2946 16.5458V49.107L0 32.8025V30.8843Z" fill="white"/>
<path d="M3.36255 6.04395V30.8845L24.9318 43.3527V18.4642L3.36255 6.04395Z" fill="#FF0000"/>
</svg>
